# MagicaVoxel @ Ephtracy

# group
o 

# material
mtllib PipeStrippedTurnedUp.mtl
usemtl palette

# normals
vn -1 0 0
vn 1 0 0
vn 0 0 1
vn 0 0 -1
vn 0 -1 0
vn 0 1 0

# texcoords
vt 0.705078 0.5
vt 0.708984 0.5
vt 0.994141 0.5

# verts
v -0.7 1.2 0.5
v -0.7 1.2 0.3
v -0.7 3 0.5
v -0.7 3 0.3
v -0.4 1.6 0.6
v -0.4 1.6 0.2
v -0.4 3 0.6
v -0.4 3 0.2
v -0.3 1.4 0.6
v -0.3 1.4 0.2
v -0.3 1.5 0.7
v -0.3 1.5 0.6
v -0.3 1.5 0.3
v -0.3 1.5 0.2
v -0.3 1.5 0.1
v -0.3 1.6 0.6
v -0.3 1.6 0.3
v -0.3 1.6 0.2
v -0.3 3 0.7
v -0.3 3 0.6
v -0.3 3 0.2
v -0.3 3 0.1
v -0.2 1.6 0.8
v -0.2 1.6 0.7
v -0.2 1.6 0.1
v -0.2 1.6 -5.96046e-008
v -0.2 3 0.8
v -0.2 3 0.7
v -0.2 3 0.1
v -0.2 3 -5.96046e-008
v 0.6 2.4 0.5
v 0.6 2.4 0.3
v 0.6 3 0.5
v 0.6 3 0.3
v -0.6 1.3 0.5
v -0.6 1.3 0.3
v -0.6 3 0.5
v -0.6 3 0.3
v 0.2 2 0.1
v 0.2 2 -5.96046e-008
v 0.2 2.1 0.8
v 0.2 2.1 0.7
v 0.2 3 0.8
v 0.2 3 0.7
v 0.2 3 0.1
v 0.2 3 -5.96046e-008
v 0.3 2 0.8
v 0.3 2 0.7
v 0.3 2.1 0.8
v 0.3 2.1 0.7
v 0.3 2.1 0.2
v 0.3 2.1 0.1
v 0.3 2.2 0.7
v 0.3 2.2 0.6
v 0.3 3 0.7
v 0.3 3 0.6
v 0.3 3 0.2
v 0.3 3 0.1
v 0.4 2.1 0.7
v 0.4 2.1 0.6
v 0.4 2.2 0.7
v 0.4 2.2 0.6
v 0.4 2.3 0.6
v 0.4 2.3 0.2
v 0.4 3 0.6
v 0.4 3 0.2
v 0.5 2.2 0.6
v 0.5 2.2 0.2
v 0.5 2.3 0.6
v 0.5 2.3 0.2
v 0.7 2.5 0.5
v 0.7 2.5 0.3
v 0.7 3 0.5
v 0.7 3 0.3
v 1.2 1.2 0.5
v 1.2 1.2 0.3
v 1.2 1.3 0.5
v 1.2 1.3 0.3
v 1.2 1.4 0.6
v 1.2 1.4 0.2
v 1.2 1.5 0.7
v 1.2 1.5 0.6
v 1.2 1.5 0.3
v 1.2 1.5 0.2
v 1.2 1.5 0.1
v 1.2 1.6 0.8
v 1.2 1.6 0.7
v 1.2 1.6 0.6
v 1.2 1.6 0.3
v 1.2 1.6 0.1
v 1.2 1.6 -5.96046e-008
v 1.2 2 0.8
v 1.2 2 0.7
v 1.2 2 0.6
v 1.2 2 0.3
v 1.2 2 0.1
v 1.2 2 -5.96046e-008
v 1.2 2.1 0.7
v 1.2 2.1 0.6
v 1.2 2.1 0.3
v 1.2 2.1 0.2
v 1.2 2.1 0.1
v 1.2 2.2 0.6
v 1.2 2.2 0.2
v 1.2 2.4 0.5
v 1.2 2.4 0.3
v 1.2 2.5 0.5
v 1.2 2.5 0.3
v -0.2 1.6 0.8
v -0.2 3 0.8
v 0.2 2.1 0.8
v 0.2 3 0.8
v 0.3 2 0.8
v 0.3 2.1 0.8
v 1.2 1.6 0.8
v 1.2 2 0.8
v -0.3 1.5 0.7
v -0.3 3 0.7
v -0.2 1.6 0.7
v -0.2 3 0.7
v 0.2 2.1 0.7
v 0.2 3 0.7
v 0.3 2 0.7
v 0.3 2.1 0.7
v 0.3 2.2 0.7
v 0.3 3 0.7
v 0.4 2.1 0.7
v 0.4 2.2 0.7
v 1.2 1.5 0.7
v 1.2 1.6 0.7
v 1.2 2 0.7
v 1.2 2.1 0.7
v -0.4 1.6 0.6
v -0.4 3 0.6
v -0.3 1.4 0.6
v -0.3 1.5 0.6
v -0.3 1.6 0.6
v -0.3 3 0.6
v 0.3 2.2 0.6
v 0.3 3 0.6
v 0.4 2.1 0.6
v 0.4 2.2 0.6
v 0.4 2.3 0.6
v 0.4 3 0.6
v 0.5 2.2 0.6
v 0.5 2.3 0.6
v 1.2 1.4 0.6
v 1.2 1.5 0.6
v 1.2 2.1 0.6
v 1.2 2.2 0.6
v -0.7 1.2 0.5
v -0.7 3 0.5
v -0.6 1.3 0.5
v -0.6 3 0.5
v 0.6 2.4 0.5
v 0.6 3 0.5
v 0.7 2.5 0.5
v 0.7 3 0.5
v 1.2 1.2 0.5
v 1.2 1.3 0.5
v 1.2 2.4 0.5
v 1.2 2.5 0.5
v -0.7 1.2 0.3
v -0.7 3 0.3
v -0.6 1.3 0.3
v -0.6 3 0.3
v 0.6 2.4 0.3
v 0.6 3 0.3
v 0.7 2.5 0.3
v 0.7 3 0.3
v 1.2 1.2 0.3
v 1.2 1.3 0.3
v 1.2 2.4 0.3
v 1.2 2.5 0.3
v -0.4 1.6 0.2
v -0.4 3 0.2
v -0.3 1.4 0.2
v -0.3 1.5 0.2
v -0.3 1.6 0.2
v -0.3 3 0.2
v 0.3 2.1 0.2
v 0.3 3 0.2
v 0.4 2.3 0.2
v 0.4 3 0.2
v 0.5 2.2 0.2
v 0.5 2.3 0.2
v 1.2 1.4 0.2
v 1.2 1.5 0.2
v 1.2 2.1 0.2
v 1.2 2.2 0.2
v -0.3 1.5 0.1
v -0.3 3 0.1
v -0.2 1.6 0.1
v -0.2 3 0.1
v 0.2 2 0.1
v 0.2 3 0.1
v 0.3 2.1 0.1
v 0.3 3 0.1
v 1.2 1.5 0.1
v 1.2 1.6 0.1
v 1.2 2 0.1
v 1.2 2.1 0.1
v -0.2 1.6 -5.96046e-008
v -0.2 3 -5.96046e-008
v 0.2 2 -5.96046e-008
v 0.2 3 -5.96046e-008
v 1.2 1.6 -5.96046e-008
v 1.2 2 -5.96046e-008
v -0.7 1.2 0.5
v 1.2 1.2 0.5
v -0.7 1.2 0.3
v 1.2 1.2 0.3
v -0.3 1.4 0.6
v 1.2 1.4 0.6
v -0.3 1.4 0.2
v 1.2 1.4 0.2
v -0.3 1.5 0.7
v 1.2 1.5 0.7
v -0.3 1.5 0.6
v 1.2 1.5 0.6
v -0.3 1.5 0.2
v 1.2 1.5 0.2
v -0.3 1.5 0.1
v 1.2 1.5 0.1
v -0.2 1.6 0.8
v 1.2 1.6 0.8
v -0.2 1.6 0.7
v 1.2 1.6 0.7
v -0.4 1.6 0.6
v -0.3 1.6 0.6
v -0.3 1.6 0.3
v -0.4 1.6 0.2
v -0.3 1.6 0.2
v -0.2 1.6 0.1
v 1.2 1.6 0.1
v -0.2 1.6 -5.96046e-008
v 1.2 1.6 -5.96046e-008
v 0.6 2.4 0.5
v 1.2 2.4 0.5
v 0.6 2.4 0.3
v 1.2 2.4 0.3
v -0.6 1.3 0.5
v 1.2 1.3 0.5
v -0.6 1.3 0.3
v 1.2 1.3 0.3
v 0.3 2 0.8
v 1.2 2 0.8
v 0.3 2 0.7
v 1.2 2 0.7
v 0.2 2 0.1
v 1.2 2 0.1
v 0.2 2 -5.96046e-008
v 1.2 2 -5.96046e-008
v 0.2 2.1 0.8
v 0.3 2.1 0.8
v 0.2 2.1 0.7
v 0.3 2.1 0.7
v 0.4 2.1 0.7
v 1.2 2.1 0.7
v 0.4 2.1 0.6
v 1.2 2.1 0.6
v 0.3 2.1 0.2
v 1.2 2.1 0.2
v 0.3 2.1 0.1
v 1.2 2.1 0.1
v 0.3 2.2 0.7
v 0.4 2.2 0.7
v 0.3 2.2 0.6
v 0.4 2.2 0.6
v 0.5 2.2 0.6
v 1.2 2.2 0.6
v 0.5 2.2 0.2
v 1.2 2.2 0.2
v 0.4 2.3 0.6
v 0.5 2.3 0.6
v 0.4 2.3 0.2
v 0.5 2.3 0.2
v 0.7 2.5 0.5
v 1.2 2.5 0.5
v 0.7 2.5 0.3
v 1.2 2.5 0.3
v -0.2 3 0.8
v 0.2 3 0.8
v -0.3 3 0.7
v -0.2 3 0.7
v 0.2 3 0.7
v 0.3 3 0.7
v -0.4 3 0.6
v -0.3 3 0.6
v -0.2 3 0.6
v 0.2 3 0.6
v 0.3 3 0.6
v 0.4 3 0.6
v -0.7 3 0.5
v -0.6 3 0.5
v 0.6 3 0.5
v 0.7 3 0.5
v -0.7 3 0.3
v -0.6 3 0.3
v -0.3 3 0.3
v -0.2 3 0.3
v 0.2 3 0.3
v 0.3 3 0.3
v 0.6 3 0.3
v 0.7 3 0.3
v -0.4 3 0.2
v -0.3 3 0.2
v 0.3 3 0.2
v 0.4 3 0.2
v -0.3 3 0.1
v -0.2 3 0.1
v 0.2 3 0.1
v 0.3 3 0.1
v -0.2 3 -5.96046e-008
v 0.2 3 -5.96046e-008

# faces
f 3/3/1 2/3/1 1/3/1
f 4/3/1 2/3/1 3/3/1
f 7/1/1 6/1/1 5/1/1
f 8/1/1 6/1/1 7/1/1
f 12/1/1 10/1/1 9/1/1
f 13/1/1 10/1/1 12/1/1
f 14/1/1 10/1/1 13/1/1
f 16/2/1 12/2/1 11/2/1
f 16/1/1 13/1/1 12/1/1
f 17/2/1 15/2/1 14/2/1
f 17/1/1 13/1/1 16/1/1
f 17/2/1 14/2/1 13/2/1
f 18/2/1 15/2/1 17/2/1
f 19/2/1 16/2/1 11/2/1
f 20/2/1 16/2/1 19/2/1
f 21/2/1 15/2/1 18/2/1
f 22/2/1 15/2/1 21/2/1
f 27/1/1 24/1/1 23/1/1
f 28/1/1 24/1/1 27/1/1
f 29/1/1 26/1/1 25/1/1
f 30/1/1 26/1/1 29/1/1
f 33/3/1 32/3/1 31/3/1
f 34/3/1 32/3/1 33/3/1
f 35/3/2 36/3/2 37/3/2
f 37/3/2 36/3/2 38/3/2
f 41/1/2 42/1/2 43/1/2
f 43/1/2 42/1/2 44/1/2
f 39/1/2 40/1/2 45/1/2
f 45/1/2 40/1/2 46/1/2
f 47/1/2 48/1/2 49/1/2
f 49/1/2 48/1/2 50/1/2
f 53/2/2 54/2/2 55/2/2
f 55/2/2 54/2/2 56/2/2
f 51/2/2 52/2/2 57/2/2
f 57/2/2 52/2/2 58/2/2
f 59/2/2 60/2/2 61/2/2
f 61/2/2 60/2/2 62/2/2
f 63/1/2 64/1/2 65/1/2
f 65/1/2 64/1/2 66/1/2
f 67/1/2 68/1/2 69/1/2
f 69/1/2 68/1/2 70/1/2
f 71/3/2 72/3/2 73/3/2
f 73/3/2 72/3/2 74/3/2
f 75/3/2 76/3/2 77/3/2
f 77/3/2 76/3/2 78/3/2
f 79/1/2 80/1/2 82/1/2
f 82/1/2 80/1/2 83/1/2
f 83/1/2 80/1/2 84/1/2
f 81/2/2 82/2/2 87/2/2
f 82/1/2 83/1/2 88/1/2
f 87/2/2 82/2/2 88/2/2
f 84/2/2 85/2/2 89/2/2
f 88/1/2 83/1/2 89/1/2
f 83/2/2 84/2/2 89/2/2
f 89/2/2 85/2/2 90/2/2
f 87/1/2 88/1/2 92/1/2
f 90/1/2 91/1/2 92/1/2
f 89/1/2 90/1/2 92/1/2
f 88/1/2 89/1/2 92/1/2
f 86/1/2 87/1/2 92/1/2
f 92/1/2 91/1/2 93/1/2
f 93/1/2 91/1/2 94/1/2
f 94/1/2 91/1/2 95/1/2
f 95/1/2 91/1/2 96/1/2
f 96/1/2 91/1/2 97/1/2
f 93/2/2 94/2/2 98/2/2
f 94/1/2 95/1/2 99/1/2
f 98/2/2 94/2/2 99/2/2
f 95/2/2 96/2/2 100/2/2
f 99/1/2 95/1/2 100/1/2
f 100/2/2 96/2/2 101/2/2
f 101/2/2 96/2/2 102/2/2
f 99/1/2 100/1/2 103/1/2
f 100/1/2 101/1/2 103/1/2
f 103/1/2 101/1/2 104/1/2
f 105/3/2 106/3/2 107/3/2
f 107/3/2 106/3/2 108/3/2
f 111/1/3 110/1/3 109/1/3
f 112/1/3 110/1/3 111/1/3
f 113/1/3 111/1/3 109/1/3
f 114/1/3 111/1/3 113/1/3
f 115/1/3 113/1/3 109/1/3
f 116/1/3 113/1/3 115/1/3
f 119/2/3 118/2/3 117/2/3
f 120/2/3 118/2/3 119/2/3
f 124/2/3 122/2/3 121/2/3
f 125/2/3 122/2/3 124/2/3
f 126/2/3 122/2/3 125/2/3
f 127/2/3 124/2/3 123/2/3
f 127/2/3 125/2/3 124/2/3
f 128/2/3 125/2/3 127/2/3
f 129/2/3 119/2/3 117/2/3
f 130/2/3 119/2/3 129/2/3
f 131/2/3 127/2/3 123/2/3
f 132/2/3 127/2/3 131/2/3
f 137/1/3 134/1/3 133/1/3
f 138/1/3 134/1/3 137/1/3
f 142/1/3 140/1/3 139/1/3
f 143/1/3 140/1/3 142/1/3
f 144/1/3 140/1/3 143/1/3
f 145/1/3 142/1/3 141/1/3
f 145/1/3 143/1/3 142/1/3
f 146/1/3 143/1/3 145/1/3
f 147/1/3 136/1/3 135/1/3
f 148/1/3 136/1/3 147/1/3
f 149/1/3 145/1/3 141/1/3
f 150/1/3 145/1/3 149/1/3
f 153/3/3 152/3/3 151/3/3
f 154/3/3 152/3/3 153/3/3
f 157/3/3 156/3/3 155/3/3
f 158/3/3 156/3/3 157/3/3
f 159/3/3 153/3/3 151/3/3
f 160/3/3 153/3/3 159/3/3
f 161/3/3 157/3/3 155/3/3
f 162/3/3 157/3/3 161/3/3
f 163/3/4 164/3/4 165/3/4
f 165/3/4 164/3/4 166/3/4
f 167/3/4 168/3/4 169/3/4
f 169/3/4 168/3/4 170/3/4
f 163/3/4 165/3/4 171/3/4
f 171/3/4 165/3/4 172/3/4
f 167/3/4 169/3/4 173/3/4
f 173/3/4 169/3/4 174/3/4
f 175/1/4 176/1/4 179/1/4
f 179/1/4 176/1/4 180/1/4
f 181/1/4 182/1/4 183/1/4
f 183/1/4 182/1/4 184/1/4
f 181/1/4 183/1/4 185/1/4
f 185/1/4 183/1/4 186/1/4
f 177/1/4 178/1/4 187/1/4
f 187/1/4 178/1/4 188/1/4
f 181/1/4 185/1/4 189/1/4
f 189/1/4 185/1/4 190/1/4
f 191/2/4 192/2/4 193/2/4
f 193/2/4 192/2/4 194/2/4
f 195/2/4 196/2/4 197/2/4
f 197/2/4 196/2/4 198/2/4
f 191/2/4 193/2/4 199/2/4
f 199/2/4 193/2/4 200/2/4
f 195/2/4 197/2/4 201/2/4
f 201/2/4 197/2/4 202/2/4
f 203/1/4 204/1/4 205/1/4
f 205/1/4 204/1/4 206/1/4
f 203/1/4 205/1/4 207/1/4
f 207/1/4 205/1/4 208/1/4
f 211/3/5 210/3/5 209/3/5
f 212/3/5 210/3/5 211/3/5
f 215/1/5 214/1/5 213/1/5
f 216/1/5 214/1/5 215/1/5
f 219/2/5 218/2/5 217/2/5
f 220/2/5 218/2/5 219/2/5
f 223/2/5 222/2/5 221/2/5
f 224/2/5 222/2/5 223/2/5
f 227/1/5 226/1/5 225/1/5
f 228/1/5 226/1/5 227/1/5
f 231/1/5 230/1/5 229/1/5
f 232/1/5 231/1/5 229/1/5
f 233/1/5 231/1/5 232/1/5
f 236/1/5 235/1/5 234/1/5
f 237/1/5 235/1/5 236/1/5
f 240/3/5 239/3/5 238/3/5
f 241/3/5 239/3/5 240/3/5
f 242/3/6 243/3/6 244/3/6
f 244/3/6 243/3/6 245/3/6
f 246/1/6 247/1/6 248/1/6
f 248/1/6 247/1/6 249/1/6
f 250/1/6 251/1/6 252/1/6
f 252/1/6 251/1/6 253/1/6
f 254/1/6 255/1/6 256/1/6
f 256/1/6 255/1/6 257/1/6
f 258/2/6 259/2/6 260/2/6
f 260/2/6 259/2/6 261/2/6
f 262/2/6 263/2/6 264/2/6
f 264/2/6 263/2/6 265/2/6
f 266/2/6 267/2/6 268/2/6
f 268/2/6 267/2/6 269/2/6
f 270/1/6 271/1/6 272/1/6
f 272/1/6 271/1/6 273/1/6
f 274/1/6 275/1/6 276/1/6
f 276/1/6 275/1/6 277/1/6
f 278/3/6 279/3/6 280/3/6
f 280/3/6 279/3/6 281/3/6
f 282/1/6 283/1/6 285/1/6
f 285/1/6 283/1/6 286/1/6
f 284/2/6 285/2/6 289/2/6
f 285/1/6 286/1/6 290/1/6
f 289/2/6 285/2/6 290/2/6
f 286/2/6 287/2/6 291/2/6
f 290/1/6 286/1/6 291/1/6
f 291/2/6 287/2/6 292/2/6
f 294/3/6 295/3/6 298/3/6
f 298/3/6 295/3/6 299/3/6
f 289/1/6 290/1/6 300/1/6
f 288/1/6 289/1/6 300/1/6
f 290/1/6 291/1/6 300/1/6
f 291/1/6 292/1/6 300/1/6
f 292/1/6 293/1/6 300/1/6
f 300/1/6 293/1/6 301/1/6
f 301/1/6 293/1/6 302/1/6
f 302/1/6 293/1/6 303/1/6
f 296/3/6 297/3/6 304/3/6
f 304/3/6 297/3/6 305/3/6
f 288/1/6 300/1/6 306/1/6
f 300/2/6 301/2/6 307/2/6
f 306/1/6 300/1/6 307/1/6
f 303/1/6 293/1/6 308/1/6
f 302/2/6 303/2/6 308/2/6
f 308/1/6 293/1/6 309/1/6
f 307/2/6 301/2/6 310/2/6
f 301/1/6 302/1/6 311/1/6
f 310/2/6 301/2/6 311/2/6
f 302/2/6 308/2/6 312/2/6
f 311/1/6 302/1/6 312/1/6
f 312/2/6 308/2/6 313/2/6
f 311/1/6 312/1/6 314/1/6
f 314/1/6 312/1/6 315/1/6
