# MagicaVoxel @ Ephtracy

# group
o 

# material
mtllib PipeStrippedTurned.mtl
usemtl palette

# normals
vn -1 0 0
vn 1 0 0
vn 0 0 1
vn 0 0 -1
vn 0 -1 0
vn 0 1 0

# texcoords
vt 0.705078 0.5
vt 0.708984 0.5
vt 0.994141 0.5

# verts
v -1.3 1.9 0.6
v -1.3 1.9 0.4
v -1.3 2 0.6
v -1.3 2 0.4
v -1.3 2.1 0.7
v -1.3 2.1 0.3
v -1.3 2.2 0.8
v -1.3 2.2 0.7
v -1.3 2.2 0.3
v -1.3 2.2 0.2
v -1.3 2.3 0.9
v -1.3 2.3 0.8
v -1.3 2.3 0.7
v -1.3 2.3 0.3
v -1.3 2.3 0.2
v -1.3 2.3 0.1
v -1.3 2.7 0.9
v -1.3 2.7 0.8
v -1.3 2.7 0.7
v -1.3 2.7 0.3
v -1.3 2.7 0.2
v -1.3 2.7 0.1
v -1.3 2.8 0.8
v -1.3 2.8 0.7
v -1.3 2.8 0.3
v -1.3 2.8 0.2
v -1.3 2.9 0.7
v -1.3 2.9 0.3
v -1.3 3.1 0.6
v -1.3 3.1 0.4
v -1.3 3.2 0.6
v -1.3 3.2 0.4
v -0.6 2.3 0.1
v -0.6 2.3 0
v -0.6 2.7 0.1
v -0.6 2.7 0
v -0.5 2.3 0
v -0.5 2.3 -1
v -0.5 2.7 0.2
v -0.5 2.7 0.1
v -0.5 2.7 0
v -0.5 2.7 -1
v -0.5 2.8 0.2
v -0.5 2.8 0.1
v -0.4 2.2 0
v -0.4 2.2 -1
v -0.4 2.3 0
v -0.4 2.3 -1
v -0.4 2.7 0.1
v -0.4 2.7 -1
v -0.4 2.8 0.3
v -0.4 2.8 0.2
v -0.4 2.8 0.1
v -0.4 2.8 -1
v -0.4 2.9 0.3
v -0.4 2.9 0.2
v -0.3 2.1 0.3
v -0.3 2.1 -1
v -0.3 2.2 0.3
v -0.3 2.2 0.2
v -0.3 2.2 0
v -0.3 2.2 -1
v -0.3 2.3 0.2
v -0.3 2.3 0
v -0.3 2.8 0.2
v -0.3 2.8 -1
v -0.3 2.9 0.2
v -0.3 2.9 -1
v -0.2 1.9 0.4
v -0.2 1.9 -1
v -0.2 2 0.4
v -0.2 2 -1
v -0.2 3.1 0.4
v -0.2 3.1 -1
v -0.2 3.2 0.4
v -0.2 3.2 -1
v -1.19209e-007 1.9 0.6
v -1.19209e-007 1.9 -1
v -1.19209e-007 2 0.6
v -1.19209e-007 2 -1
v -1.19209e-007 2.8 0.7
v -1.19209e-007 2.8 0.6
v -1.19209e-007 2.9 0.7
v -1.19209e-007 2.9 0.6
v -1.19209e-007 3.1 0.6
v -1.19209e-007 3.1 -1
v -1.19209e-007 3.2 0.6
v -1.19209e-007 3.2 -1
v 0.0999999 2.1 0.7
v 0.0999999 2.1 -1
v 0.0999999 2.2 0.7
v 0.0999999 2.2 -1
v 0.0999999 2.7 0.8
v 0.0999999 2.7 0.7
v 0.0999999 2.8 0.8
v 0.0999999 2.8 0.7
v 0.0999999 2.8 0.6
v 0.0999999 2.8 -1
v 0.0999999 2.9 0.6
v 0.0999999 2.9 -1
v 0.2 2.2 0.8
v 0.2 2.2 -1
v 0.2 2.3 0.9
v 0.2 2.3 0.8
v 0.2 2.3 -1
v 0.2 2.7 0.9
v 0.2 2.7 0.8
v 0.2 2.7 0.7
v 0.2 2.7 -1
v 0.2 2.8 0.7
v 0.2 2.8 -1
v 0.3 2.3 0.8
v 0.3 2.3 -1
v 0.3 2.7 0.8
v 0.3 2.7 -1
v -1.3 2.3 0.9
v -1.3 2.7 0.9
v 0.2 2.3 0.9
v 0.2 2.7 0.9
v -1.3 2.2 0.8
v -1.3 2.3 0.8
v -1.3 2.7 0.8
v -1.3 2.8 0.8
v 0.0999999 2.7 0.8
v 0.0999999 2.8 0.8
v 0.2 2.2 0.8
v 0.2 2.3 0.8
v 0.2 2.7 0.8
v 0.3 2.3 0.8
v 0.3 2.7 0.8
v -1.3 2.1 0.7
v -1.3 2.2 0.7
v -1.3 2.8 0.7
v -1.3 2.9 0.7
v -1.19209e-007 2.8 0.7
v -1.19209e-007 2.9 0.7
v 0.0999999 2.1 0.7
v 0.0999999 2.2 0.7
v 0.0999999 2.7 0.7
v 0.0999999 2.8 0.7
v 0.2 2.7 0.7
v 0.2 2.8 0.7
v -1.3 1.9 0.6
v -1.3 2 0.6
v -1.3 3.1 0.6
v -1.3 3.2 0.6
v -1.19209e-007 1.9 0.6
v -1.19209e-007 2 0.6
v -1.19209e-007 2.8 0.6
v -1.19209e-007 2.9 0.6
v -1.19209e-007 3.1 0.6
v -1.19209e-007 3.2 0.6
v 0.0999999 2.8 0.6
v 0.0999999 2.9 0.6
v -0.4 2.2 0
v -0.4 2.3 0
v -0.3 2.2 0
v -0.3 2.3 0
v -1.3 1.9 0.4
v -1.3 2 0.4
v -1.3 3.1 0.4
v -1.3 3.2 0.4
v -0.2 1.9 0.4
v -0.2 2 0.4
v -0.2 3.1 0.4
v -0.2 3.2 0.4
v -1.3 2.1 0.3
v -1.3 2.2 0.3
v -1.3 2.8 0.3
v -1.3 2.9 0.3
v -0.4 2.8 0.3
v -0.4 2.9 0.3
v -0.3 2.1 0.3
v -0.3 2.2 0.3
v -1.3 2.2 0.2
v -1.3 2.3 0.2
v -1.3 2.7 0.2
v -1.3 2.8 0.2
v -0.5 2.7 0.2
v -0.5 2.8 0.2
v -0.4 2.8 0.2
v -0.4 2.9 0.2
v -0.3 2.2 0.2
v -0.3 2.3 0.2
v -0.3 2.8 0.2
v -0.3 2.9 0.2
v -1.3 2.3 0.1
v -1.3 2.7 0.1
v -0.6 2.3 0.1
v -0.6 2.7 0.1
v -0.5 2.7 0.1
v -0.5 2.8 0.1
v -0.4 2.7 0.1
v -0.4 2.8 0.1
v -0.6 2.3 0
v -0.6 2.7 0
v -0.5 2.3 0
v -0.5 2.7 0
v -0.5 2.3 -1
v -0.5 2.7 -1
v -0.4 2.2 -1
v -0.4 2.3 -1
v -0.4 2.7 -1
v -0.4 2.8 -1
v -0.3 2.1 -1
v -0.3 2.2 -1
v -0.3 2.3 -1
v -0.3 2.7 -1
v -0.3 2.8 -1
v -0.3 2.9 -1
v -0.2 1.9 -1
v -0.2 2 -1
v -0.2 3.1 -1
v -0.2 3.2 -1
v -1.19209e-007 1.9 -1
v -1.19209e-007 2 -1
v -1.19209e-007 3.1 -1
v -1.19209e-007 3.2 -1
v 0.0999999 2.1 -1
v 0.0999999 2.2 -1
v 0.0999999 2.3 -1
v 0.0999999 2.7 -1
v 0.0999999 2.8 -1
v 0.0999999 2.9 -1
v 0.2 2.2 -1
v 0.2 2.3 -1
v 0.2 2.7 -1
v 0.2 2.8 -1
v 0.3 2.3 -1
v 0.3 2.7 -1
v -1.3 1.9 0.6
v -1.19209e-007 1.9 0.6
v -1.3 1.9 0.4
v -0.2 1.9 0.4
v -0.2 1.9 -1
v -1.19209e-007 1.9 -1
v -1.3 2.1 0.7
v 0.0999999 2.1 0.7
v -1.3 2.1 0.3
v -0.3 2.1 0.3
v -0.3 2.1 -1
v 0.0999999 2.1 -1
v -1.3 2.2 0.8
v 0.2 2.2 0.8
v -1.3 2.2 0.7
v 0.0999999 2.2 0.7
v -1.3 2.2 0.3
v -0.3 2.2 0.3
v -1.3 2.2 0.2
v -0.3 2.2 0.2
v -0.4 2.2 0
v -0.3 2.2 0
v -0.4 2.2 -1
v -0.3 2.2 -1
v 0.0999999 2.2 -1
v 0.2 2.2 -1
v -1.3 2.3 0.9
v 0.2 2.3 0.9
v -1.3 2.3 0.8
v 0.2 2.3 0.8
v 0.3 2.3 0.8
v -1.3 2.3 0.2
v -0.3 2.3 0.2
v -1.3 2.3 0.1
v -0.6 2.3 0.1
v -0.6 2.3 0
v -0.5 2.3 0
v -0.4 2.3 0
v -0.3 2.3 0
v -0.5 2.3 -1
v -0.4 2.3 -1
v 0.2 2.3 -1
v 0.3 2.3 -1
v -1.3 3.1 0.6
v -1.19209e-007 3.1 0.6
v -1.3 3.1 0.4
v -0.2 3.1 0.4
v -0.2 3.1 -1
v -1.19209e-007 3.1 -1
v -1.3 2 0.6
v -1.19209e-007 2 0.6
v -1.3 2 0.4
v -0.2 2 0.4
v -0.2 2 -1
v -1.19209e-007 2 -1
v -1.3 2.7 0.9
v 0.2 2.7 0.9
v -1.3 2.7 0.8
v 0.0999999 2.7 0.8
v 0.2 2.7 0.8
v 0.3 2.7 0.8
v 0.0999999 2.7 0.7
v 0.2 2.7 0.7
v -1.3 2.7 0.2
v -0.5 2.7 0.2
v -1.3 2.7 0.1
v -0.6 2.7 0.1
v -0.5 2.7 0.1
v -0.4 2.7 0.1
v -0.6 2.7 0
v -0.5 2.7 0
v -0.5 2.7 -1
v -0.4 2.7 -1
v 0.2 2.7 -1
v 0.3 2.7 -1
v -1.3 2.8 0.8
v 0.0999999 2.8 0.8
v -1.3 2.8 0.7
v -1.19209e-007 2.8 0.7
v 0.0999999 2.8 0.7
v 0.2 2.8 0.7
v -1.19209e-007 2.8 0.6
v 0.0999999 2.8 0.6
v -1.3 2.8 0.3
v -0.4 2.8 0.3
v -1.3 2.8 0.2
v -0.5 2.8 0.2
v -0.4 2.8 0.2
v -0.3 2.8 0.2
v -0.5 2.8 0.1
v -0.4 2.8 0.1
v -0.4 2.8 -1
v -0.3 2.8 -1
v 0.0999999 2.8 -1
v 0.2 2.8 -1
v -1.3 2.9 0.7
v -1.19209e-007 2.9 0.7
v -1.19209e-007 2.9 0.6
v 0.0999999 2.9 0.6
v -1.3 2.9 0.3
v -0.4 2.9 0.3
v -0.4 2.9 0.2
v -0.3 2.9 0.2
v -0.3 2.9 -1
v 0.0999999 2.9 -1
v -1.3 3.2 0.6
v -1.19209e-007 3.2 0.6
v -1.3 3.2 0.4
v -0.2 3.2 0.4
v -0.2 3.2 -1
v -1.19209e-007 3.2 -1

# faces
f 3/3/1 2/3/1 1/3/1
f 4/3/1 2/3/1 3/3/1
f 8/1/1 6/1/1 5/1/1
f 9/1/1 6/1/1 8/1/1
f 12/2/1 8/2/1 7/2/1
f 13/1/1 9/1/1 8/1/1
f 13/2/1 8/2/1 12/2/1
f 14/2/1 10/2/1 9/2/1
f 14/1/1 9/1/1 13/1/1
f 15/2/1 10/2/1 14/2/1
f 17/1/1 13/1/1 12/1/1
f 17/1/1 16/1/1 15/1/1
f 17/1/1 15/1/1 14/1/1
f 17/1/1 14/1/1 13/1/1
f 17/1/1 12/1/1 11/1/1
f 18/1/1 16/1/1 17/1/1
f 19/1/1 16/1/1 18/1/1
f 20/1/1 16/1/1 19/1/1
f 21/1/1 16/1/1 20/1/1
f 22/1/1 16/1/1 21/1/1
f 23/2/1 19/2/1 18/2/1
f 24/1/1 20/1/1 19/1/1
f 24/2/1 19/2/1 23/2/1
f 25/2/1 21/2/1 20/2/1
f 25/1/1 20/1/1 24/1/1
f 26/2/1 21/2/1 25/2/1
f 27/1/1 25/1/1 24/1/1
f 28/1/1 25/1/1 27/1/1
f 31/3/1 30/3/1 29/3/1
f 32/3/1 30/3/1 31/3/1
f 35/1/1 34/1/1 33/1/1
f 36/1/1 34/1/1 35/1/1
f 41/1/1 38/1/1 37/1/1
f 42/1/1 38/1/1 41/1/1
f 43/2/1 40/2/1 39/2/1
f 44/2/1 40/2/1 43/2/1
f 47/2/1 46/2/1 45/2/1
f 48/2/1 46/2/1 47/2/1
f 53/2/1 50/2/1 49/2/1
f 54/2/1 50/2/1 53/2/1
f 55/1/1 52/1/1 51/1/1
f 56/1/1 52/1/1 55/1/1
f 59/1/1 58/1/1 57/1/1
f 60/1/1 58/1/1 59/1/1
f 61/1/1 58/1/1 60/1/1
f 62/1/1 58/1/1 61/1/1
f 63/1/1 61/1/1 60/1/1
f 64/1/1 61/1/1 63/1/1
f 67/1/1 66/1/1 65/1/1
f 68/1/1 66/1/1 67/1/1
f 71/3/1 70/3/1 69/3/1
f 72/3/1 70/3/1 71/3/1
f 75/3/1 74/3/1 73/3/1
f 76/3/1 74/3/1 75/3/1
f 77/3/2 78/3/2 79/3/2
f 79/3/2 78/3/2 80/3/2
f 81/1/2 82/1/2 83/1/2
f 83/1/2 82/1/2 84/1/2
f 85/3/2 86/3/2 87/3/2
f 87/3/2 86/3/2 88/3/2
f 89/1/2 90/1/2 91/1/2
f 91/1/2 90/1/2 92/1/2
f 93/2/2 94/2/2 95/2/2
f 95/2/2 94/2/2 96/2/2
f 97/1/2 98/1/2 99/1/2
f 99/1/2 98/1/2 100/1/2
f 101/2/2 102/2/2 104/2/2
f 104/2/2 102/2/2 105/2/2
f 103/1/2 104/1/2 106/1/2
f 106/1/2 104/1/2 107/1/2
f 108/2/2 109/2/2 110/2/2
f 110/2/2 109/2/2 111/2/2
f 112/1/2 113/1/2 114/1/2
f 114/1/2 113/1/2 115/1/2
f 118/1/3 117/1/3 116/1/3
f 119/1/3 117/1/3 118/1/3
f 124/2/3 123/2/3 122/2/3
f 125/2/3 123/2/3 124/2/3
f 126/2/3 121/2/3 120/2/3
f 127/2/3 121/2/3 126/2/3
f 129/1/3 128/1/3 127/1/3
f 130/1/3 128/1/3 129/1/3
f 135/1/3 134/1/3 133/1/3
f 136/1/3 134/1/3 135/1/3
f 137/1/3 132/1/3 131/1/3
f 138/1/3 132/1/3 137/1/3
f 141/2/3 140/2/3 139/2/3
f 142/2/3 140/2/3 141/2/3
f 147/3/3 144/3/3 143/3/3
f 148/3/3 144/3/3 147/3/3
f 151/3/3 146/3/3 145/3/3
f 152/3/3 146/3/3 151/3/3
f 153/1/3 150/1/3 149/1/3
f 154/1/3 150/1/3 153/1/3
f 157/2/3 156/2/3 155/2/3
f 158/2/3 156/2/3 157/2/3
f 159/3/4 160/3/4 163/3/4
f 163/3/4 160/3/4 164/3/4
f 161/3/4 162/3/4 165/3/4
f 165/3/4 162/3/4 166/3/4
f 169/1/4 170/1/4 171/1/4
f 171/1/4 170/1/4 172/1/4
f 167/1/4 168/1/4 173/1/4
f 173/1/4 168/1/4 174/1/4
f 177/2/4 178/2/4 179/2/4
f 179/2/4 178/2/4 180/2/4
f 175/2/4 176/2/4 183/2/4
f 183/2/4 176/2/4 184/2/4
f 181/1/4 182/1/4 185/1/4
f 185/1/4 182/1/4 186/1/4
f 187/1/4 188/1/4 189/1/4
f 189/1/4 188/1/4 190/1/4
f 191/2/4 192/2/4 193/2/4
f 193/2/4 192/2/4 194/2/4
f 195/1/4 196/1/4 197/1/4
f 197/1/4 196/1/4 198/1/4
f 199/1/4 200/1/4 202/1/4
f 202/1/4 200/1/4 203/1/4
f 201/2/4 202/2/4 206/2/4
f 202/1/4 203/1/4 207/1/4
f 206/2/4 202/2/4 207/2/4
f 203/2/4 204/2/4 208/2/4
f 207/1/4 203/1/4 208/1/4
f 208/2/4 204/2/4 209/2/4
f 211/3/4 212/3/4 215/3/4
f 215/3/4 212/3/4 216/3/4
f 213/3/4 214/3/4 217/3/4
f 217/3/4 214/3/4 218/3/4
f 206/1/4 207/1/4 219/1/4
f 205/1/4 206/1/4 219/1/4
f 207/1/4 208/1/4 219/1/4
f 208/1/4 209/1/4 219/1/4
f 209/1/4 210/1/4 219/1/4
f 219/1/4 210/1/4 220/1/4
f 220/1/4 210/1/4 221/1/4
f 221/1/4 210/1/4 222/1/4
f 222/1/4 210/1/4 223/1/4
f 223/1/4 210/1/4 224/1/4
f 220/2/4 221/2/4 225/2/4
f 221/1/4 222/1/4 226/1/4
f 225/2/4 221/2/4 226/2/4
f 222/2/4 223/2/4 227/2/4
f 226/1/4 222/1/4 227/1/4
f 227/2/4 223/2/4 228/2/4
f 226/1/4 227/1/4 229/1/4
f 229/1/4 227/1/4 230/1/4
f 233/3/5 232/3/5 231/3/5
f 234/3/5 232/3/5 233/3/5
f 235/3/5 232/3/5 234/3/5
f 236/3/5 232/3/5 235/3/5
f 239/1/5 238/1/5 237/1/5
f 240/1/5 238/1/5 239/1/5
f 241/1/5 238/1/5 240/1/5
f 242/1/5 238/1/5 241/1/5
f 245/2/5 244/2/5 243/2/5
f 246/2/5 244/2/5 245/2/5
f 249/2/5 248/2/5 247/2/5
f 250/2/5 248/2/5 249/2/5
f 253/2/5 252/2/5 251/2/5
f 254/2/5 252/2/5 253/2/5
f 255/2/5 244/2/5 246/2/5
f 256/2/5 244/2/5 255/2/5
f 259/1/5 258/1/5 257/1/5
f 260/1/5 258/1/5 259/1/5
f 264/1/5 263/1/5 262/1/5
f 265/1/5 263/1/5 264/1/5
f 266/1/5 263/1/5 265/1/5
f 267/1/5 263/1/5 266/1/5
f 268/1/5 263/1/5 267/1/5
f 269/1/5 263/1/5 268/1/5
f 270/1/5 268/1/5 267/1/5
f 271/1/5 268/1/5 270/1/5
f 272/1/5 261/1/5 260/1/5
f 273/1/5 261/1/5 272/1/5
f 276/3/5 275/3/5 274/3/5
f 277/3/5 275/3/5 276/3/5
f 278/3/5 275/3/5 277/3/5
f 279/3/5 275/3/5 278/3/5
f 280/3/6 281/3/6 282/3/6
f 282/3/6 281/3/6 283/3/6
f 283/3/6 281/3/6 284/3/6
f 284/3/6 281/3/6 285/3/6
f 286/1/6 287/1/6 288/1/6
f 288/1/6 287/1/6 289/1/6
f 289/1/6 287/1/6 290/1/6
f 290/1/6 291/1/6 292/1/6
f 289/1/6 290/1/6 292/1/6
f 292/1/6 291/1/6 293/1/6
f 294/1/6 295/1/6 296/1/6
f 296/1/6 295/1/6 297/1/6
f 297/1/6 295/1/6 298/1/6
f 298/1/6 299/1/6 300/1/6
f 297/1/6 298/1/6 300/1/6
f 300/1/6 299/1/6 301/1/6
f 301/1/6 299/1/6 302/1/6
f 302/1/6 299/1/6 303/1/6
f 293/1/6 291/1/6 304/1/6
f 304/1/6 291/1/6 305/1/6
f 306/2/6 307/2/6 308/2/6
f 308/2/6 307/2/6 309/2/6
f 309/2/6 307/2/6 310/2/6
f 310/2/6 311/2/6 312/2/6
f 309/2/6 310/2/6 312/2/6
f 312/2/6 311/2/6 313/2/6
f 314/2/6 315/2/6 316/2/6
f 316/2/6 315/2/6 317/2/6
f 317/2/6 315/2/6 318/2/6
f 318/2/6 319/2/6 320/2/6
f 317/2/6 318/2/6 320/2/6
f 320/2/6 319/2/6 321/2/6
f 321/2/6 319/2/6 322/2/6
f 322/2/6 319/2/6 323/2/6
f 313/2/6 311/2/6 324/2/6
f 324/2/6 311/2/6 325/2/6
f 326/1/6 327/1/6 328/1/6
f 326/1/6 328/1/6 330/1/6
f 328/1/6 329/1/6 330/1/6
f 330/1/6 329/1/6 331/1/6
f 331/1/6 329/1/6 332/1/6
f 332/1/6 329/1/6 333/1/6
f 333/1/6 329/1/6 334/1/6
f 334/1/6 329/1/6 335/1/6
f 336/3/6 337/3/6 338/3/6
f 338/3/6 337/3/6 339/3/6
f 339/3/6 337/3/6 340/3/6
f 340/3/6 337/3/6 341/3/6
