# MagicaVoxel @ Ephtracy

# group
o 

# material
mtllib Fleche.mtl
usemtl palette

# normals
vn -1 0 0
vn 1 0 0
vn 0 0 1
vn 0 0 -1
vn 0 -1 0
vn 0 1 0

# texcoords
vt 0.00195313 0.5
vt 0.0371094 0.5
vt 0.994141 0.5

# verts
v -1.3 3.7 0.3
v -1.3 3.7 0.2
v -1.3 3.7 -0.6
v -1.3 3.7 -0.7
v -1.3 3.9 0.3
v -1.3 3.9 0.2
v -1.3 3.9 -0.6
v -1.3 3.9 -0.7
v -1.2 3.9 0.3
v -1.2 3.9 0.2
v -1.2 3.9 -0.6
v -1.2 3.9 -0.7
v -1.2 4.1 0.3
v -1.2 4.1 0.2
v -1.2 4.1 -0.6
v -1.2 4.1 -0.7
v -1 4.1 0.3
v -1 4.1 0.2
v -1 4.1 -0.6
v -1 4.1 -0.7
v -1 4.3 0.3
v -1 4.3 0.2
v -1 4.3 -0.6
v -1 4.3 -0.7
v -0.8 4.3 0.3
v -0.8 4.3 0.2
v -0.8 4.3 -0.6
v -0.8 4.3 -0.7
v -0.8 4.5 0.3
v -0.8 4.5 0.2
v -0.8 4.5 -0.6
v -0.8 4.5 -0.7
v -0.6 4.5 0.3
v -0.6 4.5 0.2
v -0.6 4.5 -0.6
v -0.6 4.5 -0.7
v -0.6 4.7 0.3
v -0.6 4.7 0.2
v -0.6 4.7 -0.6
v -0.6 4.7 -0.7
v -0.4 1.2 0.3
v -0.4 1.2 0.2
v -0.4 1.2 -0.6
v -0.4 1.2 -0.7
v -0.4 3.7 0.3
v -0.4 3.7 0.2
v -0.4 3.7 -0.6
v -0.4 3.7 -0.7
v -0.4 4.7 0.3
v -0.4 4.7 0.2
v -0.4 4.7 -0.6
v -0.4 4.7 -0.7
v -0.4 4.9 0.3
v -0.4 4.9 0.2
v -0.4 4.9 -0.6
v -0.4 4.9 -0.7
v -0.2 4.9 0.3
v -0.2 4.9 0.2
v -0.2 4.9 -0.6
v -0.2 4.9 -0.7
v -0.2 5.1 0.3
v -0.2 5.1 0.2
v -0.2 5.1 -0.6
v -0.2 5.1 -0.7
v 0 5.1 0.3
v 0 5.1 0.2
v 0 5.1 -0.6
v 0 5.1 -0.7
v 0 5.2 0.3
v 0 5.2 0.2
v 0 5.2 -0.6
v 0 5.2 -0.7
v 0.2 5.1 0.3
v 0.2 5.1 0.2
v 0.2 5.1 -0.6
v 0.2 5.1 -0.7
v 0.2 5.2 0.3
v 0.2 5.2 0.2
v 0.2 5.2 -0.6
v 0.2 5.2 -0.7
v 0.4 4.9 0.3
v 0.4 4.9 0.2
v 0.4 4.9 -0.6
v 0.4 4.9 -0.7
v 0.4 5.1 0.3
v 0.4 5.1 0.2
v 0.4 5.1 -0.6
v 0.4 5.1 -0.7
v 0.6 1.2 0.3
v 0.6 1.2 0.2
v 0.6 1.2 -0.6
v 0.6 1.2 -0.7
v 0.6 3.7 0.3
v 0.6 3.7 0.2
v 0.6 3.7 -0.6
v 0.6 3.7 -0.7
v 0.6 4.7 0.3
v 0.6 4.7 0.2
v 0.6 4.7 -0.6
v 0.6 4.7 -0.7
v 0.6 4.9 0.3
v 0.6 4.9 0.2
v 0.6 4.9 -0.6
v 0.6 4.9 -0.7
v 0.8 4.5 0.3
v 0.8 4.5 0.2
v 0.8 4.5 -0.6
v 0.8 4.5 -0.7
v 0.8 4.7 0.3
v 0.8 4.7 0.2
v 0.8 4.7 -0.6
v 0.8 4.7 -0.7
v 1 4.3 0.3
v 1 4.3 0.2
v 1 4.3 -0.6
v 1 4.3 -0.7
v 1 4.5 0.3
v 1 4.5 0.2
v 1 4.5 -0.6
v 1 4.5 -0.7
v 1.2 4.1 0.3
v 1.2 4.1 0.2
v 1.2 4.1 -0.6
v 1.2 4.1 -0.7
v 1.2 4.3 0.3
v 1.2 4.3 0.2
v 1.2 4.3 -0.6
v 1.2 4.3 -0.7
v 1.4 3.9 0.3
v 1.4 3.9 0.2
v 1.4 3.9 -0.6
v 1.4 3.9 -0.7
v 1.4 4.1 0.3
v 1.4 4.1 0.2
v 1.4 4.1 -0.6
v 1.4 4.1 -0.7
v 1.5 3.7 0.3
v 1.5 3.7 0.2
v 1.5 3.7 -0.6
v 1.5 3.7 -0.7
v 1.5 3.9 0.3
v 1.5 3.9 0.2
v 1.5 3.9 -0.6
v 1.5 3.9 -0.7
v -1.3 3.7 0.3
v -1.3 3.9 0.3
v -1.2 3.8 0.3
v -1.2 3.9 0.3
v -1.2 4.1 0.3
v -1.1 3.9 0.3
v -1.1 4 0.3
v -1 4 0.3
v -1 4.1 0.3
v -1 4.3 0.3
v -0.9 4.1 0.3
v -0.9 4.2 0.3
v -0.8 4.2 0.3
v -0.8 4.3 0.3
v -0.8 4.5 0.3
v -0.7 4.3 0.3
v -0.7 4.4 0.3
v -0.6 4.4 0.3
v -0.6 4.5 0.3
v -0.6 4.7 0.3
v -0.5 4.5 0.3
v -0.5 4.6 0.3
v -0.4 1.2 0.3
v -0.4 3.7 0.3
v -0.4 3.8 0.3
v -0.4 4.6 0.3
v -0.4 4.7 0.3
v -0.4 4.9 0.3
v -0.3 1.3 0.3
v -0.3 3.7 0.3
v -0.3 4.7 0.3
v -0.3 4.8 0.3
v -0.2 4.8 0.3
v -0.2 4.9 0.3
v -0.2 5.1 0.3
v -0.0999999 4.9 0.3
v -0.0999999 5 0.3
v 0 5 0.3
v 0 5.1 0.3
v 0 5.2 0.3
v 0.2 5 0.3
v 0.2 5.1 0.3
v 0.2 5.2 0.3
v 0.3 4.9 0.3
v 0.3 5 0.3
v 0.4 4.8 0.3
v 0.4 4.9 0.3
v 0.4 5.1 0.3
v 0.5 1.3 0.3
v 0.5 3.8 0.3
v 0.5 4.7 0.3
v 0.5 4.8 0.3
v 0.6 1.2 0.3
v 0.6 3.7 0.3
v 0.6 4.6 0.3
v 0.6 4.7 0.3
v 0.6 4.9 0.3
v 0.7 4.5 0.3
v 0.7 4.6 0.3
v 0.8 4.4 0.3
v 0.8 4.5 0.3
v 0.8 4.7 0.3
v 0.9 4.3 0.3
v 0.9 4.4 0.3
v 1 4.2 0.3
v 1 4.3 0.3
v 1 4.5 0.3
v 1.1 4.1 0.3
v 1.1 4.2 0.3
v 1.2 4 0.3
v 1.2 4.1 0.3
v 1.2 4.3 0.3
v 1.3 3.9 0.3
v 1.3 4 0.3
v 1.4 3.8 0.3
v 1.4 3.9 0.3
v 1.4 4.1 0.3
v 1.5 3.7 0.3
v 1.5 3.9 0.3
v -1.3 3.7 -0.7
v -1.3 3.9 -0.7
v -1.2 3.8 -0.7
v -1.2 3.9 -0.7
v -1.2 4.1 -0.7
v -1.1 3.9 -0.7
v -1.1 4 -0.7
v -1 4 -0.7
v -1 4.1 -0.7
v -1 4.3 -0.7
v -0.9 4.1 -0.7
v -0.9 4.2 -0.7
v -0.8 4.2 -0.7
v -0.8 4.3 -0.7
v -0.8 4.5 -0.7
v -0.7 4.3 -0.7
v -0.7 4.4 -0.7
v -0.6 4.4 -0.7
v -0.6 4.5 -0.7
v -0.6 4.7 -0.7
v -0.5 4.5 -0.7
v -0.5 4.6 -0.7
v -0.4 1.2 -0.7
v -0.4 3.7 -0.7
v -0.4 3.8 -0.7
v -0.4 4.6 -0.7
v -0.4 4.7 -0.7
v -0.4 4.9 -0.7
v -0.3 1.2 -0.7
v -0.3 3.7 -0.7
v -0.3 4.7 -0.7
v -0.3 4.8 -0.7
v -0.2 4.8 -0.7
v -0.2 4.9 -0.7
v -0.2 5.1 -0.7
v -0.0999999 4.9 -0.7
v -0.0999999 5 -0.7
v 0 5 -0.7
v 0 5.1 -0.7
v 0 5.2 -0.7
v 0.2 5 -0.7
v 0.2 5.1 -0.7
v 0.2 5.2 -0.7
v 0.3 4.9 -0.7
v 0.3 5 -0.7
v 0.4 4.8 -0.7
v 0.4 4.9 -0.7
v 0.4 5.1 -0.7
v 0.5 1.2 -0.7
v 0.5 3.7 -0.7
v 0.5 4.7 -0.7
v 0.5 4.8 -0.7
v 0.6 1.2 -0.7
v 0.6 3.7 -0.7
v 0.6 3.8 -0.7
v 0.6 4.6 -0.7
v 0.6 4.7 -0.7
v 0.6 4.9 -0.7
v 0.7 4.5 -0.7
v 0.7 4.6 -0.7
v 0.8 4.4 -0.7
v 0.8 4.5 -0.7
v 0.8 4.7 -0.7
v 0.9 4.3 -0.7
v 0.9 4.4 -0.7
v 1 4.2 -0.7
v 1 4.3 -0.7
v 1 4.5 -0.7
v 1.1 4.1 -0.7
v 1.1 4.2 -0.7
v 1.2 4 -0.7
v 1.2 4.1 -0.7
v 1.2 4.3 -0.7
v 1.3 3.9 -0.7
v 1.3 4 -0.7
v 1.4 3.8 -0.7
v 1.4 3.9 -0.7
v 1.4 4.1 -0.7
v 1.5 3.7 -0.7
v 1.5 3.9 -0.7
v -0.4 1.2 0.3
v 0.6 1.2 0.3
v -0.4 1.2 0.2
v 0.6 1.2 0.2
v -0.4 1.2 -0.6
v -0.3 1.2 -0.6
v 0.5 1.2 -0.6
v 0.6 1.2 -0.6
v -0.4 1.2 -0.7
v -0.3 1.2 -0.7
v 0.5 1.2 -0.7
v 0.6 1.2 -0.7
v -1.3 3.7 0.3
v -0.4 3.7 0.3
v 0.6 3.7 0.3
v 1.5 3.7 0.3
v -1.3 3.7 0.2
v -0.4 3.7 0.2
v 0.6 3.7 0.2
v 1.5 3.7 0.2
v -1.3 3.7 -0.6
v -0.4 3.7 -0.6
v 0.6 3.7 -0.6
v 1.5 3.7 -0.6
v -1.3 3.7 -0.7
v -0.4 3.7 -0.7
v 0.6 3.7 -0.7
v 1.5 3.7 -0.7
v -1.3 3.9 0.3
v -1.2 3.9 0.3
v 1.4 3.9 0.3
v 1.5 3.9 0.3
v -1.3 3.9 0.2
v -1.2 3.9 0.2
v 1.4 3.9 0.2
v 1.5 3.9 0.2
v -1.3 3.9 -0.6
v -1.2 3.9 -0.6
v 1.4 3.9 -0.6
v 1.5 3.9 -0.6
v -1.3 3.9 -0.7
v -1.2 3.9 -0.7
v 1.4 3.9 -0.7
v 1.5 3.9 -0.7
v -1.2 4.1 0.3
v -1 4.1 0.3
v 1.2 4.1 0.3
v 1.4 4.1 0.3
v -1.2 4.1 0.2
v -1 4.1 0.2
v 1.2 4.1 0.2
v 1.4 4.1 0.2
v -1.2 4.1 -0.6
v -1 4.1 -0.6
v 1.2 4.1 -0.6
v 1.4 4.1 -0.6
v -1.2 4.1 -0.7
v -1 4.1 -0.7
v 1.2 4.1 -0.7
v 1.4 4.1 -0.7
v -1 4.3 0.3
v -0.8 4.3 0.3
v 1 4.3 0.3
v 1.2 4.3 0.3
v -1 4.3 0.2
v -0.8 4.3 0.2
v 1 4.3 0.2
v 1.2 4.3 0.2
v -1 4.3 -0.6
v -0.8 4.3 -0.6
v 1 4.3 -0.6
v 1.2 4.3 -0.6
v -1 4.3 -0.7
v -0.8 4.3 -0.7
v 1 4.3 -0.7
v 1.2 4.3 -0.7
v -0.8 4.5 0.3
v -0.6 4.5 0.3
v 0.8 4.5 0.3
v 1 4.5 0.3
v -0.8 4.5 0.2
v -0.6 4.5 0.2
v 0.8 4.5 0.2
v 1 4.5 0.2
v -0.8 4.5 -0.6
v -0.6 4.5 -0.6
v 0.8 4.5 -0.6
v 1 4.5 -0.6
v -0.8 4.5 -0.7
v -0.6 4.5 -0.7
v 0.8 4.5 -0.7
v 1 4.5 -0.7
v -0.6 4.7 0.3
v -0.4 4.7 0.3
v 0.6 4.7 0.3
v 0.8 4.7 0.3
v -0.6 4.7 0.2
v -0.4 4.7 0.2
v 0.6 4.7 0.2
v 0.8 4.7 0.2
v -0.6 4.7 -0.6
v -0.4 4.7 -0.6
v 0.6 4.7 -0.6
v 0.8 4.7 -0.6
v -0.6 4.7 -0.7
v -0.4 4.7 -0.7
v 0.6 4.7 -0.7
v 0.8 4.7 -0.7
v -0.4 4.9 0.3
v -0.2 4.9 0.3
v 0.4 4.9 0.3
v 0.6 4.9 0.3
v -0.4 4.9 0.2
v -0.2 4.9 0.2
v 0.4 4.9 0.2
v 0.6 4.9 0.2
v -0.4 4.9 -0.6
v -0.2 4.9 -0.6
v 0.4 4.9 -0.6
v 0.6 4.9 -0.6
v -0.4 4.9 -0.7
v -0.2 4.9 -0.7
v 0.4 4.9 -0.7
v 0.6 4.9 -0.7
v -0.2 5.1 0.3
v 0 5.1 0.3
v 0.2 5.1 0.3
v 0.4 5.1 0.3
v -0.2 5.1 0.2
v 0 5.1 0.2
v 0.2 5.1 0.2
v 0.4 5.1 0.2
v -0.2 5.1 -0.6
v 0 5.1 -0.6
v 0.2 5.1 -0.6
v 0.4 5.1 -0.6
v -0.2 5.1 -0.7
v 0 5.1 -0.7
v 0.2 5.1 -0.7
v 0.4 5.1 -0.7
v 0 5.2 0.3
v 0.2 5.2 0.3
v 0 5.2 0.2
v 0.2 5.2 0.2
v 0 5.2 -0.6
v 0.2 5.2 -0.6
v 0 5.2 -0.7
v 0.2 5.2 -0.7

# faces
f 5/1/1 2/1/1 1/1/1
f 6/3/1 3/3/1 2/3/1
f 6/1/1 2/1/1 5/1/1
f 7/1/1 4/1/1 3/1/1
f 7/3/1 3/3/1 6/3/1
f 8/1/1 4/1/1 7/1/1
f 13/1/1 10/1/1 9/1/1
f 14/3/1 11/3/1 10/3/1
f 14/1/1 10/1/1 13/1/1
f 15/1/1 12/1/1 11/1/1
f 15/3/1 11/3/1 14/3/1
f 16/1/1 12/1/1 15/1/1
f 21/1/1 18/1/1 17/1/1
f 22/3/1 19/3/1 18/3/1
f 22/1/1 18/1/1 21/1/1
f 23/1/1 20/1/1 19/1/1
f 23/3/1 19/3/1 22/3/1
f 24/1/1 20/1/1 23/1/1
f 29/1/1 26/1/1 25/1/1
f 30/3/1 27/3/1 26/3/1
f 30/1/1 26/1/1 29/1/1
f 31/1/1 28/1/1 27/1/1
f 31/3/1 27/3/1 30/3/1
f 32/1/1 28/1/1 31/1/1
f 37/1/1 34/1/1 33/1/1
f 38/3/1 35/3/1 34/3/1
f 38/1/1 34/1/1 37/1/1
f 39/1/1 36/1/1 35/1/1
f 39/3/1 35/3/1 38/3/1
f 40/1/1 36/1/1 39/1/1
f 45/1/1 42/1/1 41/1/1
f 46/3/1 43/3/1 42/3/1
f 46/1/1 42/1/1 45/1/1
f 47/1/1 44/1/1 43/1/1
f 47/3/1 43/3/1 46/3/1
f 48/1/1 44/1/1 47/1/1
f 53/1/1 50/1/1 49/1/1
f 54/3/1 51/3/1 50/3/1
f 54/1/1 50/1/1 53/1/1
f 55/1/1 52/1/1 51/1/1
f 55/3/1 51/3/1 54/3/1
f 56/1/1 52/1/1 55/1/1
f 61/1/1 58/1/1 57/1/1
f 62/3/1 59/3/1 58/3/1
f 62/1/1 58/1/1 61/1/1
f 63/1/1 60/1/1 59/1/1
f 63/3/1 59/3/1 62/3/1
f 64/1/1 60/1/1 63/1/1
f 69/1/1 66/1/1 65/1/1
f 70/3/1 67/3/1 66/3/1
f 70/1/1 66/1/1 69/1/1
f 71/1/1 68/1/1 67/1/1
f 71/3/1 67/3/1 70/3/1
f 72/1/1 68/1/1 71/1/1
f 73/1/2 74/1/2 77/1/2
f 74/3/2 75/3/2 78/3/2
f 77/1/2 74/1/2 78/1/2
f 75/1/2 76/1/2 79/1/2
f 78/3/2 75/3/2 79/3/2
f 79/1/2 76/1/2 80/1/2
f 81/1/2 82/1/2 85/1/2
f 82/3/2 83/3/2 86/3/2
f 85/1/2 82/1/2 86/1/2
f 83/1/2 84/1/2 87/1/2
f 86/3/2 83/3/2 87/3/2
f 87/1/2 84/1/2 88/1/2
f 89/1/2 90/1/2 93/1/2
f 90/3/2 91/3/2 94/3/2
f 93/1/2 90/1/2 94/1/2
f 91/1/2 92/1/2 95/1/2
f 94/3/2 91/3/2 95/3/2
f 95/1/2 92/1/2 96/1/2
f 97/1/2 98/1/2 101/1/2
f 98/3/2 99/3/2 102/3/2
f 101/1/2 98/1/2 102/1/2
f 99/1/2 100/1/2 103/1/2
f 102/3/2 99/3/2 103/3/2
f 103/1/2 100/1/2 104/1/2
f 105/1/2 106/1/2 109/1/2
f 106/3/2 107/3/2 110/3/2
f 109/1/2 106/1/2 110/1/2
f 107/1/2 108/1/2 111/1/2
f 110/3/2 107/3/2 111/3/2
f 111/1/2 108/1/2 112/1/2
f 113/1/2 114/1/2 117/1/2
f 114/3/2 115/3/2 118/3/2
f 117/1/2 114/1/2 118/1/2
f 115/1/2 116/1/2 119/1/2
f 118/3/2 115/3/2 119/3/2
f 119/1/2 116/1/2 120/1/2
f 121/1/2 122/1/2 125/1/2
f 122/3/2 123/3/2 126/3/2
f 125/1/2 122/1/2 126/1/2
f 123/1/2 124/1/2 127/1/2
f 126/3/2 123/3/2 127/3/2
f 127/1/2 124/1/2 128/1/2
f 129/1/2 130/1/2 133/1/2
f 130/3/2 131/3/2 134/3/2
f 133/1/2 130/1/2 134/1/2
f 131/1/2 132/1/2 135/1/2
f 134/3/2 131/3/2 135/3/2
f 135/1/2 132/1/2 136/1/2
f 137/1/2 138/1/2 141/1/2
f 138/3/2 139/3/2 142/3/2
f 141/1/2 138/1/2 142/1/2
f 139/1/2 140/1/2 143/1/2
f 142/3/2 139/3/2 143/3/2
f 143/1/2 140/1/2 144/1/2
f 147/1/3 146/1/3 145/1/3
f 148/1/3 146/1/3 147/1/3
f 150/2/3 148/2/3 147/2/3
f 150/1/3 149/1/3 148/1/3
f 151/1/3 149/1/3 150/1/3
f 152/2/3 151/2/3 150/2/3
f 152/1/3 149/1/3 151/1/3
f 153/1/3 149/1/3 152/1/3
f 155/2/3 153/2/3 152/2/3
f 155/1/3 154/1/3 153/1/3
f 156/1/3 154/1/3 155/1/3
f 157/2/3 156/2/3 155/2/3
f 157/1/3 154/1/3 156/1/3
f 158/1/3 154/1/3 157/1/3
f 160/2/3 158/2/3 157/2/3
f 160/1/3 159/1/3 158/1/3
f 161/1/3 159/1/3 160/1/3
f 162/2/3 161/2/3 160/2/3
f 162/1/3 159/1/3 161/1/3
f 163/1/3 159/1/3 162/1/3
f 165/2/3 163/2/3 162/2/3
f 165/1/3 164/1/3 163/1/3
f 166/1/3 164/1/3 165/1/3
f 168/1/3 147/1/3 145/1/3
f 169/2/3 150/2/3 147/2/3
f 169/2/3 152/2/3 150/2/3
f 169/1/3 147/1/3 168/1/3
f 169/2/3 155/2/3 152/2/3
f 169/2/3 166/2/3 165/2/3
f 169/2/3 165/2/3 162/2/3
f 169/2/3 162/2/3 160/2/3
f 169/2/3 160/2/3 157/2/3
f 169/2/3 157/2/3 155/2/3
f 170/1/3 164/1/3 166/1/3
f 170/2/3 166/2/3 169/2/3
f 171/1/3 164/1/3 170/1/3
f 173/1/3 168/1/3 167/1/3
f 174/2/3 169/2/3 168/2/3
f 174/1/3 168/1/3 173/1/3
f 174/2/3 170/2/3 169/2/3
f 174/2/3 171/2/3 170/2/3
f 175/1/3 172/1/3 171/1/3
f 175/2/3 171/2/3 174/2/3
f 176/1/3 172/1/3 175/1/3
f 177/2/3 174/2/3 173/2/3
f 177/1/3 172/1/3 176/1/3
f 177/2/3 176/2/3 175/2/3
f 177/2/3 175/2/3 174/2/3
f 178/1/3 172/1/3 177/1/3
f 180/2/3 178/2/3 177/2/3
f 180/1/3 179/1/3 178/1/3
f 181/1/3 179/1/3 180/1/3
f 182/2/3 181/2/3 180/2/3
f 182/1/3 179/1/3 181/1/3
f 183/1/3 179/1/3 182/1/3
f 185/2/3 182/2/3 180/2/3
f 185/2/3 183/2/3 182/2/3
f 186/1/3 184/1/3 183/1/3
f 186/2/3 183/2/3 185/2/3
f 187/1/3 184/1/3 186/1/3
f 188/2/3 180/2/3 177/2/3
f 188/2/3 185/2/3 180/2/3
f 189/1/3 186/1/3 185/1/3
f 189/2/3 185/2/3 188/2/3
f 190/2/3 177/2/3 173/2/3
f 190/2/3 188/2/3 177/2/3
f 191/1/3 189/1/3 188/1/3
f 191/2/3 188/2/3 190/2/3
f 192/1/3 186/1/3 189/1/3
f 192/1/3 189/1/3 191/1/3
f 193/1/3 173/1/3 167/1/3
f 193/2/3 190/2/3 173/2/3
f 194/2/3 190/2/3 193/2/3
f 195/2/3 190/2/3 194/2/3
f 196/1/3 191/1/3 190/1/3
f 196/2/3 190/2/3 195/2/3
f 197/1/3 193/1/3 167/1/3
f 197/1/3 194/1/3 193/1/3
f 198/1/3 194/1/3 197/1/3
f 199/2/3 195/2/3 194/2/3
f 200/1/3 196/1/3 195/1/3
f 200/2/3 195/2/3 199/2/3
f 201/1/3 191/1/3 196/1/3
f 201/1/3 196/1/3 200/1/3
f 202/2/3 199/2/3 194/2/3
f 203/1/3 200/1/3 199/1/3
f 203/2/3 199/2/3 202/2/3
f 204/2/3 202/2/3 194/2/3
f 205/1/3 203/1/3 202/1/3
f 205/2/3 202/2/3 204/2/3
f 206/1/3 200/1/3 203/1/3
f 206/1/3 203/1/3 205/1/3
f 207/2/3 204/2/3 194/2/3
f 208/1/3 205/1/3 204/1/3
f 208/2/3 204/2/3 207/2/3
f 209/2/3 207/2/3 194/2/3
f 210/1/3 208/1/3 207/1/3
f 210/2/3 207/2/3 209/2/3
f 211/1/3 205/1/3 208/1/3
f 211/1/3 208/1/3 210/1/3
f 212/2/3 209/2/3 194/2/3
f 213/1/3 210/1/3 209/1/3
f 213/2/3 209/2/3 212/2/3
f 214/2/3 212/2/3 194/2/3
f 215/1/3 213/1/3 212/1/3
f 215/2/3 212/2/3 214/2/3
f 216/1/3 210/1/3 213/1/3
f 216/1/3 213/1/3 215/1/3
f 217/2/3 214/2/3 194/2/3
f 218/1/3 215/1/3 214/1/3
f 218/2/3 214/2/3 217/2/3
f 219/1/3 194/1/3 198/1/3
f 219/2/3 217/2/3 194/2/3
f 220/1/3 218/1/3 217/1/3
f 220/2/3 217/2/3 219/2/3
f 221/1/3 215/1/3 218/1/3
f 221/1/3 218/1/3 220/1/3
f 222/1/3 220/1/3 219/1/3
f 222/1/3 219/1/3 198/1/3
f 223/1/3 220/1/3 222/1/3
f 224/1/4 225/1/4 226/1/4
f 226/1/4 225/1/4 227/1/4
f 226/2/4 227/2/4 229/2/4
f 227/1/4 228/1/4 229/1/4
f 229/1/4 228/1/4 230/1/4
f 229/2/4 230/2/4 231/2/4
f 230/1/4 228/1/4 231/1/4
f 231/1/4 228/1/4 232/1/4
f 231/2/4 232/2/4 234/2/4
f 232/1/4 233/1/4 234/1/4
f 234/1/4 233/1/4 235/1/4
f 234/2/4 235/2/4 236/2/4
f 235/1/4 233/1/4 236/1/4
f 236/1/4 233/1/4 237/1/4
f 236/2/4 237/2/4 239/2/4
f 237/1/4 238/1/4 239/1/4
f 239/1/4 238/1/4 240/1/4
f 239/2/4 240/2/4 241/2/4
f 240/1/4 238/1/4 241/1/4
f 241/1/4 238/1/4 242/1/4
f 241/2/4 242/2/4 244/2/4
f 242/1/4 243/1/4 244/1/4
f 244/1/4 243/1/4 245/1/4
f 224/1/4 226/1/4 247/1/4
f 226/2/4 229/2/4 248/2/4
f 229/2/4 231/2/4 248/2/4
f 247/1/4 226/1/4 248/1/4
f 231/2/4 234/2/4 248/2/4
f 244/2/4 245/2/4 248/2/4
f 241/2/4 244/2/4 248/2/4
f 239/2/4 241/2/4 248/2/4
f 236/2/4 239/2/4 248/2/4
f 234/2/4 236/2/4 248/2/4
f 245/1/4 243/1/4 249/1/4
f 248/2/4 245/2/4 249/2/4
f 249/1/4 243/1/4 250/1/4
f 246/1/4 247/1/4 252/1/4
f 247/2/4 248/2/4 253/2/4
f 252/1/4 247/1/4 253/1/4
f 248/2/4 249/2/4 253/2/4
f 249/2/4 250/2/4 253/2/4
f 250/1/4 251/1/4 254/1/4
f 253/2/4 250/2/4 254/2/4
f 254/1/4 251/1/4 255/1/4
f 252/2/4 253/2/4 256/2/4
f 255/1/4 251/1/4 256/1/4
f 254/2/4 255/2/4 256/2/4
f 253/2/4 254/2/4 256/2/4
f 256/1/4 251/1/4 257/1/4
f 256/2/4 257/2/4 259/2/4
f 257/1/4 258/1/4 259/1/4
f 259/1/4 258/1/4 260/1/4
f 259/2/4 260/2/4 261/2/4
f 260/1/4 258/1/4 261/1/4
f 261/1/4 258/1/4 262/1/4
f 259/2/4 261/2/4 264/2/4
f 261/2/4 262/2/4 264/2/4
f 262/1/4 263/1/4 265/1/4
f 264/2/4 262/2/4 265/2/4
f 265/1/4 263/1/4 266/1/4
f 256/2/4 259/2/4 267/2/4
f 259/2/4 264/2/4 267/2/4
f 264/1/4 265/1/4 268/1/4
f 267/2/4 264/2/4 268/2/4
f 252/2/4 256/2/4 269/2/4
f 256/2/4 267/2/4 269/2/4
f 267/1/4 268/1/4 270/1/4
f 269/2/4 267/2/4 270/2/4
f 268/1/4 265/1/4 271/1/4
f 270/1/4 268/1/4 271/1/4
f 252/2/4 269/2/4 272/2/4
f 272/2/4 269/2/4 273/2/4
f 273/2/4 269/2/4 274/2/4
f 269/1/4 270/1/4 275/1/4
f 274/2/4 269/2/4 275/2/4
f 272/1/4 273/1/4 276/1/4
f 273/2/4 274/2/4 277/2/4
f 276/1/4 273/1/4 277/1/4
f 277/2/4 274/2/4 278/2/4
f 278/2/4 274/2/4 279/2/4
f 274/1/4 275/1/4 280/1/4
f 279/2/4 274/2/4 280/2/4
f 275/1/4 270/1/4 281/1/4
f 280/1/4 275/1/4 281/1/4
f 278/2/4 279/2/4 282/2/4
f 279/1/4 280/1/4 283/1/4
f 282/2/4 279/2/4 283/2/4
f 278/2/4 282/2/4 284/2/4
f 282/1/4 283/1/4 285/1/4
f 284/2/4 282/2/4 285/2/4
f 283/1/4 280/1/4 286/1/4
f 285/1/4 283/1/4 286/1/4
f 278/2/4 284/2/4 287/2/4
f 284/1/4 285/1/4 288/1/4
f 287/2/4 284/2/4 288/2/4
f 278/2/4 287/2/4 289/2/4
f 287/1/4 288/1/4 290/1/4
f 289/2/4 287/2/4 290/2/4
f 288/1/4 285/1/4 291/1/4
f 290/1/4 288/1/4 291/1/4
f 278/2/4 289/2/4 292/2/4
f 289/1/4 290/1/4 293/1/4
f 292/2/4 289/2/4 293/2/4
f 278/2/4 292/2/4 294/2/4
f 292/1/4 293/1/4 295/1/4
f 294/2/4 292/2/4 295/2/4
f 293/1/4 290/1/4 296/1/4
f 295/1/4 293/1/4 296/1/4
f 278/2/4 294/2/4 297/2/4
f 294/1/4 295/1/4 298/1/4
f 297/2/4 294/2/4 298/2/4
f 278/2/4 297/2/4 299/2/4
f 277/1/4 278/1/4 299/1/4
f 297/1/4 298/1/4 300/1/4
f 299/2/4 297/2/4 300/2/4
f 298/1/4 295/1/4 301/1/4
f 300/1/4 298/1/4 301/1/4
f 299/1/4 300/1/4 302/1/4
f 277/1/4 299/1/4 302/1/4
f 302/1/4 300/1/4 303/1/4
f 306/1/5 305/1/5 304/1/5
f 307/1/5 305/1/5 306/1/5
f 308/3/5 307/3/5 306/3/5
f 309/3/5 307/3/5 308/3/5
f 310/3/5 307/3/5 309/3/5
f 311/3/5 307/3/5 310/3/5
f 312/1/5 309/1/5 308/1/5
f 313/2/5 310/2/5 309/2/5
f 313/1/5 309/1/5 312/1/5
f 314/1/5 311/1/5 310/1/5
f 314/2/5 310/2/5 313/2/5
f 315/1/5 311/1/5 314/1/5
f 320/1/5 317/1/5 316/1/5
f 321/1/5 317/1/5 320/1/5
f 322/1/5 319/1/5 318/1/5
f 323/1/5 319/1/5 322/1/5
f 324/3/5 321/3/5 320/3/5
f 325/3/5 321/3/5 324/3/5
f 326/3/5 323/3/5 322/3/5
f 327/3/5 323/3/5 326/3/5
f 328/1/5 325/1/5 324/1/5
f 329/1/5 325/1/5 328/1/5
f 330/1/5 327/1/5 326/1/5
f 331/1/5 327/1/5 330/1/5
f 332/1/6 333/1/6 336/1/6
f 336/1/6 333/1/6 337/1/6
f 334/1/6 335/1/6 338/1/6
f 338/1/6 335/1/6 339/1/6
f 336/3/6 337/3/6 340/3/6
f 340/3/6 337/3/6 341/3/6
f 338/3/6 339/3/6 342/3/6
f 342/3/6 339/3/6 343/3/6
f 340/1/6 341/1/6 344/1/6
f 344/1/6 341/1/6 345/1/6
f 342/1/6 343/1/6 346/1/6
f 346/1/6 343/1/6 347/1/6
f 348/1/6 349/1/6 352/1/6
f 352/1/6 349/1/6 353/1/6
f 350/1/6 351/1/6 354/1/6
f 354/1/6 351/1/6 355/1/6
f 352/3/6 353/3/6 356/3/6
f 356/3/6 353/3/6 357/3/6
f 354/3/6 355/3/6 358/3/6
f 358/3/6 355/3/6 359/3/6
f 356/1/6 357/1/6 360/1/6
f 360/1/6 357/1/6 361/1/6
f 358/1/6 359/1/6 362/1/6
f 362/1/6 359/1/6 363/1/6
f 364/1/6 365/1/6 368/1/6
f 368/1/6 365/1/6 369/1/6
f 366/1/6 367/1/6 370/1/6
f 370/1/6 367/1/6 371/1/6
f 368/3/6 369/3/6 372/3/6
f 372/3/6 369/3/6 373/3/6
f 370/3/6 371/3/6 374/3/6
f 374/3/6 371/3/6 375/3/6
f 372/1/6 373/1/6 376/1/6
f 376/1/6 373/1/6 377/1/6
f 374/1/6 375/1/6 378/1/6
f 378/1/6 375/1/6 379/1/6
f 380/1/6 381/1/6 384/1/6
f 384/1/6 381/1/6 385/1/6
f 382/1/6 383/1/6 386/1/6
f 386/1/6 383/1/6 387/1/6
f 384/3/6 385/3/6 388/3/6
f 388/3/6 385/3/6 389/3/6
f 386/3/6 387/3/6 390/3/6
f 390/3/6 387/3/6 391/3/6
f 388/1/6 389/1/6 392/1/6
f 392/1/6 389/1/6 393/1/6
f 390/1/6 391/1/6 394/1/6
f 394/1/6 391/1/6 395/1/6
f 396/1/6 397/1/6 400/1/6
f 400/1/6 397/1/6 401/1/6
f 398/1/6 399/1/6 402/1/6
f 402/1/6 399/1/6 403/1/6
f 400/3/6 401/3/6 404/3/6
f 404/3/6 401/3/6 405/3/6
f 402/3/6 403/3/6 406/3/6
f 406/3/6 403/3/6 407/3/6
f 404/1/6 405/1/6 408/1/6
f 408/1/6 405/1/6 409/1/6
f 406/1/6 407/1/6 410/1/6
f 410/1/6 407/1/6 411/1/6
f 412/1/6 413/1/6 416/1/6
f 416/1/6 413/1/6 417/1/6
f 414/1/6 415/1/6 418/1/6
f 418/1/6 415/1/6 419/1/6
f 416/3/6 417/3/6 420/3/6
f 420/3/6 417/3/6 421/3/6
f 418/3/6 419/3/6 422/3/6
f 422/3/6 419/3/6 423/3/6
f 420/1/6 421/1/6 424/1/6
f 424/1/6 421/1/6 425/1/6
f 422/1/6 423/1/6 426/1/6
f 426/1/6 423/1/6 427/1/6
f 428/1/6 429/1/6 432/1/6
f 432/1/6 429/1/6 433/1/6
f 430/1/6 431/1/6 434/1/6
f 434/1/6 431/1/6 435/1/6
f 432/3/6 433/3/6 436/3/6
f 436/3/6 433/3/6 437/3/6
f 434/3/6 435/3/6 438/3/6
f 438/3/6 435/3/6 439/3/6
f 436/1/6 437/1/6 440/1/6
f 440/1/6 437/1/6 441/1/6
f 438/1/6 439/1/6 442/1/6
f 442/1/6 439/1/6 443/1/6
f 444/1/6 445/1/6 446/1/6
f 446/1/6 445/1/6 447/1/6
f 446/3/6 447/3/6 448/3/6
f 448/3/6 447/3/6 449/3/6
f 448/1/6 449/1/6 450/1/6
f 450/1/6 449/1/6 451/1/6
