# MagicaVoxel @ Ephtracy

# group
o 

# material
mtllib Batmient3_2.mtl
usemtl palette

# normals
vn -1 0 0
vn 1 0 0
vn 0 0 1
vn 0 0 -1
vn 0 -1 0
vn 0 1 0

# texcoords
vt 0.0410156 0.5
vt 0.986328 0.5

# verts
v -2 0 2
v -2 0 -2
v -2 0.5 1.8
v -2 0.5 -1.7
v -2 1.5 1.8
v -2 1.5 -1.7
v -2 1.7 1.8
v -2 1.7 -1.7
v -2 2.7 1.8
v -2 2.7 -1.7
v -2 2.9 1.8
v -2 2.9 -1.7
v -2 3.9 1.8
v -2 3.9 -1.7
v -2 4.1 1.8
v -2 4.1 -1.7
v -2 5 1.8
v -2 5 -1.7
v -2 5.2 1.8
v -2 5.2 -1.7
v -2 6.1 1.8
v -2 6.1 -1.7
v -2 6.3 1.8
v -2 6.3 -1.7
v -2 7.1 1.8
v -2 7.1 -1.7
v -2 7.3 1.8
v -2 7.3 -1.7
v -2 8 1.8
v -2 8 -1.7
v -2 8.2 1.8
v -2 8.2 -1.7
v -2 8.9 1.8
v -2 8.9 -1.7
v -2 9.1 1.8
v -2 9.1 -1.7
v -2 9.7 1.8
v -2 9.7 -1.7
v -2 10 2
v -2 10 -2
v -1.9 0.5 1.8
v -1.9 0.5 -1.7
v -1.9 1.5 1.8
v -1.9 1.5 -1.7
v -1.9 1.7 1.8
v -1.9 1.7 -1.7
v -1.9 2.7 1.8
v -1.9 2.7 -1.7
v -1.9 2.9 1.8
v -1.9 2.9 -1.7
v -1.9 3.9 1.8
v -1.9 3.9 -1.7
v -1.9 4.1 1.8
v -1.9 4.1 -1.7
v -1.9 5 1.8
v -1.9 5 -1.7
v -1.9 5.2 1.8
v -1.9 5.2 -1.7
v -1.9 6.1 1.8
v -1.9 6.1 -1.7
v -1.9 6.3 1.8
v -1.9 6.3 -1.7
v -1.9 7.1 1.8
v -1.9 7.1 -1.7
v -1.9 7.3 1.8
v -1.9 7.3 -1.7
v -1.9 8 1.8
v -1.9 8 -1.7
v -1.9 8.2 1.8
v -1.9 8.2 -1.7
v -1.9 8.9 1.8
v -1.9 8.9 -1.7
v -1.9 9.1 1.8
v -1.9 9.1 -1.7
v -1.9 9.7 1.8
v -1.9 9.7 -1.7
v -1.2 0 -1.9
v -1.2 0 -2
v -1.2 9.7 -1.9
v -1.2 9.7 -2
v -0.4 0 -1.9
v -0.4 0 -2
v -0.4 9.7 -1.9
v -0.4 9.7 -2
v 0.3 0 -1.9
v 0.3 0 -2
v 0.3 9.7 -1.9
v 0.3 9.7 -2
v 1 0 -1.9
v 1 0 -2
v 1 9.7 -1.9
v 1 9.7 -2
v 1.7 0 -1.9
v 1.7 0 -2
v 1.7 9.7 -1.9
v 1.7 9.7 -2
v -1.9 0 -1.9
v -1.9 0 -2
v -1.9 9.7 -1.9
v -1.9 9.7 -2
v -1.1 0 -1.9
v -1.1 0 -2
v -1.1 9.7 -1.9
v -1.1 9.7 -2
v -0.3 0 -1.9
v -0.3 0 -2
v -0.3 9.7 -1.9
v -0.3 9.7 -2
v 0.4 0 -1.9
v 0.4 0 -2
v 0.4 9.7 -1.9
v 0.4 9.7 -2
v 1.1 0 -1.9
v 1.1 0 -2
v 1.1 9.7 -1.9
v 1.1 9.7 -2
v 1.9 0 2
v 1.9 0 -2
v 1.9 10 2
v 1.9 10 -2
v -2 0 2
v -2 10 2
v 1.9 0 2
v 1.9 10 2
v -2 0.5 -1.7
v -2 1.5 -1.7
v -2 1.7 -1.7
v -2 2.7 -1.7
v -2 2.9 -1.7
v -2 3.9 -1.7
v -2 4.1 -1.7
v -2 5 -1.7
v -2 5.2 -1.7
v -2 6.1 -1.7
v -2 6.3 -1.7
v -2 7.1 -1.7
v -2 7.3 -1.7
v -2 8 -1.7
v -2 8.2 -1.7
v -2 8.9 -1.7
v -2 9.1 -1.7
v -2 9.7 -1.7
v -1.9 0.5 -1.7
v -1.9 1.5 -1.7
v -1.9 1.7 -1.7
v -1.9 2.7 -1.7
v -1.9 2.9 -1.7
v -1.9 3.9 -1.7
v -1.9 4.1 -1.7
v -1.9 5 -1.7
v -1.9 5.2 -1.7
v -1.9 6.1 -1.7
v -1.9 6.3 -1.7
v -1.9 7.1 -1.7
v -1.9 7.3 -1.7
v -1.9 8 -1.7
v -1.9 8.2 -1.7
v -1.9 8.9 -1.7
v -1.9 9.1 -1.7
v -1.9 9.7 -1.7
v -2 0.5 1.8
v -2 1.5 1.8
v -2 1.7 1.8
v -2 2.7 1.8
v -2 2.9 1.8
v -2 3.9 1.8
v -2 4.1 1.8
v -2 5 1.8
v -2 5.2 1.8
v -2 6.1 1.8
v -2 6.3 1.8
v -2 7.1 1.8
v -2 7.3 1.8
v -2 8 1.8
v -2 8.2 1.8
v -2 8.9 1.8
v -2 9.1 1.8
v -2 9.7 1.8
v -1.9 0.5 1.8
v -1.9 1.5 1.8
v -1.9 1.7 1.8
v -1.9 2.7 1.8
v -1.9 2.9 1.8
v -1.9 3.9 1.8
v -1.9 4.1 1.8
v -1.9 5 1.8
v -1.9 5.2 1.8
v -1.9 6.1 1.8
v -1.9 6.3 1.8
v -1.9 7.1 1.8
v -1.9 7.3 1.8
v -1.9 8 1.8
v -1.9 8.2 1.8
v -1.9 8.9 1.8
v -1.9 9.1 1.8
v -1.9 9.7 1.8
v -1.9 0 -1.9
v -1.9 9.7 -1.9
v -1.2 0 -1.9
v -1.2 9.7 -1.9
v -1.1 0 -1.9
v -1.1 9.7 -1.9
v -0.4 0 -1.9
v -0.4 9.7 -1.9
v -0.3 0 -1.9
v -0.3 9.7 -1.9
v 0.3 0 -1.9
v 0.3 9.7 -1.9
v 0.4 0 -1.9
v 0.4 9.7 -1.9
v 1 0 -1.9
v 1 9.7 -1.9
v 1.1 0 -1.9
v 1.1 9.7 -1.9
v 1.7 0 -1.9
v 1.7 9.7 -1.9
v -2 0 -2
v -2 10 -2
v -1.9 0 -2
v -1.9 9.7 -2
v -1.2 0 -2
v -1.2 9.7 -2
v -1.1 0 -2
v -1.1 9.7 -2
v -0.4 0 -2
v -0.4 9.7 -2
v -0.3 0 -2
v -0.3 9.7 -2
v 0.3 0 -2
v 0.3 9.7 -2
v 0.4 0 -2
v 0.4 9.7 -2
v 1 0 -2
v 1 9.7 -2
v 1.1 0 -2
v 1.1 9.7 -2
v 1.7 0 -2
v 1.7 9.7 -2
v 1.9 0 -2
v 1.9 10 -2
v -2 0 2
v 1.9 0 2
v -1.9 0 -1.8
v 1.7 0 -1.8
v -1.9 0 -1.9
v -1.2 0 -1.9
v -1.1 0 -1.9
v -0.4 0 -1.9
v -0.3 0 -1.9
v 0.3 0 -1.9
v 0.4 0 -1.9
v 1 0 -1.9
v 1.1 0 -1.9
v 1.7 0 -1.9
v -2 0 -2
v -1.9 0 -2
v -1.2 0 -2
v -1.1 0 -2
v -0.4 0 -2
v -0.3 0 -2
v 0.3 0 -2
v 0.4 0 -2
v 1 0 -2
v 1.1 0 -2
v 1.7 0 -2
v 1.9 0 -2
v -2 1.5 1.8
v -1.9 1.5 1.8
v -2 1.5 -1.7
v -1.9 1.5 -1.7
v -2 2.7 1.8
v -1.9 2.7 1.8
v -2 2.7 -1.7
v -1.9 2.7 -1.7
v -2 3.9 1.8
v -1.9 3.9 1.8
v -2 3.9 -1.7
v -1.9 3.9 -1.7
v -2 5 1.8
v -1.9 5 1.8
v -2 5 -1.7
v -1.9 5 -1.7
v -2 6.1 1.8
v -1.9 6.1 1.8
v -2 6.1 -1.7
v -1.9 6.1 -1.7
v -2 7.1 1.8
v -1.9 7.1 1.8
v -2 7.1 -1.7
v -1.9 7.1 -1.7
v -2 8 1.8
v -1.9 8 1.8
v -2 8 -1.7
v -1.9 8 -1.7
v -2 8.9 1.8
v -1.9 8.9 1.8
v -2 8.9 -1.7
v -1.9 8.9 -1.7
v -2 9.7 1.8
v -1.9 9.7 1.8
v -2 9.7 -1.7
v -1.9 9.7 -1.7
v -1.9 9.7 -1.9
v -1.2 9.7 -1.9
v -1.1 9.7 -1.9
v -0.4 9.7 -1.9
v -0.3 9.7 -1.9
v 0.3 9.7 -1.9
v 0.4 9.7 -1.9
v 1 9.7 -1.9
v 1.1 9.7 -1.9
v 1.7 9.7 -1.9
v -1.9 9.7 -2
v -1.2 9.7 -2
v -1.1 9.7 -2
v -0.4 9.7 -2
v -0.3 9.7 -2
v 0.3 9.7 -2
v 0.4 9.7 -2
v 1 9.7 -2
v 1.1 9.7 -2
v 1.7 9.7 -2
v -2 0.5 1.8
v -1.9 0.5 1.8
v -2 0.5 -1.7
v -1.9 0.5 -1.7
v -2 1.7 1.8
v -1.9 1.7 1.8
v -2 1.7 -1.7
v -1.9 1.7 -1.7
v -2 2.9 1.8
v -1.9 2.9 1.8
v -2 2.9 -1.7
v -1.9 2.9 -1.7
v -2 4.1 1.8
v -1.9 4.1 1.8
v -2 4.1 -1.7
v -1.9 4.1 -1.7
v -2 5.2 1.8
v -1.9 5.2 1.8
v -2 5.2 -1.7
v -1.9 5.2 -1.7
v -2 6.3 1.8
v -1.9 6.3 1.8
v -2 6.3 -1.7
v -1.9 6.3 -1.7
v -2 7.3 1.8
v -1.9 7.3 1.8
v -2 7.3 -1.7
v -1.9 7.3 -1.7
v -2 8.2 1.8
v -1.9 8.2 1.8
v -2 8.2 -1.7
v -1.9 8.2 -1.7
v -2 9.1 1.8
v -1.9 9.1 1.8
v -2 9.1 -1.7
v -1.9 9.1 -1.7
v -2 10 2
v 1.9 10 2
v -2 10 -2
v 1.9 10 -2

# faces
f 3/2/1 2/2/1 1/2/1
f 4/2/1 2/2/1 3/2/1
f 5/2/1 3/2/1 1/2/1
f 6/2/1 2/2/1 4/2/1
f 7/2/1 5/2/1 1/2/1
f 7/2/1 6/2/1 5/2/1
f 8/2/1 2/2/1 6/2/1
f 8/2/1 6/2/1 7/2/1
f 9/2/1 7/2/1 1/2/1
f 10/2/1 2/2/1 8/2/1
f 11/2/1 9/2/1 1/2/1
f 11/2/1 10/2/1 9/2/1
f 12/2/1 2/2/1 10/2/1
f 12/2/1 10/2/1 11/2/1
f 13/2/1 11/2/1 1/2/1
f 14/2/1 2/2/1 12/2/1
f 15/2/1 13/2/1 1/2/1
f 15/2/1 14/2/1 13/2/1
f 16/2/1 2/2/1 14/2/1
f 16/2/1 14/2/1 15/2/1
f 17/2/1 15/2/1 1/2/1
f 18/2/1 2/2/1 16/2/1
f 19/2/1 17/2/1 1/2/1
f 19/2/1 18/2/1 17/2/1
f 20/2/1 2/2/1 18/2/1
f 20/2/1 18/2/1 19/2/1
f 21/2/1 19/2/1 1/2/1
f 22/2/1 2/2/1 20/2/1
f 23/2/1 21/2/1 1/2/1
f 23/2/1 22/2/1 21/2/1
f 24/2/1 2/2/1 22/2/1
f 24/2/1 22/2/1 23/2/1
f 25/2/1 23/2/1 1/2/1
f 26/2/1 2/2/1 24/2/1
f 27/2/1 25/2/1 1/2/1
f 27/2/1 26/2/1 25/2/1
f 28/2/1 2/2/1 26/2/1
f 28/2/1 26/2/1 27/2/1
f 29/2/1 27/2/1 1/2/1
f 30/2/1 2/2/1 28/2/1
f 31/2/1 29/2/1 1/2/1
f 31/2/1 30/2/1 29/2/1
f 32/2/1 2/2/1 30/2/1
f 32/2/1 30/2/1 31/2/1
f 33/2/1 31/2/1 1/2/1
f 34/2/1 2/2/1 32/2/1
f 35/2/1 33/2/1 1/2/1
f 35/2/1 34/2/1 33/2/1
f 36/2/1 2/2/1 34/2/1
f 36/2/1 34/2/1 35/2/1
f 37/2/1 35/2/1 1/2/1
f 38/2/1 2/2/1 36/2/1
f 39/2/1 37/2/1 1/2/1
f 39/2/1 38/2/1 37/2/1
f 40/2/1 2/2/1 38/2/1
f 40/2/1 38/2/1 39/2/1
f 43/1/1 42/1/1 41/1/1
f 44/1/1 42/1/1 43/1/1
f 47/1/1 46/1/1 45/1/1
f 48/1/1 46/1/1 47/1/1
f 51/1/1 50/1/1 49/1/1
f 52/1/1 50/1/1 51/1/1
f 55/1/1 54/1/1 53/1/1
f 56/1/1 54/1/1 55/1/1
f 59/1/1 58/1/1 57/1/1
f 60/1/1 58/1/1 59/1/1
f 63/1/1 62/1/1 61/1/1
f 64/1/1 62/1/1 63/1/1
f 67/1/1 66/1/1 65/1/1
f 68/1/1 66/1/1 67/1/1
f 71/1/1 70/1/1 69/1/1
f 72/1/1 70/1/1 71/1/1
f 75/1/1 74/1/1 73/1/1
f 76/1/1 74/1/1 75/1/1
f 79/2/1 78/2/1 77/2/1
f 80/2/1 78/2/1 79/2/1
f 83/2/1 82/2/1 81/2/1
f 84/2/1 82/2/1 83/2/1
f 87/2/1 86/2/1 85/2/1
f 88/2/1 86/2/1 87/2/1
f 91/2/1 90/2/1 89/2/1
f 92/2/1 90/2/1 91/2/1
f 95/2/1 94/2/1 93/2/1
f 96/2/1 94/2/1 95/2/1
f 97/2/2 98/2/2 99/2/2
f 99/2/2 98/2/2 100/2/2
f 101/2/2 102/2/2 103/2/2
f 103/2/2 102/2/2 104/2/2
f 105/2/2 106/2/2 107/2/2
f 107/2/2 106/2/2 108/2/2
f 109/2/2 110/2/2 111/2/2
f 111/2/2 110/2/2 112/2/2
f 113/2/2 114/2/2 115/2/2
f 115/2/2 114/2/2 116/2/2
f 117/2/2 118/2/2 119/2/2
f 119/2/2 118/2/2 120/2/2
f 123/2/3 122/2/3 121/2/3
f 124/2/3 122/2/3 123/2/3
f 143/2/3 126/2/3 125/2/3
f 144/2/3 126/2/3 143/2/3
f 145/2/3 128/2/3 127/2/3
f 146/2/3 128/2/3 145/2/3
f 147/2/3 130/2/3 129/2/3
f 148/2/3 130/2/3 147/2/3
f 149/2/3 132/2/3 131/2/3
f 150/2/3 132/2/3 149/2/3
f 151/2/3 134/2/3 133/2/3
f 152/2/3 134/2/3 151/2/3
f 153/2/3 136/2/3 135/2/3
f 154/2/3 136/2/3 153/2/3
f 155/2/3 138/2/3 137/2/3
f 156/2/3 138/2/3 155/2/3
f 157/2/3 140/2/3 139/2/3
f 158/2/3 140/2/3 157/2/3
f 159/2/3 142/2/3 141/2/3
f 160/2/3 142/2/3 159/2/3
f 161/2/4 162/2/4 179/2/4
f 179/2/4 162/2/4 180/2/4
f 163/2/4 164/2/4 181/2/4
f 181/2/4 164/2/4 182/2/4
f 165/2/4 166/2/4 183/2/4
f 183/2/4 166/2/4 184/2/4
f 167/2/4 168/2/4 185/2/4
f 185/2/4 168/2/4 186/2/4
f 169/2/4 170/2/4 187/2/4
f 187/2/4 170/2/4 188/2/4
f 171/2/4 172/2/4 189/2/4
f 189/2/4 172/2/4 190/2/4
f 173/2/4 174/2/4 191/2/4
f 191/2/4 174/2/4 192/2/4
f 175/2/4 176/2/4 193/2/4
f 193/2/4 176/2/4 194/2/4
f 177/2/4 178/2/4 195/2/4
f 195/2/4 178/2/4 196/2/4
f 197/1/4 198/1/4 199/1/4
f 199/1/4 198/1/4 200/1/4
f 201/1/4 202/1/4 203/1/4
f 203/1/4 202/1/4 204/1/4
f 205/1/4 206/1/4 207/1/4
f 207/1/4 206/1/4 208/1/4
f 209/1/4 210/1/4 211/1/4
f 211/1/4 210/1/4 212/1/4
f 213/1/4 214/1/4 215/1/4
f 215/1/4 214/1/4 216/1/4
f 217/2/4 218/2/4 219/2/4
f 219/2/4 218/2/4 220/2/4
f 220/2/4 218/2/4 222/2/4
f 221/2/4 222/2/4 223/2/4
f 222/2/4 218/2/4 224/2/4
f 223/2/4 222/2/4 224/2/4
f 224/2/4 218/2/4 226/2/4
f 225/2/4 226/2/4 227/2/4
f 226/2/4 218/2/4 228/2/4
f 227/2/4 226/2/4 228/2/4
f 228/2/4 218/2/4 230/2/4
f 229/2/4 230/2/4 231/2/4
f 230/2/4 218/2/4 232/2/4
f 231/2/4 230/2/4 232/2/4
f 232/2/4 218/2/4 234/2/4
f 233/2/4 234/2/4 235/2/4
f 234/2/4 218/2/4 236/2/4
f 235/2/4 234/2/4 236/2/4
f 236/2/4 218/2/4 238/2/4
f 237/2/4 238/2/4 239/2/4
f 238/2/4 218/2/4 240/2/4
f 239/2/4 238/2/4 240/2/4
f 243/2/5 242/2/5 241/2/5
f 244/2/5 242/2/5 243/2/5
f 245/2/5 243/2/5 241/2/5
f 245/1/5 244/1/5 243/1/5
f 246/1/5 244/1/5 245/1/5
f 247/1/5 244/1/5 246/1/5
f 248/1/5 244/1/5 247/1/5
f 249/1/5 244/1/5 248/1/5
f 250/1/5 244/1/5 249/1/5
f 251/1/5 244/1/5 250/1/5
f 252/1/5 244/1/5 251/1/5
f 253/1/5 244/1/5 252/1/5
f 254/2/5 242/2/5 244/2/5
f 254/1/5 244/1/5 253/1/5
f 255/2/5 245/2/5 241/2/5
f 256/2/5 245/2/5 255/2/5
f 257/2/5 247/2/5 246/2/5
f 258/2/5 247/2/5 257/2/5
f 259/2/5 249/2/5 248/2/5
f 260/2/5 249/2/5 259/2/5
f 261/2/5 251/2/5 250/2/5
f 262/2/5 251/2/5 261/2/5
f 263/2/5 253/2/5 252/2/5
f 264/2/5 253/2/5 263/2/5
f 265/2/5 242/2/5 254/2/5
f 266/2/5 242/2/5 265/2/5
f 269/2/5 268/2/5 267/2/5
f 270/2/5 268/2/5 269/2/5
f 273/2/5 272/2/5 271/2/5
f 274/2/5 272/2/5 273/2/5
f 277/2/5 276/2/5 275/2/5
f 278/2/5 276/2/5 277/2/5
f 281/2/5 280/2/5 279/2/5
f 282/2/5 280/2/5 281/2/5
f 285/2/5 284/2/5 283/2/5
f 286/2/5 284/2/5 285/2/5
f 289/2/5 288/2/5 287/2/5
f 290/2/5 288/2/5 289/2/5
f 293/2/5 292/2/5 291/2/5
f 294/2/5 292/2/5 293/2/5
f 297/2/5 296/2/5 295/2/5
f 298/2/5 296/2/5 297/2/5
f 301/2/5 300/2/5 299/2/5
f 302/2/5 300/2/5 301/2/5
f 313/2/5 304/2/5 303/2/5
f 314/2/5 304/2/5 313/2/5
f 315/2/5 306/2/5 305/2/5
f 316/2/5 306/2/5 315/2/5
f 317/2/5 308/2/5 307/2/5
f 318/2/5 308/2/5 317/2/5
f 319/2/5 310/2/5 309/2/5
f 320/2/5 310/2/5 319/2/5
f 321/2/5 312/2/5 311/2/5
f 322/2/5 312/2/5 321/2/5
f 323/2/6 324/2/6 325/2/6
f 325/2/6 324/2/6 326/2/6
f 327/2/6 328/2/6 329/2/6
f 329/2/6 328/2/6 330/2/6
f 331/2/6 332/2/6 333/2/6
f 333/2/6 332/2/6 334/2/6
f 335/2/6 336/2/6 337/2/6
f 337/2/6 336/2/6 338/2/6
f 339/2/6 340/2/6 341/2/6
f 341/2/6 340/2/6 342/2/6
f 343/2/6 344/2/6 345/2/6
f 345/2/6 344/2/6 346/2/6
f 347/2/6 348/2/6 349/2/6
f 349/2/6 348/2/6 350/2/6
f 351/2/6 352/2/6 353/2/6
f 353/2/6 352/2/6 354/2/6
f 355/2/6 356/2/6 357/2/6
f 357/2/6 356/2/6 358/2/6
f 359/2/6 360/2/6 361/2/6
f 361/2/6 360/2/6 362/2/6
