# MagicaVoxel @ Ephtracy

# group
o 

# material
mtllib Batmient3.mtl
usemtl palette

# normals
vn -1 0 0
vn 1 0 0
vn 0 0 1
vn 0 0 -1
vn 0 -1 0
vn 0 1 0

# texcoords
vt 0.986328 0.5
vt 0.994141 0.5

# verts
v -2 0 2
v -2 0 -2
v -2 0.5 1.8
v -2 0.5 -1.7
v -2 1.5 1.8
v -2 1.5 -1.7
v -2 1.7 1.8
v -2 1.7 -1.7
v -2 2.7 1.8
v -2 2.7 -1.7
v -2 2.9 1.8
v -2 2.9 -1.7
v -2 3.9 1.8
v -2 3.9 -1.7
v -2 4.1 1.8
v -2 4.1 -1.7
v -2 5 1.8
v -2 5 -1.7
v -2 5.2 1.8
v -2 5.2 -1.7
v -2 6.1 1.8
v -2 6.1 -1.7
v -2 6.3 1.8
v -2 6.3 -1.7
v -2 7.1 1.8
v -2 7.1 -1.7
v -2 7.3 1.8
v -2 7.3 -1.7
v -2 8 1.8
v -2 8 -1.7
v -2 8.2 1.8
v -2 8.2 -1.7
v -2 8.9 1.8
v -2 8.9 -1.7
v -2 9.1 1.8
v -2 9.1 -1.7
v -2 9.7 1.8
v -2 9.7 -1.7
v -2 10 2
v -2 10 -2
v -1.9 0.5 1.8
v -1.9 0.5 -1.7
v -1.9 1.5 1.8
v -1.9 1.5 -1.7
v -1.9 1.7 1.8
v -1.9 1.7 -1.7
v -1.9 2.7 1.8
v -1.9 2.7 -1.7
v -1.9 2.9 1.8
v -1.9 2.9 -1.7
v -1.9 3.9 1.8
v -1.9 3.9 -1.7
v -1.9 4.1 1.8
v -1.9 4.1 -1.7
v -1.9 5 1.8
v -1.9 5 -1.7
v -1.9 5.2 1.8
v -1.9 5.2 -1.7
v -1.9 6.1 1.8
v -1.9 6.1 -1.7
v -1.9 6.3 1.8
v -1.9 6.3 -1.7
v -1.9 7.1 1.8
v -1.9 7.1 -1.7
v -1.9 7.3 1.8
v -1.9 7.3 -1.7
v -1.9 8 1.8
v -1.9 8 -1.7
v -1.9 8.2 1.8
v -1.9 8.2 -1.7
v -1.9 8.9 1.8
v -1.9 8.9 -1.7
v -1.9 9.1 1.8
v -1.9 9.1 -1.7
v -1.9 9.7 1.8
v -1.9 9.7 -1.7
v -1.2 0 -1.9
v -1.2 0 -2
v -1.2 9.7 -1.9
v -1.2 9.7 -2
v -0.4 0 -1.9
v -0.4 0 -2
v -0.4 9.7 -1.9
v -0.4 9.7 -2
v 0.3 0 -1.9
v 0.3 0 -2
v 0.3 9.7 -1.9
v 0.3 9.7 -2
v 1 0 -1.9
v 1 0 -2
v 1 9.7 -1.9
v 1 9.7 -2
v 1.7 0 -1.9
v 1.7 0 -2
v 1.7 9.7 -1.9
v 1.7 9.7 -2
v -1.9 0 -1.9
v -1.9 0 -2
v -1.9 9.7 -1.9
v -1.9 9.7 -2
v -1.1 0 -1.9
v -1.1 0 -2
v -1.1 9.7 -1.9
v -1.1 9.7 -2
v -0.3 0 -1.9
v -0.3 0 -2
v -0.3 9.7 -1.9
v -0.3 9.7 -2
v 0.4 0 -1.9
v 0.4 0 -2
v 0.4 9.7 -1.9
v 0.4 9.7 -2
v 1.1 0 -1.9
v 1.1 0 -2
v 1.1 9.7 -1.9
v 1.1 9.7 -2
v 1.9 0 2
v 1.9 0 -2
v 1.9 10 2
v 1.9 10 -2
v -2 0 2
v -2 10 2
v 1.9 0 2
v 1.9 10 2
v -2 0.5 -1.7
v -2 1.5 -1.7
v -2 1.7 -1.7
v -2 2.7 -1.7
v -2 2.9 -1.7
v -2 3.9 -1.7
v -2 4.1 -1.7
v -2 5 -1.7
v -2 5.2 -1.7
v -2 6.1 -1.7
v -2 6.3 -1.7
v -2 7.1 -1.7
v -2 7.3 -1.7
v -2 8 -1.7
v -2 8.2 -1.7
v -2 8.9 -1.7
v -2 9.1 -1.7
v -2 9.7 -1.7
v -1.9 0.5 -1.7
v -1.9 1.5 -1.7
v -1.9 1.7 -1.7
v -1.9 2.7 -1.7
v -1.9 2.9 -1.7
v -1.9 3.9 -1.7
v -1.9 4.1 -1.7
v -1.9 5 -1.7
v -1.9 5.2 -1.7
v -1.9 6.1 -1.7
v -1.9 6.3 -1.7
v -1.9 7.1 -1.7
v -1.9 7.3 -1.7
v -1.9 8 -1.7
v -1.9 8.2 -1.7
v -1.9 8.9 -1.7
v -1.9 9.1 -1.7
v -1.9 9.7 -1.7
v -2 0.5 1.8
v -2 1.5 1.8
v -2 1.7 1.8
v -2 2.7 1.8
v -2 2.9 1.8
v -2 3.9 1.8
v -2 4.1 1.8
v -2 5 1.8
v -2 5.2 1.8
v -2 6.1 1.8
v -2 6.3 1.8
v -2 7.1 1.8
v -2 7.3 1.8
v -2 8 1.8
v -2 8.2 1.8
v -2 8.9 1.8
v -2 9.1 1.8
v -2 9.7 1.8
v -1.9 0.5 1.8
v -1.9 1.5 1.8
v -1.9 1.7 1.8
v -1.9 2.7 1.8
v -1.9 2.9 1.8
v -1.9 3.9 1.8
v -1.9 4.1 1.8
v -1.9 5 1.8
v -1.9 5.2 1.8
v -1.9 6.1 1.8
v -1.9 6.3 1.8
v -1.9 7.1 1.8
v -1.9 7.3 1.8
v -1.9 8 1.8
v -1.9 8.2 1.8
v -1.9 8.9 1.8
v -1.9 9.1 1.8
v -1.9 9.7 1.8
v -1.9 0 -1.9
v -1.9 9.7 -1.9
v -1.2 0 -1.9
v -1.2 9.7 -1.9
v -1.1 0 -1.9
v -1.1 9.7 -1.9
v -0.4 0 -1.9
v -0.4 9.7 -1.9
v -0.3 0 -1.9
v -0.3 9.7 -1.9
v 0.3 0 -1.9
v 0.3 9.7 -1.9
v 0.4 0 -1.9
v 0.4 9.7 -1.9
v 1 0 -1.9
v 1 9.7 -1.9
v 1.1 0 -1.9
v 1.1 9.7 -1.9
v 1.7 0 -1.9
v 1.7 9.7 -1.9
v -2 0 -2
v -2 10 -2
v -1.9 0 -2
v -1.9 9.7 -2
v -1.2 0 -2
v -1.2 9.7 -2
v -1.1 0 -2
v -1.1 9.7 -2
v -0.4 0 -2
v -0.4 9.7 -2
v -0.3 0 -2
v -0.3 9.7 -2
v 0.3 0 -2
v 0.3 9.7 -2
v 0.4 0 -2
v 0.4 9.7 -2
v 1 0 -2
v 1 9.7 -2
v 1.1 0 -2
v 1.1 9.7 -2
v 1.7 0 -2
v 1.7 9.7 -2
v 1.9 0 -2
v 1.9 10 -2
v -2 0 2
v 1.9 0 2
v -1.9 0 -1.8
v 1.7 0 -1.8
v -1.9 0 -1.9
v -1.2 0 -1.9
v -1.1 0 -1.9
v -0.4 0 -1.9
v -0.3 0 -1.9
v 0.3 0 -1.9
v 0.4 0 -1.9
v 1 0 -1.9
v 1.1 0 -1.9
v 1.7 0 -1.9
v -2 0 -2
v -1.9 0 -2
v -1.2 0 -2
v -1.1 0 -2
v -0.4 0 -2
v -0.3 0 -2
v 0.3 0 -2
v 0.4 0 -2
v 1 0 -2
v 1.1 0 -2
v 1.7 0 -2
v 1.9 0 -2
v -2 1.5 1.8
v -1.9 1.5 1.8
v -2 1.5 -1.7
v -1.9 1.5 -1.7
v -2 2.7 1.8
v -1.9 2.7 1.8
v -2 2.7 -1.7
v -1.9 2.7 -1.7
v -2 3.9 1.8
v -1.9 3.9 1.8
v -2 3.9 -1.7
v -1.9 3.9 -1.7
v -2 5 1.8
v -1.9 5 1.8
v -2 5 -1.7
v -1.9 5 -1.7
v -2 6.1 1.8
v -1.9 6.1 1.8
v -2 6.1 -1.7
v -1.9 6.1 -1.7
v -2 7.1 1.8
v -1.9 7.1 1.8
v -2 7.1 -1.7
v -1.9 7.1 -1.7
v -2 8 1.8
v -1.9 8 1.8
v -2 8 -1.7
v -1.9 8 -1.7
v -2 8.9 1.8
v -1.9 8.9 1.8
v -2 8.9 -1.7
v -1.9 8.9 -1.7
v -2 9.7 1.8
v -1.9 9.7 1.8
v -2 9.7 -1.7
v -1.9 9.7 -1.7
v -1.9 9.7 -1.9
v -1.2 9.7 -1.9
v -1.1 9.7 -1.9
v -0.4 9.7 -1.9
v -0.3 9.7 -1.9
v 0.3 9.7 -1.9
v 0.4 9.7 -1.9
v 1 9.7 -1.9
v 1.1 9.7 -1.9
v 1.7 9.7 -1.9
v -1.9 9.7 -2
v -1.2 9.7 -2
v -1.1 9.7 -2
v -0.4 9.7 -2
v -0.3 9.7 -2
v 0.3 9.7 -2
v 0.4 9.7 -2
v 1 9.7 -2
v 1.1 9.7 -2
v 1.7 9.7 -2
v -2 0.5 1.8
v -1.9 0.5 1.8
v -2 0.5 -1.7
v -1.9 0.5 -1.7
v -2 1.7 1.8
v -1.9 1.7 1.8
v -2 1.7 -1.7
v -1.9 1.7 -1.7
v -2 2.9 1.8
v -1.9 2.9 1.8
v -2 2.9 -1.7
v -1.9 2.9 -1.7
v -2 4.1 1.8
v -1.9 4.1 1.8
v -2 4.1 -1.7
v -1.9 4.1 -1.7
v -2 5.2 1.8
v -1.9 5.2 1.8
v -2 5.2 -1.7
v -1.9 5.2 -1.7
v -2 6.3 1.8
v -1.9 6.3 1.8
v -2 6.3 -1.7
v -1.9 6.3 -1.7
v -2 7.3 1.8
v -1.9 7.3 1.8
v -2 7.3 -1.7
v -1.9 7.3 -1.7
v -2 8.2 1.8
v -1.9 8.2 1.8
v -2 8.2 -1.7
v -1.9 8.2 -1.7
v -2 9.1 1.8
v -1.9 9.1 1.8
v -2 9.1 -1.7
v -1.9 9.1 -1.7
v -2 10 2
v 1.9 10 2
v -2 10 -2
v 1.9 10 -2

# faces
f 3/1/1 2/1/1 1/1/1
f 4/1/1 2/1/1 3/1/1
f 5/1/1 3/1/1 1/1/1
f 6/1/1 2/1/1 4/1/1
f 7/1/1 5/1/1 1/1/1
f 7/1/1 6/1/1 5/1/1
f 8/1/1 2/1/1 6/1/1
f 8/1/1 6/1/1 7/1/1
f 9/1/1 7/1/1 1/1/1
f 10/1/1 2/1/1 8/1/1
f 11/1/1 9/1/1 1/1/1
f 11/1/1 10/1/1 9/1/1
f 12/1/1 2/1/1 10/1/1
f 12/1/1 10/1/1 11/1/1
f 13/1/1 11/1/1 1/1/1
f 14/1/1 2/1/1 12/1/1
f 15/1/1 13/1/1 1/1/1
f 15/1/1 14/1/1 13/1/1
f 16/1/1 2/1/1 14/1/1
f 16/1/1 14/1/1 15/1/1
f 17/1/1 15/1/1 1/1/1
f 18/1/1 2/1/1 16/1/1
f 19/1/1 17/1/1 1/1/1
f 19/1/1 18/1/1 17/1/1
f 20/1/1 2/1/1 18/1/1
f 20/1/1 18/1/1 19/1/1
f 21/1/1 19/1/1 1/1/1
f 22/1/1 2/1/1 20/1/1
f 23/1/1 21/1/1 1/1/1
f 23/1/1 22/1/1 21/1/1
f 24/1/1 2/1/1 22/1/1
f 24/1/1 22/1/1 23/1/1
f 25/1/1 23/1/1 1/1/1
f 26/1/1 2/1/1 24/1/1
f 27/1/1 25/1/1 1/1/1
f 27/1/1 26/1/1 25/1/1
f 28/1/1 2/1/1 26/1/1
f 28/1/1 26/1/1 27/1/1
f 29/1/1 27/1/1 1/1/1
f 30/1/1 2/1/1 28/1/1
f 31/1/1 29/1/1 1/1/1
f 31/1/1 30/1/1 29/1/1
f 32/1/1 2/1/1 30/1/1
f 32/1/1 30/1/1 31/1/1
f 33/1/1 31/1/1 1/1/1
f 34/1/1 2/1/1 32/1/1
f 35/1/1 33/1/1 1/1/1
f 35/1/1 34/1/1 33/1/1
f 36/1/1 2/1/1 34/1/1
f 36/1/1 34/1/1 35/1/1
f 37/1/1 35/1/1 1/1/1
f 38/1/1 2/1/1 36/1/1
f 39/1/1 37/1/1 1/1/1
f 39/1/1 38/1/1 37/1/1
f 40/1/1 2/1/1 38/1/1
f 40/1/1 38/1/1 39/1/1
f 43/2/1 42/2/1 41/2/1
f 44/2/1 42/2/1 43/2/1
f 47/2/1 46/2/1 45/2/1
f 48/2/1 46/2/1 47/2/1
f 51/2/1 50/2/1 49/2/1
f 52/2/1 50/2/1 51/2/1
f 55/2/1 54/2/1 53/2/1
f 56/2/1 54/2/1 55/2/1
f 59/2/1 58/2/1 57/2/1
f 60/2/1 58/2/1 59/2/1
f 63/2/1 62/2/1 61/2/1
f 64/2/1 62/2/1 63/2/1
f 67/2/1 66/2/1 65/2/1
f 68/2/1 66/2/1 67/2/1
f 71/2/1 70/2/1 69/2/1
f 72/2/1 70/2/1 71/2/1
f 75/2/1 74/2/1 73/2/1
f 76/2/1 74/2/1 75/2/1
f 79/1/1 78/1/1 77/1/1
f 80/1/1 78/1/1 79/1/1
f 83/1/1 82/1/1 81/1/1
f 84/1/1 82/1/1 83/1/1
f 87/1/1 86/1/1 85/1/1
f 88/1/1 86/1/1 87/1/1
f 91/1/1 90/1/1 89/1/1
f 92/1/1 90/1/1 91/1/1
f 95/1/1 94/1/1 93/1/1
f 96/1/1 94/1/1 95/1/1
f 97/1/2 98/1/2 99/1/2
f 99/1/2 98/1/2 100/1/2
f 101/1/2 102/1/2 103/1/2
f 103/1/2 102/1/2 104/1/2
f 105/1/2 106/1/2 107/1/2
f 107/1/2 106/1/2 108/1/2
f 109/1/2 110/1/2 111/1/2
f 111/1/2 110/1/2 112/1/2
f 113/1/2 114/1/2 115/1/2
f 115/1/2 114/1/2 116/1/2
f 117/1/2 118/1/2 119/1/2
f 119/1/2 118/1/2 120/1/2
f 123/1/3 122/1/3 121/1/3
f 124/1/3 122/1/3 123/1/3
f 143/1/3 126/1/3 125/1/3
f 144/1/3 126/1/3 143/1/3
f 145/1/3 128/1/3 127/1/3
f 146/1/3 128/1/3 145/1/3
f 147/1/3 130/1/3 129/1/3
f 148/1/3 130/1/3 147/1/3
f 149/1/3 132/1/3 131/1/3
f 150/1/3 132/1/3 149/1/3
f 151/1/3 134/1/3 133/1/3
f 152/1/3 134/1/3 151/1/3
f 153/1/3 136/1/3 135/1/3
f 154/1/3 136/1/3 153/1/3
f 155/1/3 138/1/3 137/1/3
f 156/1/3 138/1/3 155/1/3
f 157/1/3 140/1/3 139/1/3
f 158/1/3 140/1/3 157/1/3
f 159/1/3 142/1/3 141/1/3
f 160/1/3 142/1/3 159/1/3
f 161/1/4 162/1/4 179/1/4
f 179/1/4 162/1/4 180/1/4
f 163/1/4 164/1/4 181/1/4
f 181/1/4 164/1/4 182/1/4
f 165/1/4 166/1/4 183/1/4
f 183/1/4 166/1/4 184/1/4
f 167/1/4 168/1/4 185/1/4
f 185/1/4 168/1/4 186/1/4
f 169/1/4 170/1/4 187/1/4
f 187/1/4 170/1/4 188/1/4
f 171/1/4 172/1/4 189/1/4
f 189/1/4 172/1/4 190/1/4
f 173/1/4 174/1/4 191/1/4
f 191/1/4 174/1/4 192/1/4
f 175/1/4 176/1/4 193/1/4
f 193/1/4 176/1/4 194/1/4
f 177/1/4 178/1/4 195/1/4
f 195/1/4 178/1/4 196/1/4
f 197/2/4 198/2/4 199/2/4
f 199/2/4 198/2/4 200/2/4
f 201/2/4 202/2/4 203/2/4
f 203/2/4 202/2/4 204/2/4
f 205/2/4 206/2/4 207/2/4
f 207/2/4 206/2/4 208/2/4
f 209/2/4 210/2/4 211/2/4
f 211/2/4 210/2/4 212/2/4
f 213/2/4 214/2/4 215/2/4
f 215/2/4 214/2/4 216/2/4
f 217/1/4 218/1/4 219/1/4
f 219/1/4 218/1/4 220/1/4
f 220/1/4 218/1/4 222/1/4
f 221/1/4 222/1/4 223/1/4
f 222/1/4 218/1/4 224/1/4
f 223/1/4 222/1/4 224/1/4
f 224/1/4 218/1/4 226/1/4
f 225/1/4 226/1/4 227/1/4
f 226/1/4 218/1/4 228/1/4
f 227/1/4 226/1/4 228/1/4
f 228/1/4 218/1/4 230/1/4
f 229/1/4 230/1/4 231/1/4
f 230/1/4 218/1/4 232/1/4
f 231/1/4 230/1/4 232/1/4
f 232/1/4 218/1/4 234/1/4
f 233/1/4 234/1/4 235/1/4
f 234/1/4 218/1/4 236/1/4
f 235/1/4 234/1/4 236/1/4
f 236/1/4 218/1/4 238/1/4
f 237/1/4 238/1/4 239/1/4
f 238/1/4 218/1/4 240/1/4
f 239/1/4 238/1/4 240/1/4
f 243/1/5 242/1/5 241/1/5
f 244/1/5 242/1/5 243/1/5
f 245/1/5 243/1/5 241/1/5
f 245/2/5 244/2/5 243/2/5
f 246/2/5 244/2/5 245/2/5
f 247/2/5 244/2/5 246/2/5
f 248/2/5 244/2/5 247/2/5
f 249/2/5 244/2/5 248/2/5
f 250/2/5 244/2/5 249/2/5
f 251/2/5 244/2/5 250/2/5
f 252/2/5 244/2/5 251/2/5
f 253/2/5 244/2/5 252/2/5
f 254/1/5 242/1/5 244/1/5
f 254/2/5 244/2/5 253/2/5
f 255/1/5 245/1/5 241/1/5
f 256/1/5 245/1/5 255/1/5
f 257/1/5 247/1/5 246/1/5
f 258/1/5 247/1/5 257/1/5
f 259/1/5 249/1/5 248/1/5
f 260/1/5 249/1/5 259/1/5
f 261/1/5 251/1/5 250/1/5
f 262/1/5 251/1/5 261/1/5
f 263/1/5 253/1/5 252/1/5
f 264/1/5 253/1/5 263/1/5
f 265/1/5 242/1/5 254/1/5
f 266/1/5 242/1/5 265/1/5
f 269/1/5 268/1/5 267/1/5
f 270/1/5 268/1/5 269/1/5
f 273/1/5 272/1/5 271/1/5
f 274/1/5 272/1/5 273/1/5
f 277/1/5 276/1/5 275/1/5
f 278/1/5 276/1/5 277/1/5
f 281/1/5 280/1/5 279/1/5
f 282/1/5 280/1/5 281/1/5
f 285/1/5 284/1/5 283/1/5
f 286/1/5 284/1/5 285/1/5
f 289/1/5 288/1/5 287/1/5
f 290/1/5 288/1/5 289/1/5
f 293/1/5 292/1/5 291/1/5
f 294/1/5 292/1/5 293/1/5
f 297/1/5 296/1/5 295/1/5
f 298/1/5 296/1/5 297/1/5
f 301/1/5 300/1/5 299/1/5
f 302/1/5 300/1/5 301/1/5
f 313/1/5 304/1/5 303/1/5
f 314/1/5 304/1/5 313/1/5
f 315/1/5 306/1/5 305/1/5
f 316/1/5 306/1/5 315/1/5
f 317/1/5 308/1/5 307/1/5
f 318/1/5 308/1/5 317/1/5
f 319/1/5 310/1/5 309/1/5
f 320/1/5 310/1/5 319/1/5
f 321/1/5 312/1/5 311/1/5
f 322/1/5 312/1/5 321/1/5
f 323/1/6 324/1/6 325/1/6
f 325/1/6 324/1/6 326/1/6
f 327/1/6 328/1/6 329/1/6
f 329/1/6 328/1/6 330/1/6
f 331/1/6 332/1/6 333/1/6
f 333/1/6 332/1/6 334/1/6
f 335/1/6 336/1/6 337/1/6
f 337/1/6 336/1/6 338/1/6
f 339/1/6 340/1/6 341/1/6
f 341/1/6 340/1/6 342/1/6
f 343/1/6 344/1/6 345/1/6
f 345/1/6 344/1/6 346/1/6
f 347/1/6 348/1/6 349/1/6
f 349/1/6 348/1/6 350/1/6
f 351/1/6 352/1/6 353/1/6
f 353/1/6 352/1/6 354/1/6
f 355/1/6 356/1/6 357/1/6
f 357/1/6 356/1/6 358/1/6
f 359/1/6 360/1/6 361/1/6
f 361/1/6 360/1/6 362/1/6
