# MagicaVoxel @ Ephtracy

# group
o 

# material
mtllib SkateHandle.mtl
usemtl palette

# normals
vn -1 0 0
vn 1 0 0
vn 0 0 1
vn 0 0 -1
vn 0 -1 0
vn 0 1 0

# texcoords
vt 0.841797 0.5
vt 0.994141 0.5

# verts
v 0.7 1.6 0.5
v 0.7 1.6 0.4
v 0.7 1.7 0.6
v 0.7 1.7 0.5
v 0.7 1.7 0.4
v 0.7 1.7 0.3
v 0.7 1.8 0.7
v 0.7 1.8 0.6
v 0.7 1.8 0.5
v 0.7 1.8 0.4
v 0.7 1.8 0.3
v 0.7 1.8 0.2
v 0.7 2.1 0.7
v 0.7 2.1 0.6
v 0.7 2.1 0.3
v 0.7 2.1 0.2
v 0.7 2.2 0.7
v 0.7 2.2 0.2
v 0.8 1.6 0.5
v 0.8 1.6 0.4
v 0.8 1.7 0.6
v 0.8 1.7 0.5
v 0.8 1.7 0.4
v 0.8 1.7 0.3
v 0.8 1.8 0.7
v 0.8 1.8 0.6
v 0.8 1.8 0.5
v 0.8 1.8 0.4
v 0.8 1.8 0.3
v 0.8 1.8 0.2
v 0.8 2.1 0.7
v 0.8 2.1 0.6
v 0.8 2.1 0.3
v 0.8 2.1 0.2
v 0.8 2.2 0.7
v 0.8 2.2 0.2
v 0.7 1.8 0.7
v 0.7 2.1 0.7
v 0.7 2.2 0.7
v 0.8 1.8 0.7
v 0.8 2.1 0.7
v 0.8 2.2 0.7
v 0.7 1.7 0.6
v 0.7 1.8 0.6
v 0.8 1.7 0.6
v 0.8 1.8 0.6
v 0.7 1.6 0.5
v 0.7 1.7 0.5
v 0.8 1.6 0.5
v 0.8 1.7 0.5
v 0.7 1.7 0.4
v 0.7 1.8 0.4
v 0.8 1.7 0.4
v 0.8 1.8 0.4
v 0.7 1.8 0.3
v 0.7 2.1 0.3
v 0.8 1.8 0.3
v 0.8 2.1 0.3
v 0.7 1.8 0.6
v 0.7 2.1 0.6
v 0.8 1.8 0.6
v 0.8 2.1 0.6
v 0.7 1.7 0.5
v 0.7 1.8 0.5
v 0.8 1.7 0.5
v 0.8 1.8 0.5
v 0.7 1.6 0.4
v 0.7 1.7 0.4
v 0.8 1.6 0.4
v 0.8 1.7 0.4
v 0.7 1.7 0.3
v 0.7 1.8 0.3
v 0.8 1.7 0.3
v 0.8 1.8 0.3
v 0.7 1.8 0.2
v 0.7 2.1 0.2
v 0.7 2.2 0.2
v 0.8 1.8 0.2
v 0.8 2.1 0.2
v 0.8 2.2 0.2
v 0.7 1.6 0.5
v 0.8 1.6 0.5
v 0.7 1.6 0.4
v 0.8 1.6 0.4
v 0.7 1.7 0.6
v 0.8 1.7 0.6
v 0.7 1.7 0.5
v 0.8 1.7 0.5
v 0.7 1.7 0.4
v 0.8 1.7 0.4
v 0.7 1.7 0.3
v 0.8 1.7 0.3
v 0.7 1.8 0.7
v 0.8 1.8 0.7
v 0.7 1.8 0.6
v 0.8 1.8 0.6
v 0.7 1.8 0.3
v 0.8 1.8 0.3
v 0.7 1.8 0.2
v 0.8 1.8 0.2
v 0.7 2.1 0.6
v 0.8 2.1 0.6
v 0.7 2.1 0.3
v 0.8 2.1 0.3
v 0.7 1.7 0.5
v 0.8 1.7 0.5
v 0.7 1.7 0.4
v 0.8 1.7 0.4
v 0.7 1.8 0.6
v 0.8 1.8 0.6
v 0.7 1.8 0.5
v 0.8 1.8 0.5
v 0.7 1.8 0.4
v 0.8 1.8 0.4
v 0.7 1.8 0.3
v 0.8 1.8 0.3
v 0.7 2.2 0.7
v 0.8 2.2 0.7
v 0.7 2.2 0.2
v 0.8 2.2 0.2

# faces
f 4/2/1 2/2/1 1/2/1
f 5/2/1 2/2/1 4/2/1
f 8/2/1 4/2/1 3/2/1
f 9/2/1 4/2/1 8/2/1
f 10/2/1 6/2/1 5/2/1
f 11/2/1 6/2/1 10/2/1
f 13/2/1 8/2/1 7/2/1
f 14/2/1 8/2/1 13/2/1
f 15/2/1 12/2/1 11/2/1
f 16/2/1 12/2/1 15/2/1
f 17/1/1 14/1/1 13/1/1
f 17/1/1 15/1/1 14/1/1
f 17/1/1 16/1/1 15/1/1
f 18/1/1 16/1/1 17/1/1
f 19/2/2 20/2/2 22/2/2
f 22/2/2 20/2/2 23/2/2
f 21/2/2 22/2/2 26/2/2
f 26/2/2 22/2/2 27/2/2
f 23/2/2 24/2/2 28/2/2
f 28/2/2 24/2/2 29/2/2
f 25/2/2 26/2/2 31/2/2
f 31/2/2 26/2/2 32/2/2
f 29/2/2 30/2/2 33/2/2
f 33/2/2 30/2/2 34/2/2
f 31/1/2 32/1/2 35/1/2
f 32/1/2 33/1/2 35/1/2
f 33/1/2 34/1/2 35/1/2
f 35/1/2 34/1/2 36/1/2
f 40/2/3 38/2/3 37/2/3
f 41/1/3 39/1/3 38/1/3
f 41/2/3 38/2/3 40/2/3
f 42/1/3 39/1/3 41/1/3
f 45/2/3 44/2/3 43/2/3
f 46/2/3 44/2/3 45/2/3
f 49/2/3 48/2/3 47/2/3
f 50/2/3 48/2/3 49/2/3
f 53/2/3 52/2/3 51/2/3
f 54/2/3 52/2/3 53/2/3
f 57/2/3 56/2/3 55/2/3
f 58/2/3 56/2/3 57/2/3
f 59/2/4 60/2/4 61/2/4
f 61/2/4 60/2/4 62/2/4
f 63/2/4 64/2/4 65/2/4
f 65/2/4 64/2/4 66/2/4
f 67/2/4 68/2/4 69/2/4
f 69/2/4 68/2/4 70/2/4
f 71/2/4 72/2/4 73/2/4
f 73/2/4 72/2/4 74/2/4
f 75/2/4 76/2/4 78/2/4
f 76/1/4 77/1/4 79/1/4
f 78/2/4 76/2/4 79/2/4
f 79/1/4 77/1/4 80/1/4
f 83/2/5 82/2/5 81/2/5
f 84/2/5 82/2/5 83/2/5
f 87/2/5 86/2/5 85/2/5
f 88/2/5 86/2/5 87/2/5
f 91/2/5 90/2/5 89/2/5
f 92/2/5 90/2/5 91/2/5
f 95/2/5 94/2/5 93/2/5
f 96/2/5 94/2/5 95/2/5
f 99/2/5 98/2/5 97/2/5
f 100/2/5 98/2/5 99/2/5
f 103/1/5 102/1/5 101/1/5
f 104/1/5 102/1/5 103/1/5
f 105/2/6 106/2/6 107/2/6
f 107/2/6 106/2/6 108/2/6
f 109/2/6 110/2/6 111/2/6
f 111/2/6 110/2/6 112/2/6
f 113/2/6 114/2/6 115/2/6
f 115/2/6 114/2/6 116/2/6
f 117/1/6 118/1/6 119/1/6
f 119/1/6 118/1/6 120/1/6
