# MagicaVoxel @ Ephtracy

# group
o 

# material
mtllib PeageFerme.mtl
usemtl palette

# normals
vn -1 0 0
vn 1 0 0
vn 0 0 1
vn 0 0 -1
vn 0 -1 0
vn 0 1 0

# texcoords
vt 0.841797 0.5
vt 0.865234 0.5
vt 0.958984 0.5
vt 0.994141 0.5

# verts
v -2.9 0.6 0.1
v -2.9 0.6 -0.8
v -2.9 3.3 0.1
v -2.9 3.3 -0.8
v -2.8 0.4 0.1
v -2.8 0.4 -0.8
v -2.8 0.6 0.1
v -2.8 0.6 -0.8
v -2.8 0.8 0.2
v -2.8 0.8 0.1
v -2.8 0.8 -0.8
v -2.8 0.8 -0.9
v -2.8 3.3 0.2
v -2.8 3.3 0.1
v -2.8 3.3 -0.8
v -2.8 3.3 -0.9
v -2.7 0 0.2
v -2.7 0 -0.9
v -2.7 0.4 0.3
v -2.7 0.4 0.2
v -2.7 0.4 0.1
v -2.7 0.4 -0.8
v -2.7 0.4 -0.9
v -2.7 0.4 -1
v -2.7 0.8 0.2
v -2.7 0.8 0.1
v -2.7 0.8 -0.8
v -2.7 0.8 -0.9
v -2.7 3.3 0.3
v -2.7 3.3 0.2
v -2.7 3.3 -0.9
v -2.7 3.3 -1
v -2.6 2.4 0.7
v -2.6 2.4 0.3
v -2.6 2.9 0.9
v -2.6 2.9 0.7
v -2.6 3 0.9
v -2.6 3 0.3
v -2.1 2.6 -0.3
v -2.1 2.6 -0.4
v -2.1 2.6 -0.5
v -2.1 2.6 -0.6
v -2.1 2.7 -0.3
v -2.1 2.7 -0.4
v -2.1 2.7 -0.5
v -2.1 2.7 -0.6
v -2.1 3.1 -0.3
v -2.1 3.1 -0.6
v -1.8 3.1 -0.3
v -1.8 3.1 -0.6
v -1.8 3.2 -0.3
v -1.8 3.2 -0.6
v -1.8 3.3 -0.3
v -1.8 3.3 -0.6
v -2.3 0.8 -0.3
v -2.3 0.8 -0.6
v -2.3 3.3 -0.3
v -2.3 3.3 -0.6
v -2 2.4 0.7
v -2 2.4 0.3
v -2 2.9 0.9
v -2 2.9 0.7
v -2 3 0.9
v -2 3 0.3
v -1.8 0 0.2
v -1.8 0 -0.9
v -1.8 0.4 0.3
v -1.8 0.4 0.2
v -1.8 0.4 -0.9
v -1.8 0.4 -1
v -1.8 0.8 -0.3
v -1.8 0.8 -0.6
v -1.8 2.6 -0.3
v -1.8 2.6 -0.4
v -1.8 2.6 -0.5
v -1.8 2.6 -0.6
v -1.8 2.7 -0.4
v -1.8 2.7 -0.5
v -1.8 2.8 -0.3
v -1.8 2.8 -0.5
v -1.8 2.8 -0.6
v -1.8 2.9 -0.3
v -1.8 3.2 -0.3
v -1.8 3.2 -0.6
v -1.8 3.3 0.3
v -1.8 3.3 -0.3
v -1.8 3.3 -0.6
v -1.8 3.3 -1
v 3 2.8 -0.3
v 3 2.8 -0.4
v 3 2.8 -0.6
v 3 2.9 -0.3
v 3 2.9 -0.4
v 3 2.9 -0.6
v 3 3.3 -0.3
v 3 3.3 -0.6
v -2.6 2.9 0.9
v -2.6 3 0.9
v -2 2.9 0.9
v -2 3 0.9
v -2.6 2.4 0.7
v -2.6 2.9 0.7
v -2.5 2.5 0.7
v -2.5 2.9 0.7
v -2.1 2.5 0.7
v -2.1 2.9 0.7
v -2 2.4 0.7
v -2 2.9 0.7
v -2.7 0.4 0.3
v -2.7 3.3 0.3
v -2.6 2.4 0.3
v -2.6 3 0.3
v -2 2.4 0.3
v -2 3 0.3
v -1.8 0.4 0.3
v -1.8 3.3 0.3
v -2.8 0.8 0.2
v -2.8 3.3 0.2
v -2.7 0 0.2
v -2.7 0.4 0.2
v -2.7 0.8 0.2
v -2.7 3.3 0.2
v -1.8 0 0.2
v -1.8 0.4 0.2
v -2.9 0.6 0.1
v -2.9 3.3 0.1
v -2.8 0.4 0.1
v -2.8 0.6 0.1
v -2.8 0.8 0.1
v -2.8 3.3 0.1
v -2.7 0.4 0.1
v -2.7 0.8 0.1
v -1.8 2.8 -0.3
v -1.8 2.9 -0.3
v -1.8 3.2 -0.3
v -1.8 3.3 -0.3
v -1.7 3.2 -0.3
v -1.7 3.3 -0.3
v -1.5 2.9 -0.3
v -1.5 3 -0.3
v -1.4 3 -0.3
v -1.4 3.1 -0.3
v -1.3 3.1 -0.3
v -1.3 3.2 -0.3
v -1.2 3.2 -0.3
v -1.2 3.3 -0.3
v -0.7 2.9 -0.3
v -0.7 3 -0.3
v -0.6 3 -0.3
v -0.6 3.1 -0.3
v -0.5 3.1 -0.3
v -0.5 3.2 -0.3
v -0.4 3.2 -0.3
v -0.4 3.3 -0.3
v -0.2 2.9 -0.3
v -0.2 3 -0.3
v -0.0999999 3 -0.3
v -0.0999999 3.1 -0.3
v 0 3.1 -0.3
v 0 3.2 -0.3
v 0.1 3.2 -0.3
v 0.1 3.3 -0.3
v 0.6 2.9 -0.3
v 0.6 3 -0.3
v 0.7 3 -0.3
v 0.7 3.1 -0.3
v 0.8 3.1 -0.3
v 0.8 3.2 -0.3
v 0.9 3.2 -0.3
v 0.9 3.3 -0.3
v 1.1 2.9 -0.3
v 1.1 3 -0.3
v 1.2 3 -0.3
v 1.2 3.1 -0.3
v 1.3 3.1 -0.3
v 1.3 3.2 -0.3
v 1.4 3.2 -0.3
v 1.4 3.3 -0.3
v 1.9 2.9 -0.3
v 1.9 3 -0.3
v 2 3 -0.3
v 2 3.1 -0.3
v 2.1 3.1 -0.3
v 2.1 3.2 -0.3
v 2.2 3.2 -0.3
v 2.2 3.3 -0.3
v 2.4 2.9 -0.3
v 2.4 3 -0.3
v 2.5 3 -0.3
v 2.5 3.1 -0.3
v 2.6 3.1 -0.3
v 2.6 3.2 -0.3
v 2.7 3.2 -0.3
v 2.7 3.3 -0.3
v 3 2.8 -0.3
v 3 2.9 -0.3
v 3 3.3 -0.3
v -2.3 0.8 -0.6
v -2.3 3.3 -0.6
v -2.1 2.6 -0.6
v -2.1 2.7 -0.6
v -2.1 3.1 -0.6
v -1.8 0.8 -0.6
v -1.8 2.6 -0.6
v -1.8 3.1 -0.6
v -1.8 3.2 -0.6
v -1.8 3.3 -0.6
v -2.3 0.8 -0.3
v -2.3 3.3 -0.3
v -2.1 2.6 -0.3
v -2.1 2.7 -0.3
v -2.1 3.1 -0.3
v -1.8 0.8 -0.3
v -1.8 2.6 -0.3
v -1.8 3.1 -0.3
v -1.8 3.2 -0.3
v -1.8 3.3 -0.3
v -1.8 2.8 -0.6
v -1.8 3.2 -0.6
v -1.8 3.3 -0.6
v -1.7 3.2 -0.6
v -1.7 3.3 -0.6
v -1.6 2.8 -0.6
v -1.6 2.9 -0.6
v -1.5 2.9 -0.6
v -1.5 3 -0.6
v -1.4 3 -0.6
v -1.4 3.1 -0.6
v -1.3 3.1 -0.6
v -1.3 3.2 -0.6
v -1.2 3.2 -0.6
v -1.2 3.3 -0.6
v -0.8 2.8 -0.6
v -0.8 2.9 -0.6
v -0.7 2.9 -0.6
v -0.7 3 -0.6
v -0.6 3 -0.6
v -0.6 3.1 -0.6
v -0.5 3.1 -0.6
v -0.5 3.2 -0.6
v -0.4 3.2 -0.6
v -0.4 3.3 -0.6
v -0.3 2.8 -0.6
v -0.3 2.9 -0.6
v -0.2 2.9 -0.6
v -0.2 3 -0.6
v -0.0999999 3 -0.6
v -0.0999999 3.1 -0.6
v 0 3.1 -0.6
v 0 3.2 -0.6
v 0.1 3.2 -0.6
v 0.1 3.3 -0.6
v 0.5 2.8 -0.6
v 0.5 2.9 -0.6
v 0.6 2.9 -0.6
v 0.6 3 -0.6
v 0.7 3 -0.6
v 0.7 3.1 -0.6
v 0.8 3.1 -0.6
v 0.8 3.2 -0.6
v 0.9 3.2 -0.6
v 0.9 3.3 -0.6
v 1 2.8 -0.6
v 1 2.9 -0.6
v 1.1 2.9 -0.6
v 1.1 3 -0.6
v 1.2 3 -0.6
v 1.2 3.1 -0.6
v 1.3 3.1 -0.6
v 1.3 3.2 -0.6
v 1.4 3.2 -0.6
v 1.4 3.3 -0.6
v 1.8 2.8 -0.6
v 1.8 2.9 -0.6
v 1.9 2.9 -0.6
v 1.9 3 -0.6
v 2 3 -0.6
v 2 3.1 -0.6
v 2.1 3.1 -0.6
v 2.1 3.2 -0.6
v 2.2 3.2 -0.6
v 2.2 3.3 -0.6
v 2.3 2.8 -0.6
v 2.3 2.9 -0.6
v 2.4 2.9 -0.6
v 2.4 3 -0.6
v 2.5 3 -0.6
v 2.5 3.1 -0.6
v 2.6 3.1 -0.6
v 2.6 3.2 -0.6
v 2.7 3.2 -0.6
v 2.7 3.3 -0.6
v 2.9 2.8 -0.6
v 2.9 2.9 -0.6
v 3 2.8 -0.6
v 3 2.9 -0.6
v 3 3.3 -0.6
v -2.9 0.6 -0.8
v -2.9 3.3 -0.8
v -2.8 0.4 -0.8
v -2.8 0.6 -0.8
v -2.8 0.8 -0.8
v -2.8 3.3 -0.8
v -2.7 0.4 -0.8
v -2.7 0.8 -0.8
v -2.8 0.8 -0.9
v -2.8 3.3 -0.9
v -2.7 0 -0.9
v -2.7 0.4 -0.9
v -2.7 0.8 -0.9
v -2.7 3.3 -0.9
v -1.8 0 -0.9
v -1.8 0.4 -0.9
v -2.7 0.4 -1
v -2.7 3.3 -1
v -1.8 0.4 -1
v -1.8 3.3 -1
v -2.7 0 0.2
v -1.8 0 0.2
v -2.7 0 -0.9
v -1.8 0 -0.9
v -2.7 0.4 0.3
v -1.8 0.4 0.3
v -2.7 0.4 0.2
v -1.8 0.4 0.2
v -2.8 0.4 0.1
v -2.7 0.4 0.1
v -2.8 0.4 -0.8
v -2.7 0.4 -0.8
v -2.7 0.4 -0.9
v -1.8 0.4 -0.9
v -2.7 0.4 -1
v -1.8 0.4 -1
v -2.9 0.6 0.1
v -2.8 0.6 0.1
v -2.9 0.6 -0.8
v -2.8 0.6 -0.8
v -2.8 0.8 0.2
v -2.7 0.8 0.2
v -2.8 0.8 0.1
v -2.7 0.8 0.1
v -2.8 0.8 -0.8
v -2.7 0.8 -0.8
v -2.8 0.8 -0.9
v -2.7 0.8 -0.9
v -2.6 2.4 0.7
v -2 2.4 0.7
v -2.6 2.4 0.3
v -2 2.4 0.3
v -2.1 2.6 -0.3
v -1.8 2.6 -0.3
v -2.1 2.6 -0.4
v -1.8 2.6 -0.4
v -2.1 2.6 -0.5
v -1.8 2.6 -0.5
v -2.1 2.6 -0.6
v -1.8 2.6 -0.6
v -1.8 2.8 -0.3
v 3 2.8 -0.3
v 2.9 2.8 -0.4
v 3 2.8 -0.4
v -1.8 2.8 -0.5
v -1.6 2.8 -0.5
v -0.8 2.8 -0.5
v -0.3 2.8 -0.5
v 0.5 2.8 -0.5
v 1 2.8 -0.5
v 1.8 2.8 -0.5
v 2.3 2.8 -0.5
v 2.9 2.8 -0.5
v -1.8 2.8 -0.6
v -1.6 2.8 -0.6
v -0.8 2.8 -0.6
v -0.3 2.8 -0.6
v 0.5 2.8 -0.6
v 1 2.8 -0.6
v 1.8 2.8 -0.6
v 2.3 2.8 -0.6
v 2.9 2.8 -0.6
v 3 2.8 -0.6
v -2.6 2.9 0.9
v -2 2.9 0.9
v -2.6 2.9 0.7
v -2.5 2.9 0.7
v -2.1 2.9 0.7
v -2 2.9 0.7
v -2.3 0.8 -0.3
v -1.8 0.8 -0.3
v -2.3 0.8 -0.6
v -1.8 0.8 -0.6
v -2.6 3 0.9
v -2 3 0.9
v -2.6 3 0.3
v -2 3 0.3
v -2.1 3.1 -0.3
v -1.8 3.1 -0.3
v -2.1 3.1 -0.6
v -1.8 3.1 -0.6
v -2.7 3.3 0.3
v -1.8 3.3 0.3
v -2.8 3.3 0.2
v -2.7 3.3 0.2
v -2.9 3.3 0.1
v -2.8 3.3 0.1
v -2.3 3.3 -0.3
v -1.8 3.3 -0.3
v -1.7 3.3 -0.3
v -1.2 3.3 -0.3
v -0.4 3.3 -0.3
v 0.1 3.3 -0.3
v 0.9 3.3 -0.3
v 1.4 3.3 -0.3
v 2.2 3.3 -0.3
v 2.7 3.3 -0.3
v 3 3.3 -0.3
v -2.3 3.3 -0.6
v -1.8 3.3 -0.6
v -1.7 3.3 -0.6
v -1.2 3.3 -0.6
v -0.4 3.3 -0.6
v 0.1 3.3 -0.6
v 0.9 3.3 -0.6
v 1.4 3.3 -0.6
v 2.2 3.3 -0.6
v 2.7 3.3 -0.6
v 3 3.3 -0.6
v -2.9 3.3 -0.8
v -2.8 3.3 -0.8
v -2.8 3.3 -0.9
v -2.7 3.3 -0.9
v -2.7 3.3 -1
v -1.8 3.3 -1

# faces
f 3/4/1 2/4/1 1/4/1
f 4/4/1 2/4/1 3/4/1
f 7/4/1 6/4/1 5/4/1
f 8/4/1 6/4/1 7/4/1
f 13/4/1 10/4/1 9/4/1
f 14/4/1 10/4/1 13/4/1
f 15/4/1 12/4/1 11/4/1
f 16/4/1 12/4/1 15/4/1
f 20/4/1 18/4/1 17/4/1
f 21/4/1 18/4/1 20/4/1
f 22/4/1 18/4/1 21/4/1
f 23/4/1 18/4/1 22/4/1
f 25/4/1 20/4/1 19/4/1
f 25/4/1 21/4/1 20/4/1
f 26/4/1 21/4/1 25/4/1
f 27/4/1 24/4/1 23/4/1
f 27/4/1 23/4/1 22/4/1
f 28/4/1 24/4/1 27/4/1
f 29/4/1 25/4/1 19/4/1
f 30/4/1 25/4/1 29/4/1
f 31/4/1 24/4/1 28/4/1
f 32/4/1 24/4/1 31/4/1
f 36/4/1 34/4/1 33/4/1
f 37/4/1 36/4/1 35/4/1
f 38/4/1 34/4/1 36/4/1
f 38/4/1 36/4/1 37/4/1
f 43/2/1 40/2/1 39/2/1
f 44/1/1 41/1/1 40/1/1
f 44/2/1 40/2/1 43/2/1
f 45/2/1 42/2/1 41/2/1
f 45/1/1 41/1/1 44/1/1
f 46/2/1 42/2/1 45/2/1
f 47/3/1 44/3/1 43/3/1
f 47/3/1 45/3/1 44/3/1
f 47/3/1 46/3/1 45/3/1
f 48/3/1 46/3/1 47/3/1
f 51/2/1 50/2/1 49/2/1
f 52/2/1 50/2/1 51/2/1
f 53/3/1 52/3/1 51/3/1
f 54/3/1 52/3/1 53/3/1
f 55/4/2 56/4/2 57/4/2
f 57/4/2 56/4/2 58/4/2
f 59/4/2 60/4/2 62/4/2
f 61/4/2 62/4/2 63/4/2
f 62/4/2 60/4/2 64/4/2
f 63/4/2 62/4/2 64/4/2
f 65/4/2 66/4/2 68/4/2
f 68/4/2 66/4/2 69/4/2
f 67/4/2 68/4/2 71/4/2
f 69/4/2 70/4/2 71/4/2
f 68/4/2 69/4/2 71/4/2
f 71/4/2 70/4/2 72/4/2
f 67/4/2 71/4/2 73/4/2
f 72/4/2 70/4/2 76/4/2
f 74/1/2 75/1/2 77/1/2
f 73/2/2 74/2/2 77/2/2
f 75/2/2 76/2/2 78/2/2
f 77/1/2 75/1/2 78/1/2
f 73/2/2 77/2/2 79/2/2
f 67/4/2 73/4/2 79/4/2
f 77/2/2 78/2/2 79/2/2
f 78/2/2 76/2/2 80/2/2
f 79/2/2 78/2/2 80/2/2
f 76/4/2 70/4/2 81/4/2
f 80/2/2 76/2/2 81/2/2
f 67/4/2 79/4/2 82/4/2
f 67/4/2 82/4/2 83/4/2
f 81/4/2 70/4/2 84/4/2
f 67/4/2 83/4/2 85/4/2
f 85/4/2 83/4/2 86/4/2
f 84/4/2 70/4/2 87/4/2
f 87/4/2 70/4/2 88/4/2
f 89/1/2 90/1/2 92/1/2
f 90/2/2 91/2/2 93/2/2
f 92/1/2 90/1/2 93/1/2
f 93/2/2 91/2/2 94/2/2
f 92/3/2 93/3/2 95/3/2
f 93/3/2 94/3/2 95/3/2
f 95/3/2 94/3/2 96/3/2
f 99/4/3 98/4/3 97/4/3
f 100/4/3 98/4/3 99/4/3
f 103/4/3 102/4/3 101/4/3
f 104/4/3 102/4/3 103/4/3
f 105/4/3 103/4/3 101/4/3
f 105/1/3 104/1/3 103/1/3
f 106/1/3 104/1/3 105/1/3
f 107/4/3 105/4/3 101/4/3
f 107/4/3 106/4/3 105/4/3
f 108/4/3 106/4/3 107/4/3
f 111/4/3 110/4/3 109/4/3
f 112/4/3 110/4/3 111/4/3
f 113/4/3 111/4/3 109/4/3
f 114/4/3 110/4/3 112/4/3
f 115/4/3 113/4/3 109/4/3
f 115/4/3 114/4/3 113/4/3
f 116/4/3 110/4/3 114/4/3
f 116/4/3 114/4/3 115/4/3
f 121/4/3 118/4/3 117/4/3
f 122/4/3 118/4/3 121/4/3
f 123/4/3 120/4/3 119/4/3
f 124/4/3 120/4/3 123/4/3
f 128/4/3 126/4/3 125/4/3
f 129/4/3 126/4/3 128/4/3
f 130/4/3 126/4/3 129/4/3
f 131/4/3 128/4/3 127/4/3
f 131/4/3 129/4/3 128/4/3
f 132/4/3 129/4/3 131/4/3
f 137/2/3 135/2/3 134/2/3
f 137/3/3 136/3/3 135/3/3
f 138/3/3 136/3/3 137/3/3
f 139/1/3 134/1/3 133/1/3
f 139/2/3 137/2/3 134/2/3
f 139/2/3 138/2/3 137/2/3
f 140/2/3 138/2/3 139/2/3
f 141/3/3 140/3/3 139/3/3
f 141/2/3 138/2/3 140/2/3
f 142/2/3 138/2/3 141/2/3
f 143/3/3 142/3/3 141/3/3
f 143/2/3 138/2/3 142/2/3
f 144/2/3 138/2/3 143/2/3
f 145/3/3 144/3/3 143/3/3
f 145/2/3 138/2/3 144/2/3
f 146/2/3 138/2/3 145/2/3
f 147/1/3 139/1/3 133/1/3
f 147/3/3 141/3/3 139/3/3
f 147/3/3 146/3/3 145/3/3
f 147/3/3 145/3/3 143/3/3
f 147/3/3 143/3/3 141/3/3
f 148/3/3 146/3/3 147/3/3
f 149/2/3 148/2/3 147/2/3
f 149/3/3 146/3/3 148/3/3
f 150/3/3 146/3/3 149/3/3
f 151/2/3 150/2/3 149/2/3
f 151/3/3 146/3/3 150/3/3
f 152/3/3 146/3/3 151/3/3
f 153/2/3 152/2/3 151/2/3
f 153/3/3 146/3/3 152/3/3
f 154/3/3 146/3/3 153/3/3
f 155/1/3 147/1/3 133/1/3
f 155/2/3 149/2/3 147/2/3
f 155/2/3 154/2/3 153/2/3
f 155/2/3 153/2/3 151/2/3
f 155/2/3 151/2/3 149/2/3
f 156/2/3 154/2/3 155/2/3
f 157/3/3 156/3/3 155/3/3
f 157/2/3 154/2/3 156/2/3
f 158/2/3 154/2/3 157/2/3
f 159/3/3 158/3/3 157/3/3
f 159/2/3 154/2/3 158/2/3
f 160/2/3 154/2/3 159/2/3
f 161/3/3 160/3/3 159/3/3
f 161/2/3 154/2/3 160/2/3
f 162/2/3 154/2/3 161/2/3
f 163/1/3 155/1/3 133/1/3
f 163/3/3 157/3/3 155/3/3
f 163/3/3 162/3/3 161/3/3
f 163/3/3 161/3/3 159/3/3
f 163/3/3 159/3/3 157/3/3
f 164/3/3 162/3/3 163/3/3
f 165/2/3 164/2/3 163/2/3
f 165/3/3 162/3/3 164/3/3
f 166/3/3 162/3/3 165/3/3
f 167/2/3 166/2/3 165/2/3
f 167/3/3 162/3/3 166/3/3
f 168/3/3 162/3/3 167/3/3
f 169/2/3 168/2/3 167/2/3
f 169/3/3 162/3/3 168/3/3
f 170/3/3 162/3/3 169/3/3
f 171/1/3 163/1/3 133/1/3
f 171/2/3 165/2/3 163/2/3
f 171/2/3 170/2/3 169/2/3
f 171/2/3 169/2/3 167/2/3
f 171/2/3 167/2/3 165/2/3
f 172/2/3 170/2/3 171/2/3
f 173/3/3 172/3/3 171/3/3
f 173/2/3 170/2/3 172/2/3
f 174/2/3 170/2/3 173/2/3
f 175/3/3 174/3/3 173/3/3
f 175/2/3 170/2/3 174/2/3
f 176/2/3 170/2/3 175/2/3
f 177/3/3 176/3/3 175/3/3
f 177/2/3 170/2/3 176/2/3
f 178/2/3 170/2/3 177/2/3
f 179/1/3 171/1/3 133/1/3
f 179/3/3 173/3/3 171/3/3
f 179/3/3 178/3/3 177/3/3
f 179/3/3 177/3/3 175/3/3
f 179/3/3 175/3/3 173/3/3
f 180/3/3 178/3/3 179/3/3
f 181/2/3 180/2/3 179/2/3
f 181/3/3 178/3/3 180/3/3
f 182/3/3 178/3/3 181/3/3
f 183/2/3 182/2/3 181/2/3
f 183/3/3 178/3/3 182/3/3
f 184/3/3 178/3/3 183/3/3
f 185/2/3 184/2/3 183/2/3
f 185/3/3 178/3/3 184/3/3
f 186/3/3 178/3/3 185/3/3
f 187/1/3 179/1/3 133/1/3
f 187/2/3 181/2/3 179/2/3
f 187/2/3 186/2/3 185/2/3
f 187/2/3 185/2/3 183/2/3
f 187/2/3 183/2/3 181/2/3
f 188/2/3 186/2/3 187/2/3
f 189/3/3 188/3/3 187/3/3
f 189/2/3 186/2/3 188/2/3
f 190/2/3 186/2/3 189/2/3
f 191/3/3 190/3/3 189/3/3
f 191/2/3 186/2/3 190/2/3
f 192/2/3 186/2/3 191/2/3
f 193/3/3 192/3/3 191/3/3
f 193/2/3 186/2/3 192/2/3
f 194/2/3 186/2/3 193/2/3
f 195/1/3 187/1/3 133/1/3
f 196/3/3 189/3/3 187/3/3
f 196/1/3 187/1/3 195/1/3
f 196/3/3 191/3/3 189/3/3
f 196/3/3 194/3/3 193/3/3
f 196/3/3 193/3/3 191/3/3
f 197/3/3 194/3/3 196/3/3
f 200/4/3 199/4/3 198/4/3
f 201/4/3 199/4/3 200/4/3
f 202/4/3 199/4/3 201/4/3
f 203/4/3 200/4/3 198/4/3
f 204/4/3 200/4/3 203/4/3
f 205/4/3 199/4/3 202/4/3
f 206/4/3 199/4/3 205/4/3
f 207/4/3 199/4/3 206/4/3
f 208/4/4 209/4/4 210/4/4
f 210/4/4 209/4/4 211/4/4
f 211/4/4 209/4/4 212/4/4
f 208/4/4 210/4/4 213/4/4
f 213/4/4 210/4/4 214/4/4
f 212/4/4 209/4/4 215/4/4
f 215/4/4 209/4/4 216/4/4
f 216/4/4 209/4/4 217/4/4
f 218/2/4 219/2/4 221/2/4
f 219/3/4 220/3/4 221/3/4
f 221/3/4 220/3/4 222/3/4
f 218/2/4 221/2/4 223/2/4
f 221/2/4 222/2/4 223/2/4
f 223/2/4 222/2/4 224/2/4
f 223/3/4 224/3/4 225/3/4
f 224/2/4 222/2/4 225/2/4
f 225/2/4 222/2/4 226/2/4
f 225/3/4 226/3/4 227/3/4
f 226/2/4 222/2/4 227/2/4
f 227/2/4 222/2/4 228/2/4
f 227/3/4 228/3/4 229/3/4
f 228/2/4 222/2/4 229/2/4
f 229/2/4 222/2/4 230/2/4
f 229/3/4 230/3/4 231/3/4
f 230/2/4 222/2/4 231/2/4
f 231/2/4 222/2/4 232/2/4
f 223/3/4 225/3/4 233/3/4
f 225/3/4 227/3/4 233/3/4
f 231/3/4 232/3/4 233/3/4
f 229/3/4 231/3/4 233/3/4
f 227/3/4 229/3/4 233/3/4
f 233/3/4 232/3/4 234/3/4
f 233/2/4 234/2/4 235/2/4
f 234/3/4 232/3/4 235/3/4
f 235/3/4 232/3/4 236/3/4
f 235/2/4 236/2/4 237/2/4
f 236/3/4 232/3/4 237/3/4
f 237/3/4 232/3/4 238/3/4
f 237/2/4 238/2/4 239/2/4
f 238/3/4 232/3/4 239/3/4
f 239/3/4 232/3/4 240/3/4
f 239/2/4 240/2/4 241/2/4
f 240/3/4 232/3/4 241/3/4
f 241/3/4 232/3/4 242/3/4
f 233/2/4 235/2/4 243/2/4
f 235/2/4 237/2/4 243/2/4
f 241/2/4 242/2/4 243/2/4
f 239/2/4 241/2/4 243/2/4
f 237/2/4 239/2/4 243/2/4
f 243/2/4 242/2/4 244/2/4
f 243/3/4 244/3/4 245/3/4
f 244/2/4 242/2/4 245/2/4
f 245/2/4 242/2/4 246/2/4
f 245/3/4 246/3/4 247/3/4
f 246/2/4 242/2/4 247/2/4
f 247/2/4 242/2/4 248/2/4
f 247/3/4 248/3/4 249/3/4
f 248/2/4 242/2/4 249/2/4
f 249/2/4 242/2/4 250/2/4
f 249/3/4 250/3/4 251/3/4
f 250/2/4 242/2/4 251/2/4
f 251/2/4 242/2/4 252/2/4
f 243/3/4 245/3/4 253/3/4
f 245/3/4 247/3/4 253/3/4
f 251/3/4 252/3/4 253/3/4
f 249/3/4 251/3/4 253/3/4
f 247/3/4 249/3/4 253/3/4
f 253/3/4 252/3/4 254/3/4
f 253/2/4 254/2/4 255/2/4
f 254/3/4 252/3/4 255/3/4
f 255/3/4 252/3/4 256/3/4
f 255/2/4 256/2/4 257/2/4
f 256/3/4 252/3/4 257/3/4
f 257/3/4 252/3/4 258/3/4
f 257/2/4 258/2/4 259/2/4
f 258/3/4 252/3/4 259/3/4
f 259/3/4 252/3/4 260/3/4
f 259/2/4 260/2/4 261/2/4
f 260/3/4 252/3/4 261/3/4
f 261/3/4 252/3/4 262/3/4
f 253/2/4 255/2/4 263/2/4
f 255/2/4 257/2/4 263/2/4
f 261/2/4 262/2/4 263/2/4
f 259/2/4 261/2/4 263/2/4
f 257/2/4 259/2/4 263/2/4
f 263/2/4 262/2/4 264/2/4
f 263/3/4 264/3/4 265/3/4
f 264/2/4 262/2/4 265/2/4
f 265/2/4 262/2/4 266/2/4
f 265/3/4 266/3/4 267/3/4
f 266/2/4 262/2/4 267/2/4
f 267/2/4 262/2/4 268/2/4
f 267/3/4 268/3/4 269/3/4
f 268/2/4 262/2/4 269/2/4
f 269/2/4 262/2/4 270/2/4
f 269/3/4 270/3/4 271/3/4
f 270/2/4 262/2/4 271/2/4
f 271/2/4 262/2/4 272/2/4
f 263/3/4 265/3/4 273/3/4
f 265/3/4 267/3/4 273/3/4
f 271/3/4 272/3/4 273/3/4
f 269/3/4 271/3/4 273/3/4
f 267/3/4 269/3/4 273/3/4
f 273/3/4 272/3/4 274/3/4
f 273/2/4 274/2/4 275/2/4
f 274/3/4 272/3/4 275/3/4
f 275/3/4 272/3/4 276/3/4
f 275/2/4 276/2/4 277/2/4
f 276/3/4 272/3/4 277/3/4
f 277/3/4 272/3/4 278/3/4
f 277/2/4 278/2/4 279/2/4
f 278/3/4 272/3/4 279/3/4
f 279/3/4 272/3/4 280/3/4
f 279/2/4 280/2/4 281/2/4
f 280/3/4 272/3/4 281/3/4
f 281/3/4 272/3/4 282/3/4
f 273/2/4 275/2/4 283/2/4
f 275/2/4 277/2/4 283/2/4
f 281/2/4 282/2/4 283/2/4
f 279/2/4 281/2/4 283/2/4
f 277/2/4 279/2/4 283/2/4
f 283/2/4 282/2/4 284/2/4
f 283/3/4 284/3/4 285/3/4
f 284/2/4 282/2/4 285/2/4
f 285/2/4 282/2/4 286/2/4
f 285/3/4 286/3/4 287/3/4
f 286/2/4 282/2/4 287/2/4
f 287/2/4 282/2/4 288/2/4
f 287/3/4 288/3/4 289/3/4
f 288/2/4 282/2/4 289/2/4
f 289/2/4 282/2/4 290/2/4
f 289/3/4 290/3/4 291/3/4
f 290/2/4 282/2/4 291/2/4
f 291/2/4 282/2/4 292/2/4
f 283/3/4 285/3/4 293/3/4
f 285/3/4 287/3/4 293/3/4
f 291/3/4 292/3/4 293/3/4
f 289/3/4 291/3/4 293/3/4
f 287/3/4 289/3/4 293/3/4
f 293/3/4 292/3/4 294/3/4
f 293/2/4 294/2/4 295/2/4
f 294/3/4 292/3/4 296/3/4
f 295/2/4 294/2/4 296/2/4
f 296/3/4 292/3/4 297/3/4
f 298/4/4 299/4/4 301/4/4
f 301/4/4 299/4/4 302/4/4
f 302/4/4 299/4/4 303/4/4
f 300/4/4 301/4/4 304/4/4
f 301/4/4 302/4/4 304/4/4
f 304/4/4 302/4/4 305/4/4
f 306/4/4 307/4/4 310/4/4
f 310/4/4 307/4/4 311/4/4
f 308/4/4 309/4/4 312/4/4
f 312/4/4 309/4/4 313/4/4
f 314/4/4 315/4/4 316/4/4
f 316/4/4 315/4/4 317/4/4
f 320/4/5 319/4/5 318/4/5
f 321/4/5 319/4/5 320/4/5
f 324/4/5 323/4/5 322/4/5
f 325/4/5 323/4/5 324/4/5
f 328/4/5 327/4/5 326/4/5
f 329/4/5 327/4/5 328/4/5
f 332/4/5 331/4/5 330/4/5
f 333/4/5 331/4/5 332/4/5
f 336/4/5 335/4/5 334/4/5
f 337/4/5 335/4/5 336/4/5
f 340/4/5 339/4/5 338/4/5
f 341/4/5 339/4/5 340/4/5
f 344/4/5 343/4/5 342/4/5
f 345/4/5 343/4/5 344/4/5
f 348/4/5 347/4/5 346/4/5
f 349/4/5 347/4/5 348/4/5
f 352/2/5 351/2/5 350/2/5
f 353/2/5 351/2/5 352/2/5
f 354/1/5 353/1/5 352/1/5
f 355/1/5 353/1/5 354/1/5
f 356/2/5 355/2/5 354/2/5
f 357/2/5 355/2/5 356/2/5
f 360/1/5 359/1/5 358/1/5
f 361/1/5 359/1/5 360/1/5
f 362/1/5 360/1/5 358/1/5
f 363/1/5 360/1/5 362/1/5
f 364/1/5 360/1/5 363/1/5
f 365/1/5 360/1/5 364/1/5
f 366/1/5 360/1/5 365/1/5
f 367/1/5 360/1/5 366/1/5
f 368/1/5 360/1/5 367/1/5
f 369/1/5 360/1/5 368/1/5
f 370/2/5 361/2/5 360/2/5
f 370/1/5 360/1/5 369/1/5
f 371/2/5 363/2/5 362/2/5
f 372/3/5 364/3/5 363/3/5
f 372/2/5 363/2/5 371/2/5
f 373/2/5 365/2/5 364/2/5
f 373/3/5 364/3/5 372/3/5
f 374/3/5 366/3/5 365/3/5
f 374/2/5 365/2/5 373/2/5
f 375/2/5 367/2/5 366/2/5
f 375/3/5 366/3/5 374/3/5
f 376/3/5 368/3/5 367/3/5
f 376/2/5 367/2/5 375/2/5
f 377/2/5 369/2/5 368/2/5
f 377/3/5 368/3/5 376/3/5
f 378/3/5 370/3/5 369/3/5
f 378/2/5 369/2/5 377/2/5
f 379/2/5 361/2/5 370/2/5
f 379/3/5 370/3/5 378/3/5
f 380/2/5 361/2/5 379/2/5
f 383/4/5 382/4/5 381/4/5
f 384/4/5 382/4/5 383/4/5
f 385/4/5 382/4/5 384/4/5
f 386/4/5 382/4/5 385/4/5
f 387/4/6 388/4/6 389/4/6
f 389/4/6 388/4/6 390/4/6
f 391/4/6 392/4/6 393/4/6
f 393/4/6 392/4/6 394/4/6
f 395/3/6 396/3/6 397/3/6
f 397/3/6 396/3/6 398/3/6
f 399/4/6 400/4/6 402/4/6
f 401/4/6 402/4/6 404/4/6
f 402/4/6 400/4/6 405/4/6
f 403/4/6 404/4/6 405/4/6
f 404/4/6 402/4/6 405/4/6
f 405/4/6 400/4/6 406/4/6
f 403/4/6 405/4/6 416/4/6
f 406/3/6 407/3/6 417/3/6
f 407/2/6 408/2/6 418/2/6
f 417/3/6 407/3/6 418/3/6
f 408/3/6 409/3/6 419/3/6
f 418/2/6 408/2/6 419/2/6
f 409/2/6 410/2/6 420/2/6
f 419/3/6 409/3/6 420/3/6
f 410/3/6 411/3/6 421/3/6
f 420/2/6 410/2/6 421/2/6
f 411/2/6 412/2/6 422/2/6
f 421/3/6 411/3/6 422/3/6
f 412/3/6 413/3/6 423/3/6
f 422/2/6 412/2/6 423/2/6
f 413/2/6 414/2/6 424/2/6
f 423/3/6 413/3/6 424/3/6
f 414/3/6 415/3/6 425/3/6
f 424/2/6 414/2/6 425/2/6
f 425/3/6 415/3/6 426/3/6
f 403/4/6 416/4/6 427/4/6
f 416/4/6 417/4/6 427/4/6
f 427/4/6 417/4/6 428/4/6
f 428/4/6 417/4/6 429/4/6
f 429/4/6 417/4/6 430/4/6
f 430/4/6 417/4/6 431/4/6
f 431/4/6 417/4/6 432/4/6
