# MagicaVoxel @ Ephtracy

# group
o 

# material
mtllib PeageOuvert.mtl
usemtl palette

# normals
vn -1 0 0
vn 1 0 0
vn 0 0 1
vn 0 0 -1
vn 0 -1 0
vn 0 1 0

# texcoords
vt 0.748047 0.5
vt 0.841797 0.5
vt 0.865234 0.5
vt 0.958984 0.5
vt 0.994141 0.5

# verts
v -0.5 0.6 0.1
v -0.5 0.6 -0.8
v -0.5 3.3 0.1
v -0.5 3.3 -0.8
v -0.4 0.4 0.1
v -0.4 0.4 -0.8
v -0.4 0.6 0.1
v -0.4 0.6 -0.8
v -0.4 0.8 0.2
v -0.4 0.8 0.1
v -0.4 0.8 -0.8
v -0.4 0.8 -0.9
v -0.4 3.3 0.2
v -0.4 3.3 0.1
v -0.4 3.3 -0.8
v -0.4 3.3 -0.9
v -0.3 0 0.2
v -0.3 0 -0.9
v -0.3 0.4 0.3
v -0.3 0.4 0.2
v -0.3 0.4 0.1
v -0.3 0.4 -0.8
v -0.3 0.4 -0.9
v -0.3 0.4 -1
v -0.3 0.8 0.2
v -0.3 0.8 0.1
v -0.3 0.8 -0.8
v -0.3 0.8 -0.9
v -0.3 3.3 0.3
v -0.3 3.3 0.2
v -0.3 3.3 -0.9
v -0.3 3.3 -1
v -0.2 2.4 0.7
v -0.2 2.4 0.3
v -0.2 2.9 0.9
v -0.2 2.9 0.7
v -0.2 3 0.9
v -0.2 3 0.3
v 0.2 3 -0.3
v 0.2 3 -0.6
v 0.2 3.1 -0.3
v 0.2 3.1 -0.6
v 0.2 3.3 -0.3
v 0.2 3.3 -0.6
v 0.2 3.5 -0.3
v 0.2 3.5 -0.6
v 0.2 4.2 -0.3
v 0.2 4.2 -0.6
v 0.2 4.7 -0.3
v 0.2 4.7 -0.6
v 0.2 5.4 -0.3
v 0.2 5.4 -0.6
v 0.2 5.9 -0.3
v 0.2 5.9 -0.6
v 0.2 6.7 -0.3
v 0.2 6.7 -0.6
v 0.2 7.2 -0.3
v 0.2 7.2 -0.6
v 0.2 7.7 -0.3
v 0.2 7.7 -0.6
v 0.3 2.6 -0.3
v 0.3 2.6 -0.6
v 0.3 3 -0.3
v 0.3 3 -0.6
v 0.1 0.8 -0.3
v 0.1 0.8 -0.6
v 0.1 3.3 -0.3
v 0.1 3.3 -0.6
v 0.4 2.4 0.7
v 0.4 2.4 0.3
v 0.4 2.9 0.9
v 0.4 2.9 0.7
v 0.4 3 0.9
v 0.4 3 0.3
v 0.6 0 0.2
v 0.6 0 -0.9
v 0.6 0.4 0.3
v 0.6 0.4 0.2
v 0.6 0.4 -0.9
v 0.6 0.4 -1
v 0.6 0.8 -0.3
v 0.6 0.8 -0.6
v 0.6 2.6 -0.3
v 0.6 2.6 -0.6
v 0.6 3 -0.3
v 0.6 3 -0.6
v 0.6 3.3 0.3
v 0.6 3.3 -0.3
v 0.6 3.3 -0.6
v 0.6 3.3 -1
v 0.7 2.6 -0.3
v 0.7 2.6 -0.4
v 0.7 2.6 -0.5
v 0.7 2.6 -0.6
v 0.7 3 -0.3
v 0.7 3 -0.4
v 0.7 3 -0.5
v 0.7 3 -0.6
v 0.7 3.8 -0.3
v 0.7 3.8 -0.4
v 0.7 3.8 -0.5
v 0.7 3.8 -0.6
v 0.7 4.3 -0.3
v 0.7 4.3 -0.4
v 0.7 4.3 -0.5
v 0.7 4.3 -0.6
v 0.7 5 -0.3
v 0.7 5 -0.4
v 0.7 5 -0.5
v 0.7 5 -0.6
v 0.7 5.5 -0.3
v 0.7 5.5 -0.4
v 0.7 5.5 -0.5
v 0.7 5.5 -0.6
v 0.7 6.3 -0.3
v 0.7 6.3 -0.4
v 0.7 6.3 -0.5
v 0.7 6.3 -0.6
v 0.7 6.8 -0.3
v 0.7 6.8 -0.4
v 0.7 6.8 -0.5
v 0.7 6.8 -0.6
v 0.7 7.5 -0.3
v 0.7 7.5 -0.4
v 0.7 7.5 -0.5
v 0.7 7.5 -0.6
v 0.7 7.7 -0.3
v 0.7 7.7 -0.4
v 0.7 7.7 -0.5
v 0.7 7.7 -0.6
v -0.2 2.9 0.9
v -0.2 3 0.9
v 0.4 2.9 0.9
v 0.4 3 0.9
v -0.2 2.4 0.7
v -0.2 2.9 0.7
v -0.1 2.5 0.7
v -0.1 2.9 0.7
v 0.3 2.5 0.7
v 0.3 2.9 0.7
v 0.4 2.4 0.7
v 0.4 2.9 0.7
v -0.3 0.4 0.3
v -0.3 3.3 0.3
v -0.2 2.4 0.3
v -0.2 3 0.3
v 0.4 2.4 0.3
v 0.4 3 0.3
v 0.6 0.4 0.3
v 0.6 3.3 0.3
v -0.4 0.8 0.2
v -0.4 3.3 0.2
v -0.3 0 0.2
v -0.3 0.4 0.2
v -0.3 0.8 0.2
v -0.3 3.3 0.2
v 0.6 0 0.2
v 0.6 0.4 0.2
v -0.5 0.6 0.1
v -0.5 3.3 0.1
v -0.4 0.4 0.1
v -0.4 0.6 0.1
v -0.4 0.8 0.1
v -0.4 3.3 0.1
v -0.3 0.4 0.1
v -0.3 0.8 0.1
v 0.2 3.3 -0.3
v 0.2 3.5 -0.3
v 0.2 4.2 -0.3
v 0.2 4.7 -0.3
v 0.2 5.4 -0.3
v 0.2 5.9 -0.3
v 0.2 6.7 -0.3
v 0.2 7.2 -0.3
v 0.2 7.7 -0.3
v 0.3 3.4 -0.3
v 0.3 3.5 -0.3
v 0.3 4.1 -0.3
v 0.3 4.2 -0.3
v 0.3 4.6 -0.3
v 0.3 4.7 -0.3
v 0.3 5.3 -0.3
v 0.3 5.4 -0.3
v 0.3 5.8 -0.3
v 0.3 5.9 -0.3
v 0.3 6.6 -0.3
v 0.3 6.7 -0.3
v 0.3 7.1 -0.3
v 0.3 7.2 -0.3
v 0.4 3.3 -0.3
v 0.4 3.4 -0.3
v 0.4 4 -0.3
v 0.4 4.1 -0.3
v 0.4 4.5 -0.3
v 0.4 4.6 -0.3
v 0.4 5.2 -0.3
v 0.4 5.3 -0.3
v 0.4 5.7 -0.3
v 0.4 5.8 -0.3
v 0.4 6.5 -0.3
v 0.4 6.6 -0.3
v 0.4 7 -0.3
v 0.4 7.1 -0.3
v 0.5 3.9 -0.3
v 0.5 4 -0.3
v 0.5 4.4 -0.3
v 0.5 4.5 -0.3
v 0.5 5.1 -0.3
v 0.5 5.2 -0.3
v 0.5 5.6 -0.3
v 0.5 5.7 -0.3
v 0.5 6.4 -0.3
v 0.5 6.5 -0.3
v 0.5 6.9 -0.3
v 0.5 7 -0.3
v 0.5 7.6 -0.3
v 0.5 7.7 -0.3
v 0.6 2.6 -0.3
v 0.6 3 -0.3
v 0.6 3.3 -0.3
v 0.6 3.8 -0.3
v 0.6 3.9 -0.3
v 0.6 4.3 -0.3
v 0.6 4.4 -0.3
v 0.6 5 -0.3
v 0.6 5.1 -0.3
v 0.6 5.5 -0.3
v 0.6 5.6 -0.3
v 0.6 6.3 -0.3
v 0.6 6.4 -0.3
v 0.6 6.8 -0.3
v 0.6 6.9 -0.3
v 0.6 7.5 -0.3
v 0.6 7.6 -0.3
v 0.7 2.6 -0.3
v 0.7 3 -0.3
v 0.7 3.8 -0.3
v 0.7 4.3 -0.3
v 0.7 5 -0.3
v 0.7 5.5 -0.3
v 0.7 6.3 -0.3
v 0.7 6.8 -0.3
v 0.7 7.5 -0.3
v 0.7 7.7 -0.3
v 0.1 0.8 -0.6
v 0.1 3.3 -0.6
v 0.2 3 -0.6
v 0.2 3.1 -0.6
v 0.2 3.3 -0.6
v 0.3 2.6 -0.6
v 0.3 3 -0.6
v 0.6 0.8 -0.6
v 0.6 2.6 -0.6
v 0.1 0.8 -0.3
v 0.1 3.3 -0.3
v 0.2 3 -0.3
v 0.2 3.1 -0.3
v 0.2 3.3 -0.3
v 0.3 2.6 -0.3
v 0.3 3 -0.3
v 0.6 0.8 -0.3
v 0.6 2.6 -0.3
v 0.2 3.3 -0.6
v 0.2 3.5 -0.6
v 0.2 4.2 -0.6
v 0.2 4.7 -0.6
v 0.2 5.4 -0.6
v 0.2 5.9 -0.6
v 0.2 6.7 -0.6
v 0.2 7.2 -0.6
v 0.2 7.7 -0.6
v 0.3 3.4 -0.6
v 0.3 3.5 -0.6
v 0.3 4.1 -0.6
v 0.3 4.2 -0.6
v 0.3 4.6 -0.6
v 0.3 4.7 -0.6
v 0.3 5.3 -0.6
v 0.3 5.4 -0.6
v 0.3 5.8 -0.6
v 0.3 5.9 -0.6
v 0.3 6.6 -0.6
v 0.3 6.7 -0.6
v 0.3 7.1 -0.6
v 0.3 7.2 -0.6
v 0.4 3.3 -0.6
v 0.4 3.4 -0.6
v 0.4 4 -0.6
v 0.4 4.1 -0.6
v 0.4 4.5 -0.6
v 0.4 4.6 -0.6
v 0.4 5.2 -0.6
v 0.4 5.3 -0.6
v 0.4 5.7 -0.6
v 0.4 5.8 -0.6
v 0.4 6.5 -0.6
v 0.4 6.6 -0.6
v 0.4 7 -0.6
v 0.4 7.1 -0.6
v 0.5 3.9 -0.6
v 0.5 4 -0.6
v 0.5 4.4 -0.6
v 0.5 4.5 -0.6
v 0.5 5.1 -0.6
v 0.5 5.2 -0.6
v 0.5 5.6 -0.6
v 0.5 5.7 -0.6
v 0.5 6.4 -0.6
v 0.5 6.5 -0.6
v 0.5 6.9 -0.6
v 0.5 7 -0.6
v 0.5 7.6 -0.6
v 0.5 7.7 -0.6
v 0.6 2.6 -0.6
v 0.6 3 -0.6
v 0.6 3.3 -0.6
v 0.6 3.8 -0.6
v 0.6 3.9 -0.6
v 0.6 4.3 -0.6
v 0.6 4.4 -0.6
v 0.6 5 -0.6
v 0.6 5.1 -0.6
v 0.6 5.5 -0.6
v 0.6 5.6 -0.6
v 0.6 6.3 -0.6
v 0.6 6.4 -0.6
v 0.6 6.8 -0.6
v 0.6 6.9 -0.6
v 0.6 7.5 -0.6
v 0.6 7.6 -0.6
v 0.7 2.6 -0.6
v 0.7 3 -0.6
v 0.7 3.8 -0.6
v 0.7 4.3 -0.6
v 0.7 5 -0.6
v 0.7 5.5 -0.6
v 0.7 6.3 -0.6
v 0.7 6.8 -0.6
v 0.7 7.5 -0.6
v 0.7 7.7 -0.6
v -0.5 0.6 -0.8
v -0.5 3.3 -0.8
v -0.4 0.4 -0.8
v -0.4 0.6 -0.8
v -0.4 0.8 -0.8
v -0.4 3.3 -0.8
v -0.3 0.4 -0.8
v -0.3 0.8 -0.8
v -0.4 0.8 -0.9
v -0.4 3.3 -0.9
v -0.3 0 -0.9
v -0.3 0.4 -0.9
v -0.3 0.8 -0.9
v -0.3 3.3 -0.9
v 0.6 0 -0.9
v 0.6 0.4 -0.9
v -0.3 0.4 -1
v -0.3 3.3 -1
v 0.6 0.4 -1
v 0.6 3.3 -1
v -0.3 0 0.2
v 0.6 0 0.2
v -0.3 0 -0.9
v 0.6 0 -0.9
v -0.3 0.4 0.3
v 0.6 0.4 0.3
v -0.3 0.4 0.2
v 0.6 0.4 0.2
v -0.4 0.4 0.1
v -0.3 0.4 0.1
v -0.4 0.4 -0.8
v -0.3 0.4 -0.8
v -0.3 0.4 -0.9
v 0.6 0.4 -0.9
v -0.3 0.4 -1
v 0.6 0.4 -1
v -0.5 0.6 0.1
v -0.4 0.6 0.1
v -0.5 0.6 -0.8
v -0.4 0.6 -0.8
v -0.4 0.8 0.2
v -0.3 0.8 0.2
v -0.4 0.8 0.1
v -0.3 0.8 0.1
v -0.4 0.8 -0.8
v -0.3 0.8 -0.8
v -0.4 0.8 -0.9
v -0.3 0.8 -0.9
v -0.2 2.4 0.7
v 0.4 2.4 0.7
v -0.2 2.4 0.3
v 0.4 2.4 0.3
v 0.3 2.6 -0.3
v 0.6 2.6 -0.3
v 0.7 2.6 -0.3
v 0.6 2.6 -0.4
v 0.7 2.6 -0.4
v 0.6 2.6 -0.5
v 0.7 2.6 -0.5
v 0.3 2.6 -0.6
v 0.6 2.6 -0.6
v 0.7 2.6 -0.6
v -0.2 2.9 0.9
v 0.4 2.9 0.9
v -0.2 2.9 0.7
v -0.1 2.9 0.7
v 0.3 2.9 0.7
v 0.4 2.9 0.7
v 0.2 3 -0.3
v 0.3 3 -0.3
v 0.2 3 -0.6
v 0.3 3 -0.6
v 0.1 0.8 -0.3
v 0.6 0.8 -0.3
v 0.1 0.8 -0.6
v 0.6 0.8 -0.6
v -0.2 3 0.9
v 0.4 3 0.9
v -0.2 3 0.3
v 0.4 3 0.3
v -0.3 3.3 0.3
v 0.6 3.3 0.3
v -0.4 3.3 0.2
v -0.3 3.3 0.2
v -0.5 3.3 0.1
v -0.4 3.3 0.1
v 0.1 3.3 -0.3
v 0.2 3.3 -0.3
v 0.4 3.3 -0.3
v 0.6 3.3 -0.3
v 0.1 3.3 -0.6
v 0.2 3.3 -0.6
v 0.4 3.3 -0.6
v 0.6 3.3 -0.6
v -0.5 3.3 -0.8
v -0.4 3.3 -0.8
v -0.4 3.3 -0.9
v -0.3 3.3 -0.9
v -0.3 3.3 -1
v 0.6 3.3 -1
v 0.2 7.7 -0.3
v 0.5 7.7 -0.3
v 0.7 7.7 -0.3
v 0.6 7.7 -0.4
v 0.7 7.7 -0.4
v 0.6 7.7 -0.5
v 0.7 7.7 -0.5
v 0.2 7.7 -0.6
v 0.5 7.7 -0.6
v 0.7 7.7 -0.6

# faces
f 3/5/1 2/5/1 1/5/1
f 4/5/1 2/5/1 3/5/1
f 7/5/1 6/5/1 5/5/1
f 8/5/1 6/5/1 7/5/1
f 13/5/1 10/5/1 9/5/1
f 14/5/1 10/5/1 13/5/1
f 15/5/1 12/5/1 11/5/1
f 16/5/1 12/5/1 15/5/1
f 20/5/1 18/5/1 17/5/1
f 21/5/1 18/5/1 20/5/1
f 22/5/1 18/5/1 21/5/1
f 23/5/1 18/5/1 22/5/1
f 25/5/1 20/5/1 19/5/1
f 25/5/1 21/5/1 20/5/1
f 26/5/1 21/5/1 25/5/1
f 27/5/1 24/5/1 23/5/1
f 27/5/1 23/5/1 22/5/1
f 28/5/1 24/5/1 27/5/1
f 29/5/1 25/5/1 19/5/1
f 30/5/1 25/5/1 29/5/1
f 31/5/1 24/5/1 28/5/1
f 32/5/1 24/5/1 31/5/1
f 36/5/1 34/5/1 33/5/1
f 37/5/1 36/5/1 35/5/1
f 38/5/1 34/5/1 36/5/1
f 38/5/1 36/5/1 37/5/1
f 41/4/1 40/4/1 39/4/1
f 42/4/1 40/4/1 41/4/1
f 43/3/1 42/3/1 41/3/1
f 44/3/1 42/3/1 43/3/1
f 45/3/1 44/3/1 43/3/1
f 46/3/1 44/3/1 45/3/1
f 47/4/1 46/4/1 45/4/1
f 48/4/1 46/4/1 47/4/1
f 49/3/1 48/3/1 47/3/1
f 50/3/1 48/3/1 49/3/1
f 51/4/1 50/4/1 49/4/1
f 52/4/1 50/4/1 51/4/1
f 53/3/1 52/3/1 51/3/1
f 54/3/1 52/3/1 53/3/1
f 55/4/1 54/4/1 53/4/1
f 56/4/1 54/4/1 55/4/1
f 57/3/1 56/3/1 55/3/1
f 58/3/1 56/3/1 57/3/1
f 59/4/1 58/4/1 57/4/1
f 60/4/1 58/4/1 59/4/1
f 63/3/1 62/3/1 61/3/1
f 64/3/1 62/3/1 63/3/1
f 65/5/2 66/5/2 67/5/2
f 67/5/2 66/5/2 68/5/2
f 69/5/2 70/5/2 72/5/2
f 71/5/2 72/5/2 73/5/2
f 72/5/2 70/5/2 74/5/2
f 73/5/2 72/5/2 74/5/2
f 75/5/2 76/5/2 78/5/2
f 78/5/2 76/5/2 79/5/2
f 77/5/2 78/5/2 81/5/2
f 79/5/2 80/5/2 81/5/2
f 78/5/2 79/5/2 81/5/2
f 81/5/2 80/5/2 82/5/2
f 77/5/2 81/5/2 83/5/2
f 82/5/2 80/5/2 84/5/2
f 77/5/2 83/5/2 85/5/2
f 84/5/2 80/5/2 86/5/2
f 77/5/2 85/5/2 87/5/2
f 87/5/2 85/5/2 88/5/2
f 86/5/2 80/5/2 89/5/2
f 89/5/2 80/5/2 90/5/2
f 91/3/2 92/3/2 95/3/2
f 92/1/2 93/1/2 96/1/2
f 95/3/2 92/3/2 96/3/2
f 93/3/2 94/3/2 97/3/2
f 96/1/2 93/1/2 97/1/2
f 97/3/2 94/3/2 98/3/2
f 95/4/2 96/4/2 99/4/2
f 96/1/2 97/1/2 100/1/2
f 99/4/2 96/4/2 100/4/2
f 97/4/2 98/4/2 101/4/2
f 100/1/2 97/1/2 101/1/2
f 101/4/2 98/4/2 102/4/2
f 99/3/2 100/3/2 103/3/2
f 100/1/2 101/1/2 104/1/2
f 103/3/2 100/3/2 104/3/2
f 101/3/2 102/3/2 105/3/2
f 104/1/2 101/1/2 105/1/2
f 105/3/2 102/3/2 106/3/2
f 103/4/2 104/4/2 107/4/2
f 104/1/2 105/1/2 108/1/2
f 107/4/2 104/4/2 108/4/2
f 105/4/2 106/4/2 109/4/2
f 108/1/2 105/1/2 109/1/2
f 109/4/2 106/4/2 110/4/2
f 107/3/2 108/3/2 111/3/2
f 108/1/2 109/1/2 112/1/2
f 111/3/2 108/3/2 112/3/2
f 109/3/2 110/3/2 113/3/2
f 112/1/2 109/1/2 113/1/2
f 113/3/2 110/3/2 114/3/2
f 111/4/2 112/4/2 115/4/2
f 112/1/2 113/1/2 116/1/2
f 115/4/2 112/4/2 116/4/2
f 113/4/2 114/4/2 117/4/2
f 116/1/2 113/1/2 117/1/2
f 117/4/2 114/4/2 118/4/2
f 115/3/2 116/3/2 119/3/2
f 116/1/2 117/1/2 120/1/2
f 119/3/2 116/3/2 120/3/2
f 117/3/2 118/3/2 121/3/2
f 120/1/2 117/1/2 121/1/2
f 121/3/2 118/3/2 122/3/2
f 119/4/2 120/4/2 123/4/2
f 120/1/2 121/1/2 124/1/2
f 123/4/2 120/4/2 124/4/2
f 121/4/2 122/4/2 125/4/2
f 124/1/2 121/1/2 125/1/2
f 125/4/2 122/4/2 126/4/2
f 123/3/2 124/3/2 127/3/2
f 124/1/2 125/1/2 128/1/2
f 127/3/2 124/3/2 128/3/2
f 125/3/2 126/3/2 129/3/2
f 128/1/2 125/1/2 129/1/2
f 129/3/2 126/3/2 130/3/2
f 133/5/3 132/5/3 131/5/3
f 134/5/3 132/5/3 133/5/3
f 137/5/3 136/5/3 135/5/3
f 138/5/3 136/5/3 137/5/3
f 139/5/3 137/5/3 135/5/3
f 139/1/3 138/1/3 137/1/3
f 140/1/3 138/1/3 139/1/3
f 141/5/3 139/5/3 135/5/3
f 141/5/3 140/5/3 139/5/3
f 142/5/3 140/5/3 141/5/3
f 145/5/3 144/5/3 143/5/3
f 146/5/3 144/5/3 145/5/3
f 147/5/3 145/5/3 143/5/3
f 148/5/3 144/5/3 146/5/3
f 149/5/3 147/5/3 143/5/3
f 149/5/3 148/5/3 147/5/3
f 150/5/3 144/5/3 148/5/3
f 150/5/3 148/5/3 149/5/3
f 155/5/3 152/5/3 151/5/3
f 156/5/3 152/5/3 155/5/3
f 157/5/3 154/5/3 153/5/3
f 158/5/3 154/5/3 157/5/3
f 162/5/3 160/5/3 159/5/3
f 163/5/3 160/5/3 162/5/3
f 164/5/3 160/5/3 163/5/3
f 165/5/3 162/5/3 161/5/3
f 165/5/3 163/5/3 162/5/3
f 166/5/3 163/5/3 165/5/3
f 176/3/3 168/3/3 167/3/3
f 177/4/3 169/4/3 168/4/3
f 177/3/3 168/3/3 176/3/3
f 178/4/3 169/4/3 177/4/3
f 179/3/3 170/3/3 169/3/3
f 179/4/3 169/4/3 178/4/3
f 180/3/3 170/3/3 179/3/3
f 181/4/3 171/4/3 170/4/3
f 181/3/3 170/3/3 180/3/3
f 182/4/3 171/4/3 181/4/3
f 183/3/3 172/3/3 171/3/3
f 183/4/3 171/4/3 182/4/3
f 184/3/3 172/3/3 183/3/3
f 185/4/3 173/4/3 172/4/3
f 185/3/3 172/3/3 184/3/3
f 186/4/3 173/4/3 185/4/3
f 187/3/3 174/3/3 173/3/3
f 187/4/3 173/4/3 186/4/3
f 188/3/3 174/3/3 187/3/3
f 189/4/3 175/4/3 174/4/3
f 189/3/3 174/3/3 188/3/3
f 190/3/3 176/3/3 167/3/3
f 191/4/3 178/4/3 177/4/3
f 191/3/3 176/3/3 190/3/3
f 191/4/3 177/4/3 176/4/3
f 192/4/3 178/4/3 191/4/3
f 193/3/3 180/3/3 179/3/3
f 193/4/3 178/4/3 192/4/3
f 193/3/3 179/3/3 178/3/3
f 194/3/3 180/3/3 193/3/3
f 195/4/3 182/4/3 181/4/3
f 195/3/3 180/3/3 194/3/3
f 195/4/3 181/4/3 180/4/3
f 196/4/3 182/4/3 195/4/3
f 197/3/3 184/3/3 183/3/3
f 197/4/3 182/4/3 196/4/3
f 197/3/3 183/3/3 182/3/3
f 198/3/3 184/3/3 197/3/3
f 199/4/3 186/4/3 185/4/3
f 199/3/3 184/3/3 198/3/3
f 199/4/3 185/4/3 184/4/3
f 200/4/3 186/4/3 199/4/3
f 201/3/3 188/3/3 187/3/3
f 201/4/3 186/4/3 200/4/3
f 201/3/3 187/3/3 186/3/3
f 202/3/3 188/3/3 201/3/3
f 203/4/3 189/4/3 188/4/3
f 203/3/3 188/3/3 202/3/3
f 204/4/3 192/4/3 191/4/3
f 204/4/3 191/4/3 190/4/3
f 205/3/3 194/3/3 193/3/3
f 205/4/3 192/4/3 204/4/3
f 205/3/3 193/3/3 192/3/3
f 206/3/3 194/3/3 205/3/3
f 207/4/3 196/4/3 195/4/3
f 207/3/3 194/3/3 206/3/3
f 207/4/3 195/4/3 194/4/3
f 208/4/3 196/4/3 207/4/3
f 209/3/3 198/3/3 197/3/3
f 209/4/3 196/4/3 208/4/3
f 209/3/3 197/3/3 196/3/3
f 210/3/3 198/3/3 209/3/3
f 211/4/3 200/4/3 199/4/3
f 211/3/3 198/3/3 210/3/3
f 211/4/3 199/4/3 198/4/3
f 212/4/3 200/4/3 211/4/3
f 213/3/3 202/3/3 201/3/3
f 213/4/3 200/4/3 212/4/3
f 213/3/3 201/3/3 200/3/3
f 214/3/3 202/3/3 213/3/3
f 215/4/3 203/4/3 202/4/3
f 215/3/3 202/3/3 214/3/3
f 216/4/3 175/4/3 189/4/3
f 216/4/3 203/4/3 215/4/3
f 216/4/3 189/4/3 203/4/3
f 217/4/3 175/4/3 216/4/3
f 220/4/3 204/4/3 190/4/3
f 221/4/3 204/4/3 220/4/3
f 222/3/3 206/3/3 205/3/3
f 222/4/3 204/4/3 221/4/3
f 222/3/3 205/3/3 204/3/3
f 223/3/3 206/3/3 222/3/3
f 224/4/3 208/4/3 207/4/3
f 224/3/3 206/3/3 223/3/3
f 224/4/3 207/4/3 206/4/3
f 225/4/3 208/4/3 224/4/3
f 226/3/3 210/3/3 209/3/3
f 226/4/3 208/4/3 225/4/3
f 226/3/3 209/3/3 208/3/3
f 227/3/3 210/3/3 226/3/3
f 228/4/3 212/4/3 211/4/3
f 228/3/3 210/3/3 227/3/3
f 228/4/3 211/4/3 210/4/3
f 229/4/3 212/4/3 228/4/3
f 230/3/3 213/3/3 212/3/3
f 230/4/3 212/4/3 229/4/3
f 230/3/3 214/3/3 213/3/3
f 231/3/3 214/3/3 230/3/3
f 232/4/3 215/4/3 214/4/3
f 232/3/3 214/3/3 231/3/3
f 232/4/3 216/4/3 215/4/3
f 233/4/3 216/4/3 232/4/3
f 234/3/3 217/3/3 216/3/3
f 234/4/3 216/4/3 233/4/3
f 235/3/3 219/3/3 218/3/3
f 236/4/3 221/4/3 220/4/3
f 236/3/3 219/3/3 235/3/3
f 236/4/3 220/4/3 219/4/3
f 237/3/3 223/3/3 222/3/3
f 237/4/3 221/4/3 236/4/3
f 237/3/3 222/3/3 221/3/3
f 238/4/3 225/4/3 224/4/3
f 238/3/3 223/3/3 237/3/3
f 238/4/3 224/4/3 223/4/3
f 239/3/3 227/3/3 226/3/3
f 239/4/3 225/4/3 238/4/3
f 239/3/3 226/3/3 225/3/3
f 240/4/3 229/4/3 228/4/3
f 240/3/3 227/3/3 239/3/3
f 240/4/3 228/4/3 227/4/3
f 241/3/3 231/3/3 230/3/3
f 241/4/3 229/4/3 240/4/3
f 241/3/3 230/3/3 229/3/3
f 242/4/3 233/4/3 232/4/3
f 242/3/3 231/3/3 241/3/3
f 242/4/3 232/4/3 231/4/3
f 243/3/3 234/3/3 233/3/3
f 243/4/3 233/4/3 242/4/3
f 244/3/3 217/3/3 234/3/3
f 244/3/3 234/3/3 243/3/3
f 247/5/3 246/5/3 245/5/3
f 248/5/3 246/5/3 247/5/3
f 249/5/3 246/5/3 248/5/3
f 250/5/3 247/5/3 245/5/3
f 251/5/3 247/5/3 250/5/3
f 252/5/3 250/5/3 245/5/3
f 253/5/3 250/5/3 252/5/3
f 254/5/4 255/5/4 256/5/4
f 256/5/4 255/5/4 257/5/4
f 257/5/4 255/5/4 258/5/4
f 254/5/4 256/5/4 259/5/4
f 259/5/4 256/5/4 260/5/4
f 254/5/4 259/5/4 261/5/4
f 261/5/4 259/5/4 262/5/4
f 263/3/4 264/3/4 272/3/4
f 264/4/4 265/4/4 273/4/4
f 272/3/4 264/3/4 273/3/4
f 273/4/4 265/4/4 274/4/4
f 265/3/4 266/3/4 275/3/4
f 274/4/4 265/4/4 275/4/4
f 275/3/4 266/3/4 276/3/4
f 266/4/4 267/4/4 277/4/4
f 276/3/4 266/3/4 277/3/4
f 277/4/4 267/4/4 278/4/4
f 267/3/4 268/3/4 279/3/4
f 278/4/4 267/4/4 279/4/4
f 279/3/4 268/3/4 280/3/4
f 268/4/4 269/4/4 281/4/4
f 280/3/4 268/3/4 281/3/4
f 281/4/4 269/4/4 282/4/4
f 269/3/4 270/3/4 283/3/4
f 282/4/4 269/4/4 283/4/4
f 283/3/4 270/3/4 284/3/4
f 270/4/4 271/4/4 285/4/4
f 284/3/4 270/3/4 285/3/4
f 263/3/4 272/3/4 286/3/4
f 273/4/4 274/4/4 287/4/4
f 286/3/4 272/3/4 287/3/4
f 272/4/4 273/4/4 287/4/4
f 287/4/4 274/4/4 288/4/4
f 275/3/4 276/3/4 289/3/4
f 288/4/4 274/4/4 289/4/4
f 274/3/4 275/3/4 289/3/4
f 289/3/4 276/3/4 290/3/4
f 277/4/4 278/4/4 291/4/4
f 290/3/4 276/3/4 291/3/4
f 276/4/4 277/4/4 291/4/4
f 291/4/4 278/4/4 292/4/4
f 279/3/4 280/3/4 293/3/4
f 292/4/4 278/4/4 293/4/4
f 278/3/4 279/3/4 293/3/4
f 293/3/4 280/3/4 294/3/4
f 281/4/4 282/4/4 295/4/4
f 294/3/4 280/3/4 295/3/4
f 280/4/4 281/4/4 295/4/4
f 295/4/4 282/4/4 296/4/4
f 283/3/4 284/3/4 297/3/4
f 296/4/4 282/4/4 297/4/4
f 282/3/4 283/3/4 297/3/4
f 297/3/4 284/3/4 298/3/4
f 284/4/4 285/4/4 299/4/4
f 298/3/4 284/3/4 299/3/4
f 287/4/4 288/4/4 300/4/4
f 286/4/4 287/4/4 300/4/4
f 289/3/4 290/3/4 301/3/4
f 300/4/4 288/4/4 301/4/4
f 288/3/4 289/3/4 301/3/4
f 301/3/4 290/3/4 302/3/4
f 291/4/4 292/4/4 303/4/4
f 302/3/4 290/3/4 303/3/4
f 290/4/4 291/4/4 303/4/4
f 303/4/4 292/4/4 304/4/4
f 293/3/4 294/3/4 305/3/4
f 304/4/4 292/4/4 305/4/4
f 292/3/4 293/3/4 305/3/4
f 305/3/4 294/3/4 306/3/4
f 295/4/4 296/4/4 307/4/4
f 306/3/4 294/3/4 307/3/4
f 294/4/4 295/4/4 307/4/4
f 307/4/4 296/4/4 308/4/4
f 297/3/4 298/3/4 309/3/4
f 308/4/4 296/4/4 309/4/4
f 296/3/4 297/3/4 309/3/4
f 309/3/4 298/3/4 310/3/4
f 298/4/4 299/4/4 311/4/4
f 310/3/4 298/3/4 311/3/4
f 285/4/4 271/4/4 312/4/4
f 311/4/4 299/4/4 312/4/4
f 299/4/4 285/4/4 312/4/4
f 312/4/4 271/4/4 313/4/4
f 286/4/4 300/4/4 316/4/4
f 316/4/4 300/4/4 317/4/4
f 301/3/4 302/3/4 318/3/4
f 317/4/4 300/4/4 318/4/4
f 300/3/4 301/3/4 318/3/4
f 318/3/4 302/3/4 319/3/4
f 303/4/4 304/4/4 320/4/4
f 319/3/4 302/3/4 320/3/4
f 302/4/4 303/4/4 320/4/4
f 320/4/4 304/4/4 321/4/4
f 305/3/4 306/3/4 322/3/4
f 321/4/4 304/4/4 322/4/4
f 304/3/4 305/3/4 322/3/4
f 322/3/4 306/3/4 323/3/4
f 307/4/4 308/4/4 324/4/4
f 323/3/4 306/3/4 324/3/4
f 306/4/4 307/4/4 324/4/4
f 324/4/4 308/4/4 325/4/4
f 308/3/4 309/3/4 326/3/4
f 325/4/4 308/4/4 326/4/4
f 309/3/4 310/3/4 326/3/4
f 326/3/4 310/3/4 327/3/4
f 310/4/4 311/4/4 328/4/4
f 327/3/4 310/3/4 328/3/4
f 311/4/4 312/4/4 328/4/4
f 328/4/4 312/4/4 329/4/4
f 312/3/4 313/3/4 330/3/4
f 329/4/4 312/4/4 330/4/4
f 314/3/4 315/3/4 331/3/4
f 316/4/4 317/4/4 332/4/4
f 331/3/4 315/3/4 332/3/4
f 315/4/4 316/4/4 332/4/4
f 318/3/4 319/3/4 333/3/4
f 332/4/4 317/4/4 333/4/4
f 317/3/4 318/3/4 333/3/4
f 320/4/4 321/4/4 334/4/4
f 333/3/4 319/3/4 334/3/4
f 319/4/4 320/4/4 334/4/4
f 322/3/4 323/3/4 335/3/4
f 334/4/4 321/4/4 335/4/4
f 321/3/4 322/3/4 335/3/4
f 324/4/4 325/4/4 336/4/4
f 335/3/4 323/3/4 336/3/4
f 323/4/4 324/4/4 336/4/4
f 326/3/4 327/3/4 337/3/4
f 336/4/4 325/4/4 337/4/4
f 325/3/4 326/3/4 337/3/4
f 328/4/4 329/4/4 338/4/4
f 337/3/4 327/3/4 338/3/4
f 327/4/4 328/4/4 338/4/4
f 329/3/4 330/3/4 339/3/4
f 338/4/4 329/4/4 339/4/4
f 330/3/4 313/3/4 340/3/4
f 339/3/4 330/3/4 340/3/4
f 341/5/4 342/5/4 344/5/4
f 344/5/4 342/5/4 345/5/4
f 345/5/4 342/5/4 346/5/4
f 343/5/4 344/5/4 347/5/4
f 344/5/4 345/5/4 347/5/4
f 347/5/4 345/5/4 348/5/4
f 349/5/4 350/5/4 353/5/4
f 353/5/4 350/5/4 354/5/4
f 351/5/4 352/5/4 355/5/4
f 355/5/4 352/5/4 356/5/4
f 357/5/4 358/5/4 359/5/4
f 359/5/4 358/5/4 360/5/4
f 363/5/5 362/5/5 361/5/5
f 364/5/5 362/5/5 363/5/5
f 367/5/5 366/5/5 365/5/5
f 368/5/5 366/5/5 367/5/5
f 371/5/5 370/5/5 369/5/5
f 372/5/5 370/5/5 371/5/5
f 375/5/5 374/5/5 373/5/5
f 376/5/5 374/5/5 375/5/5
f 379/5/5 378/5/5 377/5/5
f 380/5/5 378/5/5 379/5/5
f 383/5/5 382/5/5 381/5/5
f 384/5/5 382/5/5 383/5/5
f 387/5/5 386/5/5 385/5/5
f 388/5/5 386/5/5 387/5/5
f 391/5/5 390/5/5 389/5/5
f 392/5/5 390/5/5 391/5/5
f 396/3/5 394/3/5 393/3/5
f 396/3/5 395/3/5 394/3/5
f 397/3/5 395/3/5 396/3/5
f 398/3/5 396/3/5 393/3/5
f 398/1/5 397/1/5 396/1/5
f 399/1/5 397/1/5 398/1/5
f 400/3/5 398/3/5 393/3/5
f 400/3/5 399/3/5 398/3/5
f 401/3/5 399/3/5 400/3/5
f 402/3/5 399/3/5 401/3/5
f 405/5/5 404/5/5 403/5/5
f 406/5/5 404/5/5 405/5/5
f 407/5/5 404/5/5 406/5/5
f 408/5/5 404/5/5 407/5/5
f 411/4/5 410/4/5 409/4/5
f 412/4/5 410/4/5 411/4/5
f 413/5/6 414/5/6 415/5/6
f 415/5/6 414/5/6 416/5/6
f 417/5/6 418/5/6 419/5/6
f 419/5/6 418/5/6 420/5/6
f 421/5/6 422/5/6 424/5/6
f 423/5/6 424/5/6 426/5/6
f 424/5/6 422/5/6 427/5/6
f 425/5/6 426/5/6 427/5/6
f 426/5/6 424/5/6 427/5/6
f 427/5/6 422/5/6 428/5/6
f 428/5/6 422/5/6 429/5/6
f 429/5/6 422/5/6 430/5/6
f 425/5/6 427/5/6 431/5/6
f 425/5/6 431/5/6 435/5/6
f 433/5/6 434/5/6 435/5/6
f 432/5/6 433/5/6 435/5/6
f 431/5/6 432/5/6 435/5/6
f 435/5/6 434/5/6 436/5/6
f 436/5/6 434/5/6 437/5/6
f 437/5/6 434/5/6 438/5/6
f 438/5/6 434/5/6 439/5/6
f 439/5/6 434/5/6 440/5/6
f 442/3/6 443/3/6 444/3/6
f 444/3/6 443/3/6 445/3/6
f 442/3/6 444/3/6 446/3/6
f 444/1/6 445/1/6 446/1/6
f 446/1/6 445/1/6 447/1/6
f 441/4/6 442/4/6 448/4/6
f 442/3/6 446/3/6 449/3/6
f 448/4/6 442/4/6 449/4/6
f 446/3/6 447/3/6 449/3/6
f 449/3/6 447/3/6 450/3/6
