# MagicaVoxel @ Ephtracy

# group
o 

# material
mtllib PipeStrippedTurnedUp.mtl
usemtl palette

# normals
vn -1 0 0
vn 1 0 0
vn 0 0 1
vn 0 0 -1
vn 0 -1 0
vn 0 1 0

# texcoords
vt 0.705078 0.5
vt 0.708984 0.5
vt 0.994141 0.5

# verts
v -0.7 1.2 0.5
v -0.7 1.2 0.3
v -0.7 3 0.5
v -0.7 3 0.3
v -0.4 1.6 0.6
v -0.4 1.6 0.3
v -0.4 3 0.6
v -0.4 3 0.3
v -0.3 1.4 0.6
v -0.3 1.4 0.3
v -0.3 1.5 0.7
v -0.3 1.5 0.6
v -0.3 1.5 0.3
v -0.3 1.5 0.2
v -0.3 1.6 0.6
v -0.3 1.6 0.3
v -0.3 3 0.7
v -0.3 3 0.6
v -0.3 3 0.3
v -0.3 3 0.2
v -0.2 1.6 0.8
v -0.2 1.6 0.7
v -0.2 1.6 0.2
v -0.2 1.6 0.1
v -0.2 3 0.8
v -0.2 3 0.7
v -0.2 3 0.2
v -0.2 3 0.1
v 0.6 2.3 0.5
v 0.6 2.3 0.3
v 0.6 3 0.5
v 0.6 3 0.3
v -0.6 1.3 0.5
v -0.6 1.3 0.3
v -0.6 3 0.5
v -0.6 3 0.3
v 0.2 2 0.8
v 0.2 2 0.7
v 0.2 3 0.8
v 0.2 3 0.7
v 0.3 1.9 0.8
v 0.3 1.9 0.7
v 0.3 2 0.8
v 0.3 2 0.7
v 0.3 2 0.2
v 0.3 2 0.1
v 0.3 2.1 0.7
v 0.3 2.1 0.6
v 0.3 3 0.7
v 0.3 3 0.6
v 0.3 3 0.2
v 0.3 3 0.1
v 0.4 2 0.7
v 0.4 2 0.6
v 0.4 2.1 0.7
v 0.4 2.1 0.6
v 0.4 2.2 0.6
v 0.4 2.2 0.2
v 0.4 3 0.6
v 0.4 3 0.2
v 0.5 2.1 0.6
v 0.5 2.1 0.2
v 0.5 2.2 0.6
v 0.5 2.2 0.2
v 0.7 2.4 0.5
v 0.7 2.4 0.3
v 0.7 3 0.5
v 0.7 3 0.3
v 1.2 1.2 0.5
v 1.2 1.2 0.3
v 1.2 1.3 0.5
v 1.2 1.3 0.3
v 1.2 1.4 0.6
v 1.2 1.4 0.3
v 1.2 1.5 0.7
v 1.2 1.5 0.6
v 1.2 1.5 0.3
v 1.2 1.5 0.2
v 1.2 1.6 0.8
v 1.2 1.6 0.7
v 1.2 1.6 0.6
v 1.2 1.6 0.3
v 1.2 1.6 0.2
v 1.2 1.6 0.1
v 1.2 1.9 0.8
v 1.2 1.9 0.7
v 1.2 1.9 0.6
v 1.2 1.9 0.3
v 1.2 1.9 0.1
v 1.2 2 0.7
v 1.2 2 0.6
v 1.2 2 0.3
v 1.2 2 0.2
v 1.2 2 0.1
v 1.2 2.1 0.6
v 1.2 2.1 0.2
v 1.2 2.3 0.5
v 1.2 2.3 0.3
v 1.2 2.4 0.5
v 1.2 2.4 0.3
v -0.2 1.6 0.8
v -0.2 3 0.8
v 0.2 2 0.8
v 0.2 3 0.8
v 0.3 1.9 0.8
v 0.3 2 0.8
v 1.2 1.6 0.8
v 1.2 1.9 0.8
v -0.3 1.5 0.7
v -0.3 3 0.7
v -0.2 1.6 0.7
v -0.2 3 0.7
v 0.2 2 0.7
v 0.2 3 0.7
v 0.3 1.9 0.7
v 0.3 2 0.7
v 0.3 2.1 0.7
v 0.3 3 0.7
v 0.4 2 0.7
v 0.4 2.1 0.7
v 1.2 1.5 0.7
v 1.2 1.6 0.7
v 1.2 1.9 0.7
v 1.2 2 0.7
v -0.4 1.6 0.6
v -0.4 3 0.6
v -0.3 1.4 0.6
v -0.3 1.5 0.6
v -0.3 1.6 0.6
v -0.3 3 0.6
v 0.3 2.1 0.6
v 0.3 3 0.6
v 0.4 2 0.6
v 0.4 2.1 0.6
v 0.4 2.2 0.6
v 0.4 3 0.6
v 0.5 2.1 0.6
v 0.5 2.2 0.6
v 1.2 1.4 0.6
v 1.2 1.5 0.6
v 1.2 2 0.6
v 1.2 2.1 0.6
v -0.7 1.2 0.5
v -0.7 3 0.5
v -0.6 1.3 0.5
v -0.6 3 0.5
v 0.6 2.3 0.5
v 0.6 3 0.5
v 0.7 2.4 0.5
v 0.7 3 0.5
v 1.2 1.2 0.5
v 1.2 1.3 0.5
v 1.2 2.3 0.5
v 1.2 2.4 0.5
v -0.7 1.2 0.3
v -0.7 3 0.3
v -0.6 1.3 0.3
v -0.6 3 0.3
v -0.4 1.6 0.3
v -0.4 3 0.3
v -0.3 1.4 0.3
v -0.3 1.5 0.3
v -0.3 1.6 0.3
v -0.3 3 0.3
v 0.6 2.3 0.3
v 0.6 3 0.3
v 0.7 2.4 0.3
v 0.7 3 0.3
v 1.2 1.2 0.3
v 1.2 1.3 0.3
v 1.2 1.4 0.3
v 1.2 1.5 0.3
v 1.2 2.3 0.3
v 1.2 2.4 0.3
v -0.3 1.5 0.2
v -0.3 3 0.2
v -0.2 1.6 0.2
v -0.2 3 0.2
v 0.3 2 0.2
v 0.3 3 0.2
v 0.4 2.2 0.2
v 0.4 3 0.2
v 0.5 2.1 0.2
v 0.5 2.2 0.2
v 1.2 1.5 0.2
v 1.2 1.6 0.2
v 1.2 2 0.2
v 1.2 2.1 0.2
v -0.2 1.6 0.1
v -0.2 3 0.1
v 0.2 1.9 0.1
v 0.2 3 0.1
v 0.3 2 0.1
v 0.3 3 0.1
v 1.2 1.6 0.1
v 1.2 1.9 0.1
v 1.2 2 0.1
v -0.7 1.2 0.5
v 1.2 1.2 0.5
v -0.7 1.2 0.3
v 1.2 1.2 0.3
v -0.3 1.4 0.6
v 1.2 1.4 0.6
v -0.3 1.4 0.3
v 1.2 1.4 0.3
v -0.3 1.5 0.7
v 1.2 1.5 0.7
v -0.3 1.5 0.6
v 1.2 1.5 0.6
v -0.3 1.5 0.3
v 1.2 1.5 0.3
v -0.3 1.5 0.2
v 1.2 1.5 0.2
v -0.2 1.6 0.8
v 1.2 1.6 0.8
v -0.2 1.6 0.7
v 1.2 1.6 0.7
v -0.4 1.6 0.6
v -0.3 1.6 0.6
v -0.4 1.6 0.3
v -0.3 1.6 0.3
v -0.2 1.6 0.2
v 1.2 1.6 0.2
v -0.2 1.6 0.1
v 1.2 1.6 0.1
v 0.6 2.3 0.5
v 1.2 2.3 0.5
v 0.6 2.3 0.3
v 1.2 2.3 0.3
v -0.6 1.3 0.5
v 1.2 1.3 0.5
v -0.6 1.3 0.3
v 1.2 1.3 0.3
v 0.3 1.9 0.8
v 1.2 1.9 0.8
v 0.3 1.9 0.7
v 1.2 1.9 0.7
v 0.2 2 0.8
v 0.3 2 0.8
v 0.2 2 0.7
v 0.3 2 0.7
v 0.4 2 0.7
v 1.2 2 0.7
v 0.4 2 0.6
v 1.2 2 0.6
v 0.3 2 0.2
v 1.2 2 0.2
v 0.3 2 0.1
v 1.2 2 0.1
v 0.3 2.1 0.7
v 0.4 2.1 0.7
v 0.3 2.1 0.6
v 0.4 2.1 0.6
v 0.5 2.1 0.6
v 1.2 2.1 0.6
v 0.5 2.1 0.2
v 1.2 2.1 0.2
v 0.4 2.2 0.6
v 0.5 2.2 0.6
v 0.4 2.2 0.2
v 0.5 2.2 0.2
v 0.7 2.4 0.5
v 1.2 2.4 0.5
v 0.7 2.4 0.3
v 1.2 2.4 0.3
v -0.2 3 0.8
v 0.2 3 0.8
v -0.3 3 0.7
v -0.2 3 0.7
v 0.2 3 0.7
v 0.3 3 0.7
v -0.4 3 0.6
v -0.3 3 0.6
v -0.2 3 0.6
v 0.2 3 0.6
v 0.3 3 0.6
v 0.4 3 0.6
v -0.7 3 0.5
v -0.6 3 0.5
v 0.6 3 0.5
v 0.7 3 0.5
v -0.7 3 0.3
v -0.6 3 0.3
v -0.4 3 0.3
v -0.3 3 0.3
v -0.2 3 0.3
v 0.2 3 0.3
v 0.3 3 0.3
v 0.6 3 0.3
v 0.7 3 0.3
v -0.3 3 0.2
v -0.2 3 0.2
v 0.3 3 0.2
v 0.4 3 0.2
v -0.2 3 0.1
v 0.2 3 0.1
v 0.3 3 0.1

# faces
f 3/3/1 2/3/1 1/3/1
f 4/3/1 2/3/1 3/3/1
f 7/1/1 6/1/1 5/1/1
f 8/1/1 6/1/1 7/1/1
f 12/1/1 10/1/1 9/1/1
f 13/1/1 10/1/1 12/1/1
f 15/2/1 12/2/1 11/2/1
f 15/1/1 13/1/1 12/1/1
f 16/2/1 14/2/1 13/2/1
f 16/1/1 13/1/1 15/1/1
f 17/2/1 15/2/1 11/2/1
f 18/2/1 15/2/1 17/2/1
f 19/2/1 14/2/1 16/2/1
f 20/2/1 14/2/1 19/2/1
f 25/1/1 22/1/1 21/1/1
f 26/1/1 22/1/1 25/1/1
f 27/1/1 24/1/1 23/1/1
f 28/1/1 24/1/1 27/1/1
f 31/3/1 30/3/1 29/3/1
f 32/3/1 30/3/1 31/3/1
f 33/3/2 34/3/2 35/3/2
f 35/3/2 34/3/2 36/3/2
f 37/1/2 38/1/2 39/1/2
f 39/1/2 38/1/2 40/1/2
f 41/1/2 42/1/2 43/1/2
f 43/1/2 42/1/2 44/1/2
f 47/2/2 48/2/2 49/2/2
f 49/2/2 48/2/2 50/2/2
f 45/2/2 46/2/2 51/2/2
f 51/2/2 46/2/2 52/2/2
f 53/2/2 54/2/2 55/2/2
f 55/2/2 54/2/2 56/2/2
f 57/1/2 58/1/2 59/1/2
f 59/1/2 58/1/2 60/1/2
f 61/1/2 62/1/2 63/1/2
f 63/1/2 62/1/2 64/1/2
f 65/3/2 66/3/2 67/3/2
f 67/3/2 66/3/2 68/3/2
f 69/3/2 70/3/2 71/3/2
f 71/3/2 70/3/2 72/3/2
f 73/1/2 74/1/2 76/1/2
f 76/1/2 74/1/2 77/1/2
f 75/2/2 76/2/2 80/2/2
f 76/1/2 77/1/2 81/1/2
f 80/2/2 76/2/2 81/2/2
f 77/2/2 78/2/2 82/2/2
f 81/1/2 77/1/2 82/1/2
f 82/2/2 78/2/2 83/2/2
f 79/1/2 80/1/2 85/1/2
f 83/1/2 84/1/2 85/1/2
f 82/1/2 83/1/2 85/1/2
f 81/1/2 82/1/2 85/1/2
f 80/1/2 81/1/2 85/1/2
f 85/1/2 84/1/2 86/1/2
f 86/1/2 84/1/2 87/1/2
f 87/1/2 84/1/2 88/1/2
f 88/1/2 84/1/2 89/1/2
f 86/2/2 87/2/2 90/2/2
f 87/1/2 88/1/2 91/1/2
f 90/2/2 87/2/2 91/2/2
f 88/2/2 89/2/2 92/2/2
f 91/1/2 88/1/2 92/1/2
f 92/2/2 89/2/2 93/2/2
f 93/2/2 89/2/2 94/2/2
f 91/1/2 92/1/2 95/1/2
f 92/1/2 93/1/2 95/1/2
f 95/1/2 93/1/2 96/1/2
f 97/3/2 98/3/2 99/3/2
f 99/3/2 98/3/2 100/3/2
f 103/1/3 102/1/3 101/1/3
f 104/1/3 102/1/3 103/1/3
f 105/1/3 103/1/3 101/1/3
f 106/1/3 103/1/3 105/1/3
f 107/1/3 105/1/3 101/1/3
f 108/1/3 105/1/3 107/1/3
f 111/2/3 110/2/3 109/2/3
f 112/2/3 110/2/3 111/2/3
f 116/2/3 114/2/3 113/2/3
f 117/2/3 114/2/3 116/2/3
f 118/2/3 114/2/3 117/2/3
f 119/2/3 116/2/3 115/2/3
f 119/2/3 117/2/3 116/2/3
f 120/2/3 117/2/3 119/2/3
f 121/2/3 111/2/3 109/2/3
f 122/2/3 111/2/3 121/2/3
f 123/2/3 119/2/3 115/2/3
f 124/2/3 119/2/3 123/2/3
f 129/1/3 126/1/3 125/1/3
f 130/1/3 126/1/3 129/1/3
f 134/1/3 132/1/3 131/1/3
f 135/1/3 132/1/3 134/1/3
f 136/1/3 132/1/3 135/1/3
f 137/1/3 134/1/3 133/1/3
f 137/1/3 135/1/3 134/1/3
f 138/1/3 135/1/3 137/1/3
f 139/1/3 128/1/3 127/1/3
f 140/1/3 128/1/3 139/1/3
f 141/1/3 137/1/3 133/1/3
f 142/1/3 137/1/3 141/1/3
f 145/3/3 144/3/3 143/3/3
f 146/3/3 144/3/3 145/3/3
f 149/3/3 148/3/3 147/3/3
f 150/3/3 148/3/3 149/3/3
f 151/3/3 145/3/3 143/3/3
f 152/3/3 145/3/3 151/3/3
f 153/3/3 149/3/3 147/3/3
f 154/3/3 149/3/3 153/3/3
f 155/3/4 156/3/4 157/3/4
f 157/3/4 156/3/4 158/3/4
f 159/1/4 160/1/4 163/1/4
f 163/1/4 160/1/4 164/1/4
f 165/3/4 166/3/4 167/3/4
f 167/3/4 166/3/4 168/3/4
f 155/3/4 157/3/4 169/3/4
f 169/3/4 157/3/4 170/3/4
f 161/1/4 162/1/4 171/1/4
f 171/1/4 162/1/4 172/1/4
f 165/3/4 167/3/4 173/3/4
f 173/3/4 167/3/4 174/3/4
f 175/2/4 176/2/4 177/2/4
f 177/2/4 176/2/4 178/2/4
f 179/1/4 180/1/4 181/1/4
f 181/1/4 180/1/4 182/1/4
f 179/1/4 181/1/4 183/1/4
f 183/1/4 181/1/4 184/1/4
f 175/2/4 177/2/4 185/2/4
f 185/2/4 177/2/4 186/2/4
f 179/1/4 183/1/4 187/1/4
f 187/1/4 183/1/4 188/1/4
f 189/1/4 190/1/4 191/1/4
f 191/1/4 190/1/4 192/1/4
f 191/2/4 192/2/4 193/2/4
f 193/2/4 192/2/4 194/2/4
f 189/1/4 191/1/4 195/1/4
f 191/2/4 193/2/4 196/2/4
f 195/1/4 191/1/4 196/1/4
f 196/2/4 193/2/4 197/2/4
f 200/3/5 199/3/5 198/3/5
f 201/3/5 199/3/5 200/3/5
f 204/1/5 203/1/5 202/1/5
f 205/1/5 203/1/5 204/1/5
f 208/2/5 207/2/5 206/2/5
f 209/2/5 207/2/5 208/2/5
f 212/2/5 211/2/5 210/2/5
f 213/2/5 211/2/5 212/2/5
f 216/1/5 215/1/5 214/1/5
f 217/1/5 215/1/5 216/1/5
f 220/1/5 219/1/5 218/1/5
f 221/1/5 219/1/5 220/1/5
f 224/1/5 223/1/5 222/1/5
f 225/1/5 223/1/5 224/1/5
f 228/3/5 227/3/5 226/3/5
f 229/3/5 227/3/5 228/3/5
f 230/3/6 231/3/6 232/3/6
f 232/3/6 231/3/6 233/3/6
f 234/1/6 235/1/6 236/1/6
f 236/1/6 235/1/6 237/1/6
f 238/1/6 239/1/6 240/1/6
f 240/1/6 239/1/6 241/1/6
f 242/2/6 243/2/6 244/2/6
f 244/2/6 243/2/6 245/2/6
f 246/2/6 247/2/6 248/2/6
f 248/2/6 247/2/6 249/2/6
f 250/2/6 251/2/6 252/2/6
f 252/2/6 251/2/6 253/2/6
f 254/1/6 255/1/6 256/1/6
f 256/1/6 255/1/6 257/1/6
f 258/1/6 259/1/6 260/1/6
f 260/1/6 259/1/6 261/1/6
f 262/3/6 263/3/6 264/3/6
f 264/3/6 263/3/6 265/3/6
f 266/1/6 267/1/6 269/1/6
f 269/1/6 267/1/6 270/1/6
f 268/2/6 269/2/6 273/2/6
f 269/1/6 270/1/6 274/1/6
f 273/2/6 269/2/6 274/2/6
f 270/2/6 271/2/6 275/2/6
f 274/1/6 270/1/6 275/1/6
f 275/2/6 271/2/6 276/2/6
f 278/3/6 279/3/6 282/3/6
f 282/3/6 279/3/6 283/3/6
f 273/1/6 274/1/6 284/1/6
f 272/1/6 273/1/6 284/1/6
f 274/1/6 275/1/6 284/1/6
f 275/1/6 276/1/6 284/1/6
f 276/1/6 277/1/6 284/1/6
f 284/1/6 277/1/6 285/1/6
f 285/1/6 277/1/6 286/1/6
f 286/1/6 277/1/6 287/1/6
f 287/1/6 277/1/6 288/1/6
f 280/3/6 281/3/6 289/3/6
f 289/3/6 281/3/6 290/3/6
f 285/2/6 286/2/6 291/2/6
f 286/1/6 287/1/6 292/1/6
f 291/2/6 286/2/6 292/2/6
f 288/1/6 277/1/6 293/1/6
f 287/2/6 288/2/6 293/2/6
f 293/1/6 277/1/6 294/1/6
f 292/1/6 287/1/6 295/1/6
f 287/2/6 293/2/6 296/2/6
f 295/1/6 287/1/6 296/1/6
f 296/2/6 293/2/6 297/2/6
